<svg width="86" height="142" viewBox="0 0 86 142" fill="none" xmlns="http://www.w3.org/2000/svg">
<g clip-path="url(#clip0_10_1986)">
<path d="M10.0285 2.0747C10.3989 1.49214 10.2269 0.719587 9.64436 0.349156C9.06181 -0.0212763 8.28926 0.150685 7.91883 0.733241L10.0285 2.0747ZM84.7718 135.393C85.3684 135.046 85.5706 134.28 85.2234 133.684L79.5645 123.961C79.2172 123.364 78.452 123.162 77.8553 123.509C77.2587 123.856 77.0565 124.622 77.4038 125.218L82.4339 133.861L73.7911 138.891C73.1945 139.238 72.9923 140.004 73.3395 140.6C73.6868 141.197 74.452 141.399 75.0487 141.052L84.7718 135.393ZM7.91883 0.733241C3.72018 7.33621 -0.607824 17.7751 0.324823 27.5389C0.794899 32.46 2.60574 37.2296 6.45394 41.202C10.293 45.1649 16.0703 48.2426 24.3165 49.9561L24.8251 47.5084C16.9276 45.8674 11.6516 42.9744 8.24955 39.4625C4.85664 35.9601 3.23853 31.7508 2.81349 27.3011C1.95591 18.3232 5.97305 8.45239 10.0285 2.0747L7.91883 0.733241ZM24.3165 49.9561C34.4176 52.055 42.5115 53.7372 48.8822 55.3841C55.2735 57.0363 59.8029 58.623 62.8376 60.4845C65.8122 62.3092 67.2559 64.3345 67.6681 66.9144C68.0987 69.6093 67.4393 73.0975 65.6973 77.891L68.047 78.7449C69.8184 73.8705 70.6729 69.8748 70.1368 66.52C69.5824 63.0503 67.579 60.46 64.1448 58.3535C60.7707 56.2838 55.9298 54.6238 49.5079 52.9637C43.0656 51.2983 34.9036 49.6026 24.8251 47.5084L24.3165 49.9561ZM65.6973 77.891C62.1661 87.6081 59.0235 99.8992 60.5789 110.821C61.3603 116.309 63.3334 121.491 67.0728 125.814C70.8149 130.14 76.2536 133.521 83.8237 135.521L84.4623 133.104C77.2909 131.209 72.3216 128.06 68.9635 124.178C65.6026 120.293 63.7832 115.589 63.0539 110.469C61.588 100.175 64.5515 88.3637 68.047 78.7449L65.6973 77.891Z" fill="url(#paint0_linear_10_1986)"/>
</g>
<defs>
<linearGradient id="paint0_linear_10_1986" x1="42.795" y1="0.153809" x2="42.795" y2="141.221" gradientUnits="userSpaceOnUse">
<stop stop-color="#5418CF" stop-opacity="0.05"/>
<stop offset="1" stop-color="#D44117" stop-opacity="0.25"/>
</linearGradient>
<clipPath id="clip0_10_1986">
<rect width="86" height="142" fill="white"/>
</clipPath>
</defs>
</svg>
