<svg width="601" height="374" viewBox="0 0 601 374" fill="none" xmlns="http://www.w3.org/2000/svg">
<path d="M228.713 90.8185C231.682 87.8445 234.135 84.3532 235.943 80.6034C237.879 76.207 239.041 71.6813 239.429 66.897C239.816 61.7248 239.429 56.5526 238.912 51.5097C238.525 47.3719 237.75 43.2341 236.976 39.2256C235.168 30.5622 232.586 21.8987 229.229 13.7525C227.293 9.09746 225.098 4.57177 222.387 0.304688C224.711 2.11496 226.389 4.44246 227.809 6.89927C228.713 7.93371 236.201 15.8213 238.912 18.9247C244.464 25.2606 249.886 31.5966 255.696 37.674C265.12 47.6305 275.577 57.587 287.842 63.923C293.781 67.0263 300.236 69.4831 306.949 70.0003C313.146 70.5176 319.214 69.6124 325.024 67.4142C336.901 62.7592 345.422 52.5441 350.328 41.1652C353.814 33.1483 355.621 24.6141 356.783 15.9507C357.299 11.425 357.816 7.02857 358.332 2.50288V2.37358C358.461 4.95968 358.59 7.54579 358.59 10.1319C358.59 18.5368 357.428 26.9416 354.975 34.9586C351.49 46.8547 345.68 59.3973 335.868 67.5435C323.733 77.3708 306.175 77.1121 292.232 71.2934C278.418 65.604 266.798 55.5181 256.341 45.0444C250.402 39.0963 244.851 32.7604 239.3 26.4244C237.492 24.3555 235.685 22.2866 233.877 20.2177C235.168 23.1918 236.459 26.0365 237.621 29.0105C239.17 33.1483 240.591 37.4154 241.752 41.8117C243.947 49.958 245.367 58.3629 245.367 66.7677C245.238 74.526 243.947 82.9309 239.429 89.5255C235.039 95.8614 227.68 98.9648 220.192 99.7406C219.547 99.8699 218.772 99.3527 218.127 98.8355C222 96.7666 225.615 94.0512 228.713 90.8185Z" fill="white"/>
<path d="M391.64 58.4921C390.994 57.4576 390.478 56.2939 389.962 55.2594C388.8 52.8026 388.412 50.0872 388.67 47.3718C388.67 46.596 388.8 45.8201 388.929 45.0443V45.1736C390.091 50.2165 393.189 54.8715 396.933 58.4921C398.74 60.173 400.677 61.5954 402.872 62.5005C405.325 63.535 407.907 63.6643 410.489 63.4057C416.557 62.7592 422.237 59.7851 427.014 56.1646C432.178 52.2854 436.438 47.2425 440.312 42.1996C442.506 39.3549 444.572 36.5101 446.508 33.6654C448.445 30.6914 450.252 27.5881 452.576 24.8726C453.867 23.4503 456.837 25.5192 455.804 27.2001C453.867 30.4328 452.447 33.924 451.027 37.5446C449.607 41.0358 448.316 44.6564 446.896 48.1476C444.314 54.7422 441.215 61.2075 439.021 68.0607C436.826 74.6553 435.147 81.5084 434.502 88.491C433.986 94.3097 434.115 100.646 436.18 106.206C436.697 107.757 437.729 109.568 438.504 110.473C438.762 110.731 439.021 110.99 439.279 111.249C439.408 111.378 439.537 111.507 439.666 111.507C439.795 111.507 439.924 111.766 439.924 111.766C440.182 112.025 440.441 112.154 440.699 112.283L440.957 112.412C441.086 112.542 441.215 112.542 441.473 112.671C442.506 113.188 444.056 113.576 445.088 113.576C446.638 113.706 448.445 113.576 449.865 113.318C457.869 112.025 465.357 107.628 472.071 103.232C475.944 100.646 479.817 97.9303 483.432 94.9562C485.756 93.1459 487.692 91.3357 489.5 89.5254C488.854 90.5598 488.08 91.465 487.305 92.3701C482.528 98.4475 477.106 103.878 470.909 108.533C465.616 112.154 459.935 115.128 453.867 116.55C450.382 117.455 446.508 117.714 443.023 116.68C439.279 115.516 436.18 113.059 434.115 109.697C431.403 105.171 430.629 99.7405 430.5 94.6976C430.371 87.3272 431.662 79.9568 433.856 73.1036C436.309 65.216 439.924 57.7162 443.023 50.0872C443.668 48.4062 444.314 46.8546 444.959 45.1736C440.957 50.7337 436.438 56.0353 431.016 60.3024C425.594 64.4401 419.139 67.5435 412.296 68.3193C405.841 68.9658 399.902 66.509 395.126 62.2419C393.705 60.9489 392.673 59.7851 391.64 58.4921Z" fill="white"/>
<path d="M457.482 206.806C454.513 209.78 452.06 213.271 450.253 217.021C448.316 221.417 447.154 225.943 446.767 230.727C446.379 235.9 446.767 241.072 447.283 246.115C447.671 250.252 448.445 254.39 449.22 258.399C451.027 267.062 453.609 275.726 456.966 283.872C458.902 288.527 461.097 293.053 463.808 297.32C461.484 295.509 459.806 293.182 458.386 290.725C457.482 289.691 449.994 281.803 447.283 278.7C441.732 272.364 436.309 266.028 430.5 259.95C421.075 249.994 410.618 240.037 398.353 233.701C392.415 230.598 385.959 228.141 379.246 227.624C373.049 227.107 366.981 228.012 361.172 230.21C349.294 234.865 340.774 245.08 335.868 256.459C332.382 264.476 330.574 273.01 329.413 281.674C328.896 286.199 328.38 290.596 327.863 295.121V295.251C327.734 292.665 327.605 290.079 327.605 287.492C327.605 279.088 328.767 270.683 331.22 262.666C334.706 250.77 340.515 238.227 350.327 230.081C362.463 220.254 380.021 220.512 393.964 226.331C407.778 232.02 419.397 242.106 429.854 252.58C435.793 258.528 441.344 264.864 446.896 271.2C448.703 273.269 450.511 275.338 452.318 277.407C451.027 274.433 449.736 271.588 448.574 268.614C447.025 264.476 445.605 260.209 444.443 255.813C442.248 247.666 440.828 239.261 440.828 230.857C440.957 223.098 442.248 214.693 446.767 208.099C451.156 201.763 458.515 198.66 466.003 197.884C466.649 197.754 467.423 198.272 468.069 198.789C464.196 200.858 460.452 203.702 457.482 206.806Z" fill="white"/>
<path d="M294.555 239.132C295.201 240.166 295.717 241.33 296.234 242.365C297.396 244.821 297.783 247.537 297.525 250.252C297.525 251.028 297.396 251.804 297.266 252.58V252.45C296.104 247.408 293.006 242.753 289.262 239.132C287.455 237.451 285.518 236.029 283.323 235.124C280.87 234.089 278.288 233.96 275.706 234.218C269.638 234.865 263.958 237.839 259.181 241.46C254.017 245.339 249.757 250.382 245.884 255.425C243.689 258.269 241.623 261.114 239.687 263.959C237.75 266.933 235.943 270.036 233.619 272.751C232.328 274.174 229.358 272.105 230.391 270.424C232.328 267.191 233.748 263.7 235.168 260.08C236.588 256.588 237.879 252.968 239.299 249.476C241.881 242.882 244.98 236.417 247.175 229.563C249.369 222.969 251.048 216.116 251.693 209.133C252.21 203.314 252.08 196.978 250.015 191.418C249.498 189.867 248.466 188.056 247.691 187.151C247.433 186.893 247.175 186.634 246.916 186.375C246.787 186.246 246.658 186.117 246.529 186.117C246.4 186.117 246.271 185.858 246.271 185.858C246.013 185.6 245.754 185.47 245.496 185.341L245.238 185.212C245.109 185.082 244.98 185.082 244.722 184.953C243.689 184.436 242.14 184.048 241.107 184.048C239.558 183.919 237.75 184.048 236.33 184.307C228.326 185.6 220.838 189.996 214.124 194.392C210.251 196.978 206.378 199.694 202.763 202.668C200.827 204.349 198.761 206.03 196.954 207.969C197.599 206.935 198.374 206.03 199.148 205.125C203.925 199.047 209.348 193.617 215.544 188.962C220.838 185.341 226.518 182.367 232.586 180.945C236.072 180.039 239.945 179.781 243.431 180.815C247.175 181.979 250.273 184.436 252.339 187.798C255.05 192.323 255.824 197.754 255.954 202.797C256.083 210.168 254.792 217.538 252.597 224.391C250.144 232.279 246.529 239.779 243.431 247.408C242.785 249.089 242.14 250.64 241.494 252.321C245.496 246.761 250.015 241.46 255.437 237.192C260.859 233.055 267.315 229.951 274.157 229.176C280.612 228.529 286.551 230.986 291.328 235.253C292.361 236.675 293.522 237.839 294.555 239.132Z" fill="white"/>
<path d="M74.0482 301.457C74.0482 301.328 74.0482 301.198 74.1773 301.069C80.3742 291.63 85.7965 280.38 86.5711 269.001C86.8293 264.864 87.604 255.812 93.93 258.528C94.1882 258.657 93.93 259.045 93.8009 258.916C93.2845 258.786 92.8972 258.786 92.5099 258.786C95.4792 259.95 97.5449 263.829 98.5777 266.415C99.4814 268.613 101.418 273.786 100.385 276.76C102.322 275.596 104.387 274.432 106.195 273.139C111.746 269.131 116.265 263.958 123.236 264.346L123.365 264.217C126.722 263.312 130.982 265.122 134.21 265.898C136.534 266.415 138.729 266.932 140.665 268.096C140.794 267.838 141.182 267.838 141.44 267.967C144.667 270.165 145.313 275.855 146.217 279.216C147.12 282.19 150.993 286.587 149.702 289.949C149.702 289.949 149.702 290.078 149.573 290.078C150.864 292.535 152.026 295.509 151.897 298.354C152.026 299.517 151.639 300.94 151.768 302.104C152.543 304.819 153.575 307.534 153.963 310.379C154.35 312.965 154.221 315.293 152.801 317.62C151.122 320.336 148.282 322.146 146.604 324.732C146.991 327.577 147.249 330.551 147.249 333.525C147.249 336.111 146.217 337.792 144.667 339.344C141.569 343.093 136.663 345.033 132.532 347.748C130.466 349.041 128.271 350.205 126.077 350.981C126.077 351.11 126.077 351.24 125.947 351.24C124.011 352.533 124.656 356.024 124.786 358.093C125.044 360.679 125.431 363.136 125.56 365.722C125.689 367.273 125.689 368.954 125.818 370.506C124.785 371.282 123.624 372.058 122.333 372.575C119.363 373.739 116.136 373.868 113.037 373.609C109.551 373.222 105.937 372.575 102.58 371.541C98.4486 370.248 94.0591 368.049 90.5733 364.946C90.7024 364.041 90.9606 363.136 91.3479 362.231C91.477 361.972 91.7352 361.843 91.9935 361.843C91.8644 356.541 91.9934 351.24 91.8643 345.938C91.7352 338.956 86.7002 333.913 82.8272 328.611C79.4705 324.085 75.5974 319.43 73.4027 314.258C72.3699 311.672 71.5952 309.215 71.7243 306.371C71.7243 304.431 72.8863 302.879 74.0482 301.457Z" fill="#F4DAD0"/>
<path d="M74.0482 301.457C74.0482 301.328 74.0482 301.198 74.1773 301.069C80.3742 291.63 85.7965 280.38 86.5711 269.001C86.8293 264.864 87.604 255.812 93.93 258.528C94.1882 258.657 93.93 259.045 93.8009 258.916C93.2845 258.786 92.8972 258.786 92.5099 258.786C95.4792 259.95 97.5449 263.829 98.5777 266.415C99.4814 268.613 101.418 273.786 100.385 276.76C102.322 275.596 104.387 274.432 106.195 273.139C111.746 269.131 116.265 263.958 123.236 264.346L123.365 264.217C126.722 263.312 130.982 265.122 134.21 265.898C136.534 266.415 138.729 266.932 140.665 268.096C140.794 267.838 141.182 267.838 141.44 267.967C144.667 270.165 145.313 275.855 146.217 279.216C147.12 282.19 150.993 286.587 149.702 289.949C149.702 289.949 149.702 290.078 149.573 290.078C150.864 292.535 152.026 295.509 151.897 298.354C152.026 299.517 151.639 300.94 151.768 302.104C152.543 304.819 153.575 307.534 153.963 310.379C154.35 312.965 154.221 315.293 152.801 317.62C151.122 320.336 148.282 322.146 146.604 324.732C146.991 327.577 147.249 330.551 147.249 333.525C147.249 336.111 146.217 337.792 144.667 339.344C141.569 343.093 136.663 345.033 132.532 347.748C130.466 349.041 128.271 350.205 126.077 350.981C126.077 351.11 126.077 351.24 125.947 351.24C124.011 352.533 124.656 356.024 124.786 358.093C125.044 360.679 125.431 363.136 125.56 365.722C125.689 367.273 125.689 368.954 125.818 370.506C125.302 370.894 124.786 371.282 124.269 371.541C124.14 368.954 123.882 366.368 123.753 363.653C123.624 360.938 121.816 354.343 124.011 351.628C119.363 353.05 114.457 352.921 109.81 350.076C109.422 349.817 109.681 349.171 110.068 349.3C113.941 350.593 117.685 351.24 121.816 350.593C125.431 350.076 128.659 348.007 131.628 346.197C136.663 343.223 142.214 341.024 145.571 336.24C146.087 334.818 146.087 333.266 145.829 331.456C145.442 328.482 145.055 325.637 144.796 322.663C144.409 319.172 144.022 315.681 142.473 312.448C140.923 309.086 136.663 310.379 133.952 311.284C127.755 313.224 120.783 313.612 115.49 317.749C114.974 318.137 114.457 318.525 113.941 319.043C114.07 319.43 113.812 319.689 113.554 319.818C113.424 319.948 113.166 319.948 112.908 319.948C108.519 323.956 104.646 328.611 100.385 332.749C99.0941 337.663 105.678 338.438 109.035 337.016C112.65 335.464 115.232 332.102 117.814 329.258C119.88 326.93 122.462 325.766 125.431 325.508C129.046 325.12 132.532 327.318 135.759 328.482C135.888 328.482 135.888 328.87 135.63 328.74C133.564 328.353 131.499 327.706 129.562 327.189C129.821 328.094 130.208 328.999 130.466 329.904C130.466 330.034 130.337 330.163 130.208 330.034C129.691 329.128 129.304 328.094 128.788 327.059C126.335 326.542 124.011 326.542 121.3 327.447C118.847 328.353 117.685 330.809 116.136 332.749C114.845 334.301 113.424 335.852 111.746 337.016C108.906 339.085 105.162 340.249 101.805 338.568C99.6105 337.404 98.4486 335.464 98.8359 333.266C98.4486 333.008 98.3195 332.49 98.7068 332.102C103.096 327.965 106.84 322.792 111.488 318.784C107.486 314.129 110.455 307.405 112.392 302.233C114.974 295.121 120.783 291.242 126.98 287.492C127.109 287.363 127.238 287.363 127.368 287.233C126.722 286.587 126.077 286.07 125.302 285.552C124.011 284.647 122.462 284.518 121.171 283.742C120.654 284.001 120.267 284.13 119.751 284.389C116.394 286.07 113.554 288.397 109.939 289.69C105.807 291.113 101.547 290.078 98.3195 287.621C97.2867 290.854 94.8337 293.311 93.0263 296.155C93.2845 299.517 95.0919 301.457 97.5448 303.655C99.8687 305.595 101.934 307.534 103.613 310.12C107.357 315.939 106.066 322.146 101.805 327.189C101.547 327.577 101.031 327.059 101.16 326.672C102.967 322.663 105.033 319.818 104 315.163C103.225 311.801 101.031 308.698 98.4486 306.371C96.1247 304.302 91.8644 301.198 92.1226 297.707C91.4771 299 91.0897 300.293 91.0897 301.845C91.0897 301.974 90.8315 301.974 90.8315 301.845C90.9606 296.026 94.3173 291.63 97.674 287.104C96.6411 286.199 95.6083 285.165 94.8337 284.001C94.7046 284.001 94.5755 283.871 94.4464 283.742C94.1882 283.484 94.1882 283.096 94.0591 282.837C93.93 282.708 93.93 282.449 94.0591 282.32C94.1882 281.285 95.0919 280.251 96.1247 279.604C97.0284 278.958 97.9322 278.441 98.8359 277.923C98.8359 276.76 99.0941 275.596 98.965 274.432C98.8359 272.363 98.1904 270.294 97.5448 268.355C96.2538 264.605 94.0591 261.89 90.7024 259.95C87.3458 262.536 87.8621 271.329 87.0875 274.691C86.0547 279.475 84.5055 284.001 82.5689 288.526C80.5033 293.181 78.4377 298.095 75.4683 302.362C74.5646 304.431 73.0154 305.724 73.2736 308.31C73.4027 311.672 75.2101 314.905 76.8884 317.62C79.9869 322.922 83.9891 327.835 87.604 332.749C90.8315 337.145 93.1554 340.637 93.4136 346.197C93.5427 352.533 92.8972 358.869 92.3807 365.334C92.3807 365.463 92.3807 365.463 92.2516 365.463C92.2516 365.851 92.2516 366.239 92.2516 366.627C91.7352 366.239 91.0897 365.722 90.5733 365.334C90.7024 364.429 90.9606 363.524 91.3479 362.619C91.477 362.36 91.7352 362.231 91.9935 362.231C91.8644 356.929 91.9934 351.628 91.8643 346.326C91.7352 339.344 86.7002 334.301 82.8272 328.999C79.4705 324.473 75.5974 319.818 73.4027 314.646C72.3699 312.06 71.5952 309.603 71.7243 306.759C71.7243 304.431 72.8863 302.879 74.0482 301.457ZM117.168 314.388C120.525 312.448 124.656 312.06 128.4 311.414C131.628 310.896 134.726 309.603 137.954 309.215C144.926 308.181 145.7 316.844 146.217 321.887C146.346 322.534 146.346 323.31 146.475 323.956C148.411 319.818 152.801 317.103 152.672 312.06C152.543 308.957 151.381 305.724 150.477 302.75C149.573 300.035 149.057 297.19 147.508 294.862C144.022 293.052 139.632 296.285 136.276 297.578C132.403 299.129 128.529 300.293 124.656 301.716C122.333 303.914 120.396 306.759 118.589 309.345C117.039 311.672 113.941 313.87 113.683 316.715C114.715 315.939 116.007 315.034 117.168 314.388ZM126.98 289.173C121.945 292.535 116.781 295.638 114.199 301.328C113.037 303.914 112.263 306.888 111.488 309.603C110.713 312.319 110.842 314.775 112.263 316.844C112.392 314.258 114.586 311.931 116.265 309.991C117.814 308.181 118.976 306.112 120.525 304.302C121.3 303.267 122.333 302.491 123.365 301.716C123.365 301.586 123.365 301.328 123.494 301.328C127.884 298.224 133.823 297.19 138.6 294.992C142.214 293.311 150.993 291.113 150.735 298.224C150.735 297.966 150.735 297.578 150.864 297.319C150.864 297.19 150.993 297.19 150.993 297.061C150.477 294.604 149.444 292.406 148.282 290.078C146.991 287.751 145.829 285.035 143.376 283.613C141.052 282.19 138.212 283.096 135.888 284.001C133.435 285.035 131.112 286.458 128.788 287.88C128.788 288.009 128.917 288.009 128.917 288.139C129.046 288.268 128.788 288.397 128.659 288.268C128.529 288.139 128.529 288.139 128.4 288.009C127.884 288.526 127.497 288.785 126.98 289.173ZM95.8665 282.449C98.1904 284.906 100.256 287.363 103.742 288.397C106.969 289.302 110.326 288.009 113.295 286.587C116.394 285.035 118.976 282.708 122.203 281.673C125.947 280.51 130.079 280.51 133.952 280.38C134.081 280.38 134.081 280.639 133.952 280.639C130.337 281.027 126.722 281.673 123.365 282.837C125.173 283.484 126.722 285.294 127.884 286.845C132.403 284.001 138.987 279.863 144.022 282.578C146.604 284.001 147.895 287.233 149.186 289.69C149.186 289.69 149.186 289.69 149.186 289.82C149.057 286.458 145.958 283.484 144.796 280.38C144.151 278.441 143.635 276.501 143.118 274.561C142.473 272.622 141.569 271.07 140.536 269.26C138.341 268.355 136.017 267.967 133.694 267.45C131.886 267.062 130.208 266.674 128.4 266.286C126.722 265.898 124.915 265.898 123.236 265.381C121.042 265.769 118.976 266.157 117.039 267.191C114.328 268.484 112.133 270.812 109.81 272.622C107.228 274.691 104.516 276.63 101.676 278.311C100.256 278.829 95.6083 280.51 95.8665 282.449Z" fill="#BB8481"/>
<path d="M88.5072 285.941C90.1856 281.286 90.9602 276.889 91.2184 271.976C91.4766 268.485 91.6057 260.855 95.6079 261.373C96.8989 262.924 97.9317 264.993 98.4481 266.416C99.2228 268.355 100.901 272.622 100.385 275.726C97.6735 278.57 94.1878 282.45 96.6407 284.906C101.159 289.432 109.422 282.837 112.779 279.993C114.844 278.182 117.426 275.596 120.266 275.079C123.881 274.433 127.238 275.338 130.853 275.855C133.951 276.372 137.308 276.372 140.019 274.433C142.472 272.622 142.085 270.165 140.665 267.967C140.794 267.838 141.052 267.838 141.181 267.967C144.409 270.165 145.054 275.855 145.958 279.217C146.862 282.191 150.735 286.587 149.444 289.949C149.444 289.949 149.444 290.079 149.315 290.079C150.606 292.535 151.767 295.509 151.638 298.354C151.767 299.518 151.38 300.94 151.509 302.104C152.284 304.819 153.317 307.535 153.704 310.379C154.091 312.966 153.962 315.293 152.542 317.621C150.864 320.336 148.024 322.146 146.345 324.732C146.733 327.577 146.991 330.551 146.991 333.525C146.991 336.111 145.958 337.792 144.409 339.344C141.31 343.094 136.404 345.033 132.273 347.749C130.207 349.042 128.013 350.206 125.818 350.981C125.818 351.111 125.818 351.24 125.689 351.24C123.752 352.533 124.398 356.024 124.527 358.093C124.785 360.679 125.172 363.136 125.301 365.722C125.431 367.274 125.431 368.955 125.56 370.507C124.527 371.282 123.365 372.058 122.074 372.575C119.105 373.739 115.877 373.868 112.779 373.61C109.293 373.222 105.678 372.575 102.321 371.541C98.1899 370.248 93.8004 368.05 90.3146 364.946C90.4437 364.041 90.702 363.136 91.0893 362.231C91.2184 361.972 91.4766 361.843 91.7348 361.843C91.6057 356.542 91.7348 351.24 91.6057 345.938C91.4766 338.956 86.4416 333.913 82.5685 328.612C79.2118 324.086 75.3388 319.431 73.144 314.259C72.1112 311.673 71.3366 309.216 71.4657 306.5C79.5992 302.233 85.4088 294.346 88.5072 285.941ZM141.956 282.967C141.697 282.32 141.052 281.674 140.277 281.932C124.914 284.26 110.196 297.32 109.551 313.354C109.551 314.776 111.617 315.422 112.262 314.129C115.102 307.664 117.814 302.104 124.527 298.742C128.658 296.673 132.919 294.863 136.792 292.406C139.374 290.854 145.312 284.906 141.956 282.967ZM148.153 294.992C148.54 294.087 148.024 292.923 146.862 292.923C140.665 292.665 134.726 296.544 129.304 298.871C122.203 301.975 118.459 308.569 113.037 313.483C111.617 314.776 113.682 316.845 115.102 315.552C123.107 308.44 134.08 309.216 142.343 303.009C144.021 301.716 149.573 297.578 148.153 294.992ZM100.385 335.206C108.131 340.766 117.943 323.181 124.527 321.629C131.24 320.077 145.571 322.793 141.052 311.026C140.794 310.509 140.406 310.121 140.019 309.992C139.761 309.992 139.503 309.862 139.245 309.992C131.498 311.673 122.203 311.931 115.619 316.715C109.422 321.112 104.516 327.06 99.8683 333.137C99.3519 333.913 99.7392 334.818 100.385 335.206ZM91.0893 322.146C96.8989 324.862 101.676 320.207 100.643 314.259C100.126 311.414 98.7063 308.569 96.7698 306.371C96.8989 305.854 96.7698 305.207 96.2534 304.819C92.7676 302.104 82.3103 298.742 79.8574 304.561C76.7589 311.414 85.5379 319.56 91.0893 322.146Z" fill="#F4DAD0"/>
<path d="M125.818 351.11C123.882 352.403 124.527 355.895 124.656 357.963C124.914 360.55 125.302 363.006 125.431 365.592C125.56 367.144 125.56 368.825 125.689 370.377C124.656 371.153 123.494 371.928 122.203 372.446C119.234 373.609 116.006 373.739 112.908 373.48C109.422 373.092 105.807 372.446 102.451 371.411C98.3193 370.118 93.9298 367.92 90.444 364.817C90.5731 363.911 90.8313 363.006 91.2187 362.101C91.3478 361.843 91.606 361.713 91.8642 361.713C91.8642 360.55 91.8642 359.386 91.7351 358.222C92.7679 358.998 93.9298 359.774 94.9626 360.55C101.547 364.687 106.065 364.17 113.424 362.618C114.07 362.489 114.586 361.843 114.457 361.196C114.07 356.8 113.166 353.567 109.164 351.24C106.195 349.559 101.547 347.49 98.8357 344.516C99.9976 345.291 101.289 346.067 102.58 346.714C104 347.231 105.033 345.291 104 344.257C101.289 341.542 98.8357 338.309 97.5447 334.559C96.2536 330.551 98.7066 328.352 100.772 325.249C102.967 322.146 104.904 317.491 103.871 313.741C102.451 308.569 97.5447 305.595 93.8007 302.233C92.3806 300.94 90.9604 300.293 89.7985 301.069C85.1508 295.638 91.735 288.397 94.8335 283.613C95.0917 283.225 95.3499 282.837 95.479 282.449C95.3499 283.354 95.479 284.259 96.2536 285.035C96.5118 285.294 96.8992 285.552 97.1574 285.811C104.516 295.767 114.586 282.32 122.849 280.509C126.98 279.604 131.886 278.958 136.017 278.958C138.47 278.958 140.536 279.734 142.86 279.992C144.022 280.122 144.925 279.863 145.571 279.475C146.475 282.32 149.831 286.328 149.186 289.561C146.862 285.94 144.151 282.19 140.536 282.19C140.278 282.061 140.019 282.061 139.761 282.061C135.501 282.708 131.757 285.552 127.884 287.751C117.685 293.311 109.422 301.974 108.906 313.612C108.906 314.129 109.164 314.517 109.551 314.775C109.551 315.681 109.551 316.715 110.197 317.62C110.455 317.879 110.584 318.267 110.842 318.525C106.969 322.016 103.742 326.154 101.418 331.068C100.772 331.973 99.9976 332.878 99.3521 333.783C98.8357 334.43 99.223 335.335 99.8685 335.723C107.615 341.283 117.426 323.697 124.011 322.146C130.724 320.594 145.054 323.31 140.536 311.543C140.278 311.026 139.89 310.638 139.503 310.508C139.245 310.508 138.987 310.379 138.728 310.508C134.081 311.543 128.787 312.06 123.882 313.353C128.529 311.026 133.693 308.827 138.599 308.181C143.893 307.405 145.054 310.12 147.378 313.741C148.024 314.646 149.186 315.939 150.348 315.939C151.897 315.939 152.93 315.163 153.575 314.129C153.446 315.422 153.059 316.715 152.284 318.008C150.606 320.723 147.766 322.534 146.087 325.12C146.475 327.965 146.733 330.939 146.733 333.913C146.733 336.499 145.7 338.18 144.151 339.731C141.052 343.481 136.146 345.421 132.015 348.136C129.949 349.429 127.755 350.593 125.56 351.369C125.947 350.981 125.947 351.11 125.818 351.11Z" fill="#F4DAD0"/>
<path d="M103.613 289.173C103.742 296.931 104 304.56 104 312.319C104 312.319 104 312.319 103.871 312.189C102.064 307.922 97.8033 305.207 94.3175 302.104C93.8011 301.069 93.2847 299.905 93.0265 298.742C92.1228 294.087 95.4795 290.337 98.4488 286.587C100.127 288.397 101.806 289.173 103.613 289.173Z" fill="#F0C7BB"/>
<path d="M125.818 351.11C123.882 352.403 124.527 355.894 124.656 357.963C124.915 360.549 125.302 363.006 125.431 365.592C125.56 367.144 125.56 368.825 125.689 370.377C124.656 371.152 123.494 371.928 122.203 372.445C121.429 372.704 120.525 372.963 119.75 373.221C119.492 369.73 119.234 366.11 119.234 362.618C119.105 358.998 120.654 353.955 116.781 352.145C115.361 351.498 113.812 350.852 112.262 350.205C115.877 350.334 119.492 349.688 123.107 347.748C129.433 344.257 135.888 341.283 141.827 337.145C143.764 335.852 145.829 334.559 147.249 332.878C147.249 333.007 147.249 333.266 147.249 333.395C147.249 335.981 146.216 337.662 144.667 339.214C141.569 342.964 136.663 344.903 132.532 347.619C130.466 348.912 128.271 350.076 126.076 350.852C125.947 350.981 125.947 351.11 125.818 351.11Z" fill="#F0C7BB"/>
<mask id="mask0_4266_5443" style="mask-type:luminance" maskUnits="userSpaceOnUse" x="93" y="246" width="45" height="115">
<path d="M112.391 301.974C110.455 307.276 107.485 313.87 111.488 318.525C108.131 321.629 105.032 325.249 101.934 328.611C101.934 327.964 101.934 327.189 101.934 326.542C106.065 321.499 107.356 315.293 103.612 309.603C103.354 309.215 102.45 308.698 101.03 308.051C99.0937 307.276 94.0587 324.085 99.7392 336.499C102.063 341.412 112.004 339.731 118.33 329.258C120.008 326.413 128.4 324.861 133.048 327.964C137.308 330.809 138.599 339.473 135.63 343.998C130.724 351.627 100.256 360.808 99.4809 360.549C88.8945 357.188 94.8333 256.846 93.6713 255.812C91.2184 253.743 103.741 249.993 103.483 246.631C104.258 245.468 136.792 256.2 135.501 264.863C135.113 267.579 124.269 261.372 116.393 266.544C98.319 278.182 99.7392 276.76 99.7392 276.76C98.7063 283.354 98.0608 288.138 98.4481 287.104C101.805 289.561 106.065 290.595 110.067 289.173C113.682 288.009 116.393 285.552 119.879 283.871C120.396 283.613 120.783 283.483 121.299 283.225C122.59 284.001 124.14 284.259 125.431 285.035C126.205 285.552 126.851 286.07 127.496 286.716C127.367 286.845 127.238 286.845 127.109 286.975C120.654 291.112 114.973 294.862 112.391 301.974Z" fill="white"/>
</mask>
<g mask="url(#mask0_4266_5443)">
<path d="M103.225 308.051C103.355 303.784 102.709 299.388 102.58 295.121C102.193 285.811 102.322 276.63 102.064 267.32C102.064 266.027 110.455 261.113 114.716 260.208C119.105 259.303 125.302 259.562 128.659 263.182C128.788 263.441 129.175 264.734 128.788 264.605C128.917 268.613 128.788 272.751 128.917 276.759C129.046 281.673 129.304 286.457 129.046 291.371C128.53 300.94 127.755 309.862 129.175 319.43C130.208 325.895 130.337 331.973 126.335 337.274C123.236 341.283 118.201 343.869 113.295 343.869C100.385 343.61 101.934 325.895 102.709 316.844C102.838 313.87 103.096 311.025 103.225 308.051Z" fill="#B01700"/>
<path d="M103.353 308.051C103.353 306.629 103.353 305.077 103.224 303.655L102.966 299.258C102.837 297.836 102.837 296.284 102.837 294.862V290.466L102.966 281.673C102.966 278.699 103.095 275.854 103.095 272.88V268.484V267.32C103.095 267.191 103.095 267.579 103.095 267.449V267.32C103.095 267.32 103.095 267.32 103.095 267.449C103.095 267.32 103.224 267.32 103.353 267.191C103.741 266.803 104.386 266.285 104.903 265.898C107.227 264.346 109.809 262.923 112.391 261.76C113.036 261.501 113.682 261.243 114.327 260.984L114.844 260.855L115.36 260.725C115.747 260.596 116.006 260.596 116.393 260.596C117.813 260.337 119.233 260.337 120.653 260.337C122.073 260.467 123.493 260.725 124.784 261.113C125.43 261.372 126.076 261.63 126.721 262.018C126.979 262.148 127.237 262.406 127.625 262.665C127.754 262.794 127.883 262.923 128.012 263.053L128.528 263.441L128.399 263.311V263.441C128.399 263.57 128.399 263.699 128.528 263.829C128.528 263.958 128.528 264.087 128.528 264.087C128.528 264.087 128.528 264.087 128.658 263.958C128.787 263.958 128.787 263.829 128.916 263.958L128.399 264.346C128.528 267.061 128.528 269.777 128.528 272.492V276.501L128.658 280.509C128.658 281.802 128.787 283.224 128.658 284.518L128.528 288.526C128.528 291.241 128.141 293.957 128.012 296.672C127.754 299.388 127.625 302.103 127.496 304.818C127.367 307.534 127.367 310.249 127.496 313.094C127.625 314.516 127.625 315.809 127.883 317.232L128.399 321.24C128.658 323.826 128.787 326.542 128.399 328.999C128.012 331.455 126.979 333.912 125.559 335.852V335.981L125.43 336.11L125.043 336.498L124.397 337.274L123.106 338.567C122.59 338.955 122.073 339.343 121.557 339.731C121.041 339.99 120.524 340.378 119.879 340.636C117.555 341.8 115.102 342.317 112.649 342.058C111.487 341.929 110.325 341.671 109.163 341.153C108.13 340.636 107.227 339.86 106.452 338.826C104.903 336.886 104.128 334.3 103.612 331.714C103.095 329.128 102.966 326.413 102.966 323.697C102.966 320.982 103.095 318.266 103.224 315.551C102.966 313.482 103.095 310.767 103.353 308.051ZM103.095 308.051C102.837 310.767 102.708 313.482 102.45 316.197C102.192 318.913 101.804 321.628 101.675 324.344C101.546 327.059 101.546 329.774 101.804 332.619C102.192 335.335 102.837 338.179 104.515 340.636C105.29 341.8 106.452 342.964 107.743 343.739C109.034 344.515 110.583 344.903 112.003 345.032C114.844 345.291 117.942 344.645 120.524 343.481C121.17 343.222 121.815 342.834 122.461 342.446C123.106 342.058 123.623 341.541 124.268 341.153C124.785 340.636 125.43 340.119 125.946 339.602L126.592 338.826L126.979 338.438L127.108 338.309C127.237 338.179 127.108 338.309 127.108 338.179L127.237 338.05C129.045 335.723 130.078 332.878 130.465 330.033C130.852 327.188 130.723 324.344 130.336 321.628L129.819 317.62C129.561 316.327 129.561 314.904 129.432 313.611C129.174 310.896 129.174 308.31 129.174 305.594C129.174 302.879 129.174 300.163 129.303 297.448C129.303 294.733 129.561 292.017 129.432 289.302C129.432 286.586 129.432 283.871 129.303 281.156L129.174 277.147V273.139C129.174 270.423 129.174 267.708 129.174 264.992L128.658 265.38C128.787 265.38 128.916 265.38 129.045 265.251C129.174 265.122 129.174 265.122 129.174 264.992C129.174 264.863 129.174 264.734 129.174 264.604C129.174 264.475 129.174 264.217 129.174 264.087C129.174 263.958 129.174 263.829 129.045 263.699C129.045 263.57 129.045 263.57 128.916 263.441C128.916 263.311 128.916 263.311 128.787 263.182L128.658 263.053C128.658 263.053 128.787 263.182 128.787 263.053L128.658 262.924L128.399 262.665C128.27 262.536 128.141 262.406 128.012 262.277C127.754 262.018 127.496 261.76 127.108 261.501C126.463 260.984 125.817 260.725 125.043 260.337C123.623 259.691 122.073 259.432 120.653 259.174C119.104 259.044 117.684 259.044 116.135 259.174C115.747 259.174 115.36 259.303 114.973 259.303L114.456 259.432L113.811 259.562C113.036 259.691 112.391 259.949 111.616 260.208C110.196 260.725 108.905 261.372 107.485 262.018C106.194 262.665 104.903 263.441 103.612 264.217C102.966 264.604 102.321 265.122 101.675 265.639C101.546 265.768 101.417 265.898 101.159 266.156C101.03 266.285 101.03 266.285 100.901 266.673C100.901 266.803 100.901 266.803 100.771 266.932C100.771 267.061 100.771 266.932 100.771 267.061V267.191V267.32V268.484L100.901 272.88C101.03 275.854 101.159 278.699 101.288 281.673L101.804 290.466L102.062 294.862L102.45 299.258C102.579 300.681 102.708 302.232 102.837 303.655C103.095 305.077 102.966 306.629 103.095 308.051Z" fill="#710B04"/>
<path opacity="0.5" d="M103.224 308.051C103.224 307.793 103.224 307.534 103.224 307.146C104.128 308.827 105.032 310.508 105.806 312.189C106.452 313.353 108.13 312.965 108.517 311.801C110.583 305.465 110.454 298.87 114.843 293.569C115.876 292.276 114.585 290.466 113.036 291.241C109.937 292.922 106.581 294.345 103.353 292.017C102.966 291.759 102.708 291.759 102.32 291.759C102.062 283.612 102.062 275.337 101.933 267.191C101.933 266.803 102.708 266.027 103.87 265.251C102.579 267.061 102.062 269.13 102.45 271.199C102.579 271.975 103.482 272.363 104.257 272.234C107.097 271.458 109.937 269.647 112.39 267.966C114.585 266.544 117.425 264.734 118.587 262.277C119.104 261.243 118.2 259.691 116.909 260.079C116.263 260.337 115.618 260.467 114.972 260.467C114.714 260.337 114.456 260.337 114.069 260.208C114.198 260.208 114.327 260.079 114.456 260.079C118.846 259.174 125.042 259.432 128.399 263.053C128.528 263.311 128.916 264.604 128.528 264.475C128.657 268.484 128.528 272.621 128.657 276.63C128.786 281.544 129.045 286.328 128.786 291.241C128.27 300.81 127.495 309.732 128.916 319.301C129.948 325.766 130.077 331.843 126.075 337.145C125.43 337.921 124.784 338.697 124.01 339.472C124.01 339.472 124.01 339.472 124.139 339.343C125.43 337.662 128.012 332.361 125.042 330.938C122.46 329.645 119.362 331.714 117.684 333.654C114.585 337.145 112.132 343.739 106.452 341.283C100.9 335.981 101.933 323.826 102.579 316.715C102.837 313.87 103.095 311.025 103.224 308.051Z" fill="#710B04"/>
</g>
<path d="M81.2791 290.854C82.441 287.75 83.732 284.776 84.7649 281.673C86.0559 277.923 86.4432 273.915 86.9596 269.906C87.2178 267.837 88.3797 256.07 92.6401 259.044C92.7692 259.174 92.6401 259.432 92.511 259.303C88.767 258.01 88.5089 270.035 88.2506 272.363C87.8633 276.63 86.9596 280.638 85.5395 284.518C84.6358 286.845 83.4739 289.043 82.441 291.242C81.15 293.828 79.2134 296.155 78.0515 298.871C77.9224 299 77.7933 298.871 77.7933 298.741C78.5679 295.897 80.2463 293.569 81.2791 290.854Z" fill="#FFF4F0"/>
<path d="M112.391 263.7C115.103 259.95 120.267 257.752 124.785 258.14C126.98 258.269 129.304 258.916 131.24 259.691C133.952 260.855 137.308 262.795 140.278 262.019C140.536 262.019 140.665 262.278 140.407 262.407C136.921 263.829 132.79 261.372 129.433 260.467C126.851 259.691 124.14 259.303 121.429 259.433C118.072 259.562 114.974 261.76 112.521 263.829C112.521 263.958 112.262 263.829 112.391 263.7Z" fill="#FFF4F0"/>
<path d="M122.203 292.018C127.626 287.104 134.597 281.544 142.343 283.096C142.602 283.096 142.602 283.613 142.343 283.613C134.856 282.837 128.013 289.044 122.72 293.699C120.267 295.897 118.072 298.483 116.136 301.328C113.812 304.819 112.779 308.827 111.488 312.707C111.359 312.965 110.971 312.965 110.971 312.707C111.617 304.302 116.136 297.448 122.203 292.018Z" fill="#FFF4F0"/>
<path d="M114.845 314.129C118.589 307.793 123.753 302.233 130.467 299.13C133.565 297.707 136.664 296.285 139.891 294.992C142.731 293.828 145.701 293.44 148.154 295.509C148.283 295.638 148.154 295.897 148.025 295.768C144.539 294.345 141.311 295.768 138.084 297.319C135.373 298.612 132.661 299.776 129.95 301.069C127.11 302.362 124.528 304.043 122.333 306.371C120.009 308.957 117.815 311.802 115.491 314.517C115.104 314.776 114.587 314.517 114.845 314.129Z" fill="#FFF4F0"/>
<path d="M102.709 331.327C108.389 323.31 115.748 316.069 125.431 313.483C128.4 312.707 131.111 311.543 134.081 310.896C135.888 310.509 139.374 309.733 140.277 312.06C140.407 312.319 140.019 312.577 139.89 312.319C138.341 310.25 133.564 312.19 131.628 312.836C129.175 313.612 126.722 314.646 124.269 315.422C115.748 318.138 109.035 325.379 103.096 331.715C102.967 331.715 102.58 331.456 102.709 331.327Z" fill="#FFF4F0"/>
<path d="M17.6313 214.822L26.6685 211.848L41.3862 206.934C41.3862 206.934 31.9617 222.58 39.8369 244.692C47.7122 266.803 62.9463 277.147 62.3008 276.501L50.2942 281.673L46.4212 283.354C29.7669 289.173 10.7889 278.44 3.68821 259.303C-2.89603 241.459 3.30088 222.322 17.6313 214.822Z" fill="#B01700"/>
<path d="M17.6313 214.822L29.5087 210.943L41.3861 207.064L41.257 206.935C40.4824 208.357 39.8369 209.909 39.1914 211.46C38.675 213.012 38.1586 214.564 37.7713 216.115C37.5131 216.891 37.384 217.667 37.2549 218.572C37.1258 219.348 36.8676 220.124 36.8676 221.029C36.7385 221.805 36.6094 222.71 36.6094 223.486L36.4803 225.942C36.4803 226.718 36.4803 227.623 36.4803 228.399V229.692L36.6094 230.985L36.7384 233.442L37.1258 235.899L37.2549 237.063L37.5131 238.226L38.0295 240.683C38.4168 242.235 38.9332 243.787 39.4496 245.468C41.6444 251.674 44.6137 257.622 48.3577 263.053C50.1651 265.769 52.2308 268.355 54.5546 270.811C55.7166 271.975 56.8785 273.268 58.0404 274.303C58.6859 274.82 59.3314 275.466 59.8478 275.984L60.8806 276.76L61.3971 277.147L61.6553 277.277L61.7844 277.406H61.9135C61.9135 277.406 62.0426 277.406 62.0426 277.535C61.9135 277.923 64.1082 274.432 63.0754 275.854L62.9463 275.725L62.559 275.337L61.9135 275.596C56.6202 277.923 51.3271 280.121 46.0338 282.449H46.163L43.0645 283.354L39.966 283.871C38.9332 283.871 37.9004 284.001 36.8676 284.001C35.8347 283.871 34.8019 283.871 33.64 283.871C32.6072 283.742 31.5744 283.613 30.5415 283.354C29.5087 283.095 28.4759 282.837 27.4431 282.449C26.4103 282.061 25.3774 281.673 24.4737 281.285C23.57 280.768 22.5372 280.38 21.6335 279.863C20.7297 279.346 19.826 278.828 18.9223 278.182C18.0186 277.535 17.244 276.889 16.3402 276.242L13.8873 274.044L11.6925 271.717C11.047 270.941 10.4015 270.036 9.62689 269.131C8.98138 268.225 8.46498 267.32 7.81947 266.415C7.56126 266.027 7.17394 265.51 7.04484 264.993L6.27026 263.57C5.75385 262.665 5.36653 261.631 4.85012 260.596L4.20461 259.045L3.68821 257.493C3.3009 256.459 2.91357 255.424 2.78447 254.39C2.52626 253.355 2.26806 252.321 2.13896 251.157C2.00985 250.123 1.75166 248.959 1.75166 247.924C1.49346 245.726 1.49345 243.528 1.62255 241.459C1.75166 240.425 1.75164 239.261 2.00985 238.226C2.26805 237.192 2.39716 236.028 2.65536 234.994C2.91357 233.959 3.17179 232.925 3.55909 231.891L4.0755 230.339C4.2046 229.822 4.4628 229.304 4.72101 228.787L5.36652 227.365L6.14115 225.942C6.39935 225.425 6.65757 225.037 6.91577 224.52L7.81947 223.227C9.11049 221.417 10.5306 219.865 12.2089 218.443C12.9836 217.667 13.8873 217.15 14.791 216.374C15.6947 215.857 16.7276 215.339 17.6313 214.822ZM17.6313 214.822C16.7276 215.339 15.6947 215.986 14.791 216.503C13.8873 217.15 12.9836 217.796 12.2089 218.572C10.5306 219.994 9.11049 221.675 7.81947 223.356L6.91577 224.649C6.65757 225.037 6.39934 225.555 6.01204 226.072L5.1083 227.494L4.46279 228.917C4.20458 229.434 3.94638 229.951 3.81728 230.468L3.30087 232.02C2.91357 233.054 2.65538 234.089 2.26807 235.123C1.88076 236.158 1.75166 237.321 1.62255 238.356C1.36435 239.39 1.36433 240.554 1.23522 241.588C0.977016 243.787 0.977051 245.985 1.10615 248.183C1.10615 249.347 1.36434 250.381 1.49344 251.416C1.62255 252.579 1.88075 253.614 2.13896 254.648C2.39716 255.683 2.65538 256.846 3.04269 257.881L3.55909 259.433L4.20461 260.984C4.59192 262.019 4.97922 263.053 5.49563 264.088L6.27026 265.51C6.52846 266.027 6.78664 266.544 7.04484 266.932C7.69035 267.837 8.20679 268.872 8.85231 269.777C9.49782 270.682 10.1433 271.587 10.9179 272.492L13.1127 274.949L15.5656 277.277C16.4693 278.053 17.3731 278.699 18.1477 279.346C19.0514 279.992 19.9551 280.509 20.9879 281.156C21.8917 281.673 22.9245 282.19 23.9573 282.708C24.9901 283.225 26.0229 283.613 27.0557 284.001C28.0886 284.389 29.2505 284.647 30.2833 284.906C31.3161 285.164 32.4781 285.294 33.64 285.552C34.8019 285.682 35.8347 285.682 36.9967 285.811C38.1586 285.811 39.1914 285.682 40.3533 285.682L43.71 285.164L46.9376 284.259C52.2308 281.932 57.524 279.734 62.8172 277.406L61.7844 277.277C60.7516 278.699 63.0754 275.208 62.8172 275.596H62.9463L62.8172 275.466L62.559 275.337L62.0426 274.949L61.1389 274.173C60.4934 273.656 59.9769 273.139 59.3314 272.622C58.1695 271.587 57.0076 270.424 55.8457 269.26C53.6509 266.932 51.5853 264.346 49.7778 261.76C46.0338 256.459 42.9354 250.769 40.6115 244.692C40.0951 243.14 39.5787 241.588 39.0623 240.037L38.4168 237.709L38.1586 236.546L37.9004 235.382L37.5131 232.925L37.2549 230.468L37.1258 229.304V228.141C37.1258 227.365 36.9967 226.46 37.1258 225.684L37.2549 223.227C37.2549 222.451 37.384 221.675 37.5131 220.77C37.5131 219.994 37.7713 219.219 37.9004 218.313C38.0295 217.538 38.1586 216.762 38.4168 215.986C38.8041 214.434 39.1914 212.883 39.7078 211.331C40.2242 209.779 40.8698 208.228 41.6444 206.935L41.7735 206.676L41.5153 206.805L29.6378 210.814L17.6313 214.822Z" fill="#710B04"/>
<path opacity="0.4" d="M21.5047 279.217C26.1524 281.027 31.4457 283.096 36.4807 282.449C43.3231 281.673 49.9073 279.734 56.2333 276.889C56.6207 276.76 56.4916 276.243 56.2333 275.984C55.3296 275.337 54.6841 274.691 53.9095 274.044C53.7804 273.915 53.5222 273.915 53.264 273.915C49.6491 275.467 45.9051 276.501 42.1612 277.665C40.6119 278.182 39.0627 278.699 37.5135 278.958C36.9971 279.087 32.2203 279.087 33.8986 277.536C35.5769 276.113 37.7717 275.208 39.8373 274.303C43.194 273.01 50.6819 270.295 50.5528 270.036C49.52 268.614 48.4872 266.933 47.1962 265.769C47.3253 265.381 46.8089 265.122 46.2925 265.252C39.45 268.096 30.9292 272.881 27.4435 272.234C17.3735 270.553 42.8067 259.821 42.6776 259.433C41.2574 257.364 40.0955 255.166 38.6754 253.226C39.1918 252.709 21.8921 262.666 19.5682 263.183C16.2115 263.959 13.8877 262.148 16.5989 258.786C18.1481 256.847 23.4413 254.131 25.5069 252.709C28.8636 250.382 36.8679 247.02 36.7388 246.632C35.5769 244.175 34.6732 241.718 34.0277 239.132C33.8986 238.744 25.3778 243.27 21.3756 245.209C19.31 246.244 15.4369 248.83 12.984 248.054C10.531 247.278 11.9512 244.175 16.3406 241.977C18.2772 240.942 33.7695 233.313 33.6404 232.925C33.2531 229.434 33.7695 225.943 34.0277 222.452C34.0277 222.064 19.6973 229.046 16.7279 229.563C15.9533 229.693 14.9205 229.951 14.1459 229.951C13.2422 229.046 13.2422 228.27 14.275 227.624C15.1787 226.589 16.2115 225.684 17.3734 224.908C19.31 223.615 31.3166 218.702 34.6732 216.374C36.0934 215.34 36.7389 213.917 37.2553 212.366C38.0299 209.909 39.5791 208.357 41.1284 206.676L41.7739 206.418C41.7739 206.418 32.3494 222.064 40.2246 244.175C47.8417 265.252 61.9139 275.596 62.6885 275.984L50.6819 281.156L46.8089 282.837C36.3516 286.458 24.9905 283.613 16.2115 276.372C17.7608 277.794 19.6973 278.57 21.5047 279.217Z" fill="#B01700"/>
<path d="M39.8366 244.692C31.9613 222.581 41.3858 206.935 41.3858 206.935C43.4515 193.487 81.6658 187.798 128.788 149.782C152.801 130.386 165.195 111.378 170.747 101.292C164.55 120.3 168.552 155.601 182.366 193.229C195.922 229.951 215.158 259.045 231.941 270.036C222.517 266.286 199.278 259.045 165.583 260.726C109.294 263.571 77.5346 282.191 64.8825 277.794C60.493 274.95 47.841 266.674 39.8366 244.692Z" fill="#F3F3EE"/>
<path d="M39.9671 244.562L39.1925 242.235C38.9343 241.459 38.6761 240.683 38.547 239.908L38.0306 237.58C37.7724 236.804 37.6433 236.028 37.5142 235.253L37.1269 232.796L36.8687 230.339C36.7396 229.563 36.7395 228.787 36.7395 227.882C36.7395 227.106 36.7395 226.201 36.7395 225.425L36.8687 222.968C36.9978 222.193 36.9978 221.417 37.1269 220.512C37.256 219.736 37.3851 218.96 37.5142 218.184C37.6433 217.408 37.9015 216.633 38.0306 215.857C38.1597 215.081 38.4179 214.305 38.6761 213.529C38.9343 212.753 39.1925 211.978 39.4507 211.202C39.7089 210.426 39.9671 209.65 40.3544 209.003C40.6127 208.228 41 207.581 41.3873 206.805C41.6455 205.124 42.5492 203.443 43.7111 202.15C44.873 200.857 46.2932 199.693 47.7133 198.659C50.5535 196.59 53.652 194.909 56.8796 193.228C63.2056 189.996 69.5316 186.892 75.8577 183.66C82.1837 180.427 88.3806 177.065 94.5775 173.574C97.676 171.764 100.645 169.953 103.615 168.014C106.584 166.074 109.553 164.134 112.523 162.195C118.332 158.186 124.013 153.919 129.564 149.523L137.698 142.67C140.28 140.213 142.862 137.756 145.444 135.299L149.059 131.42C150.221 130.127 151.512 128.834 152.674 127.541C154.998 124.826 157.321 122.11 159.387 119.265C161.582 116.55 163.647 113.576 165.584 110.602L168.424 106.076C169.328 104.525 170.232 102.973 171.135 101.421L169.973 100.904C168.812 104.654 168.037 108.533 167.65 112.412C167.391 114.352 167.391 116.291 167.133 118.231C167.133 120.171 167.004 122.11 167.004 124.05C167.133 131.937 167.908 139.696 169.07 147.325C169.457 149.264 169.715 151.204 170.103 153.144L171.265 158.833L172.556 164.522C172.943 166.462 173.588 168.272 173.976 170.212C174.492 172.151 175.008 173.962 175.525 175.901C176.041 177.712 176.558 179.651 177.203 181.461C177.849 183.272 178.365 185.211 179.011 187.022L180.947 192.582C182.367 196.202 183.658 199.823 185.208 203.443C185.982 205.254 186.628 207.064 187.531 208.874C188.306 210.684 189.081 212.495 189.984 214.176L192.437 219.477L195.148 224.649C196.956 228.141 198.892 231.503 200.829 234.865C202.766 238.227 204.96 241.588 207.155 244.821C209.35 248.054 211.674 251.157 214.127 254.26C215.288 255.812 216.709 257.234 217.871 258.786C219.162 260.208 220.582 261.631 222.002 263.053C224.842 265.769 227.811 268.355 231.168 270.553L232.072 268.743C230.394 268.096 228.715 267.45 227.037 266.932C225.358 266.415 223.68 265.769 221.873 265.381L216.709 263.958C215.03 263.441 213.223 263.182 211.545 262.795C208.059 262.019 204.573 261.502 200.958 260.984C200.054 260.855 199.151 260.726 198.376 260.596L195.665 260.338L190.372 259.821C188.564 259.562 186.757 259.562 185.078 259.562L179.785 259.303C178.882 259.303 177.978 259.174 177.074 259.174H174.363L169.07 259.303C165.455 259.303 161.969 259.562 158.483 259.821C154.868 260.079 151.383 260.467 147.897 260.855C133.825 262.536 119.753 265.381 106.068 269.001C99.2252 270.812 92.3828 272.751 85.5404 274.691C82.1837 275.596 78.6979 276.501 75.2122 277.147C73.5338 277.406 71.7264 277.665 70.048 277.794C68.3697 277.923 66.5623 277.794 64.8839 277.147H65.0131C63.5929 276.113 62.0437 275.208 60.7527 274.173C59.3325 273.139 58.0415 271.975 56.7505 270.682C56.1049 270.036 55.4594 269.518 54.943 268.872C54.2975 268.225 53.7811 267.579 53.1356 266.932C52.4901 266.286 51.9737 265.639 51.4573 264.863C50.9409 264.217 50.2953 263.441 49.908 262.795C49.3916 262.019 48.8752 261.372 48.3588 260.596L46.9387 258.398C46.4223 257.622 46.035 256.847 45.6477 256.071C45.1313 255.295 44.7439 254.519 44.3566 253.743C43.9693 252.967 43.582 252.192 43.1947 251.416L42.1619 248.959C41.2582 247.924 40.6126 246.243 39.9671 244.562ZM39.7089 244.692C40.3544 246.373 40.8709 248.054 41.6455 249.605L42.6783 252.062C43.0656 252.838 43.4529 253.614 43.8402 254.39C44.2275 255.166 44.6148 255.941 45.1312 256.717C45.5185 257.493 46.0349 258.269 46.4223 259.045L47.8424 261.243C48.3588 262.019 48.8752 262.665 49.3916 263.441C49.9081 264.217 50.4244 264.863 50.9408 265.51C51.4573 266.157 51.9737 266.932 52.6192 267.579C53.1356 268.225 53.7811 268.872 54.4266 269.518C55.0721 270.165 55.5885 270.812 56.2341 271.458C57.5251 272.751 58.8161 273.786 60.2363 274.949C60.8818 275.466 61.6564 275.984 62.3019 276.501L64.4966 278.053C66.175 278.699 68.1115 278.828 69.7898 278.828C71.5973 278.828 73.4047 278.57 75.0831 278.311C78.5688 277.794 82.0546 276.889 85.5404 275.984C92.3828 274.173 99.2252 272.363 106.068 270.682C112.91 269.001 119.882 267.45 126.853 266.157C130.339 265.51 133.825 264.993 137.311 264.476C140.796 263.958 144.282 263.441 147.768 263.182C151.254 262.795 154.739 262.536 158.354 262.277C161.84 262.019 165.455 261.76 168.941 261.76L174.234 261.631H176.816C177.72 261.631 178.623 261.631 179.398 261.76L184.691 262.019C186.499 262.148 188.177 262.148 189.984 262.277L195.278 262.795L197.86 263.053C198.763 263.182 199.538 263.312 200.442 263.441C203.927 263.958 207.413 264.476 210.899 265.251C212.577 265.639 214.385 265.898 216.063 266.415L221.227 267.708C222.906 268.225 224.584 268.743 226.262 269.26C227.941 269.777 229.619 270.424 231.168 271.07L238.527 273.656L232.201 269.26C229.102 267.062 226.133 264.605 223.422 261.889C222.002 260.596 220.711 259.174 219.42 257.752C218.129 256.329 216.838 254.907 215.676 253.355C213.223 250.381 210.899 247.278 208.704 244.045C206.51 240.813 204.444 237.58 202.378 234.218C200.442 230.856 198.505 227.494 196.698 224.132L193.987 218.96L191.405 213.658C190.501 211.978 189.855 210.167 188.952 208.357C188.177 206.547 187.402 204.866 186.628 203.055C185.078 199.564 183.787 195.814 182.367 192.194L180.431 186.763C179.785 184.953 179.269 183.142 178.623 181.203C177.978 179.393 177.461 177.453 176.945 175.643C176.429 173.832 175.783 171.893 175.396 170.083C174.879 168.143 174.363 166.333 173.976 164.393L172.685 158.704L171.523 153.014C171.135 151.075 170.877 149.135 170.49 147.325C169.199 139.696 168.424 131.937 168.295 124.179C168.295 122.24 168.295 120.3 168.295 118.36C168.424 116.421 168.553 114.481 168.682 112.542C169.07 108.662 169.844 104.913 170.877 101.292L172.426 96.1198L169.715 100.775C168.812 102.326 168.037 103.878 167.133 105.3L164.293 109.826C162.227 112.671 160.291 115.645 158.096 118.49C156.03 121.334 153.707 124.05 151.383 126.636C150.221 128.058 149.059 129.222 147.768 130.515L144.153 134.394C141.7 136.851 139.118 139.308 136.536 141.765L128.532 148.747C125.82 150.945 122.98 153.144 120.269 155.342C117.429 157.411 114.588 159.609 111.748 161.548C108.908 163.617 105.939 165.557 102.969 167.496C99.9999 169.436 97.0305 171.246 93.932 173.057C87.8642 176.677 81.6673 180.039 75.3413 183.272C69.0152 186.504 62.6892 189.608 56.4923 192.97C53.3938 194.651 50.2953 196.332 47.326 198.4C45.9059 199.435 44.4857 200.599 43.3238 201.892C42.1619 203.185 41.2582 204.866 41 206.676C40.6127 207.452 40.2253 208.098 39.9671 208.874C39.5798 209.65 39.3216 210.426 39.0634 211.072C38.8052 211.848 38.547 212.624 38.2888 213.4C38.0306 214.176 37.7724 214.952 37.6433 215.727C37.5142 216.503 37.256 217.279 37.1269 218.055C36.9978 218.831 36.8687 219.607 36.7395 220.512C36.6105 221.288 36.4814 222.063 36.4814 222.968L36.3523 225.425C36.3523 226.201 36.3523 227.106 36.3523 227.882C36.3523 228.658 36.3523 229.563 36.4814 230.339L36.7395 232.796L37.1269 235.253C37.256 236.028 37.3851 236.804 37.6433 237.58L38.1597 239.908C38.2888 240.683 38.6761 241.459 38.8052 242.235L39.7089 244.692Z" fill="#AEB0BA"/>
<path d="M21.1178 213.141C22.9252 212.495 24.7326 211.978 26.54 211.719L17.5029 214.693C18.7939 214.176 19.9558 213.659 21.1178 213.141Z" fill="#DE2607"/>
<path d="M169.455 200.081C154.35 158.962 150.994 118.231 157.707 97.5418C160.418 92.4989 161.58 89.3956 161.58 89.3956C161.58 89.3956 160.418 92.3696 157.707 97.5418C160.16 89.9128 168.552 82.801 173.974 80.7321C194.243 73.2324 227.293 112.8 247.95 169.048C268.606 225.296 268.993 276.889 248.724 284.259C242.915 286.328 230.65 286.069 223.291 281.285C226.777 282.578 228.455 283.612 228.455 283.612C228.455 283.612 226.648 282.707 223.291 281.285C205.088 269.26 184.173 240.295 169.455 200.081Z" fill="#F3F3EE"/>
<path d="M169.586 200.082C166.616 191.935 164.034 183.53 161.969 175.126C161.452 173.057 160.936 170.858 160.419 168.79C159.903 166.721 159.516 164.523 159.128 162.454C158.354 158.187 157.579 153.919 157.063 149.523C155.901 140.86 155.255 132.196 155.384 123.533C155.384 121.334 155.513 119.136 155.513 117.067C155.643 114.869 155.772 112.8 156.03 110.602C156.546 106.335 157.321 102.068 158.612 97.9302L158.483 98.0595L159.516 95.9906C159.903 95.3441 160.161 94.6976 160.548 93.9217L161.581 91.8528C161.839 91.2063 162.227 90.4305 162.485 89.7839L160.807 89.1374C160.548 89.7839 160.29 90.4305 159.903 91.2063L158.999 93.2752C158.741 93.9217 158.354 94.5682 157.966 95.2148L156.934 97.1544L158.612 97.8009C159.128 96.3785 159.645 95.0855 160.419 93.7924C161.194 92.4994 162.098 91.3356 163.001 90.1719C164.938 87.8444 167.133 85.7755 169.586 84.0945C170.748 83.1894 172.039 82.4135 173.459 81.8963C173.846 81.767 174.104 81.6377 174.492 81.5084C174.879 81.3791 175.266 81.2498 175.524 81.1205C176.17 80.9912 176.944 80.7326 177.59 80.7326C180.559 80.3446 183.529 80.9912 186.24 82.0256C191.92 84.0945 196.826 87.8444 201.345 91.8528C205.863 95.9906 209.995 100.516 213.739 105.43C217.483 110.214 220.968 115.257 224.196 120.559C227.424 125.731 230.393 131.162 233.233 136.593C238.914 147.454 243.561 158.833 247.693 170.471C251.824 181.979 255.181 193.875 257.763 205.771C259.054 211.719 260.087 217.796 260.99 223.874C261.765 229.951 262.41 236.028 262.54 242.106C262.669 248.183 262.41 254.261 261.507 260.338C260.99 263.312 260.345 266.286 259.441 269.131C258.537 271.975 257.375 274.691 255.697 277.148C254.019 279.604 251.953 281.673 249.371 282.837C246.789 284.13 243.82 284.389 240.85 284.518C237.881 284.647 234.912 284.389 231.942 283.742C229.102 283.096 226.262 282.061 223.809 280.51L222.905 282.32C223.809 282.708 224.583 282.966 225.487 283.354L226.778 283.871C227.165 284.13 227.682 284.259 228.069 284.518L228.973 282.708C228.456 282.449 228.069 282.32 227.682 282.061L226.391 281.544C225.487 281.156 224.583 280.768 223.68 280.51L223.809 280.639C220.452 278.441 217.224 275.855 214.255 273.139C212.706 271.717 211.286 270.294 209.866 268.872C208.446 267.45 207.025 265.898 205.734 264.346C204.443 262.795 203.023 261.243 201.732 259.691C200.441 258.14 199.15 256.459 197.988 254.778C196.826 253.097 195.535 251.416 194.373 249.735C193.211 248.054 192.049 246.373 191.017 244.563C188.822 241.071 186.756 237.58 184.691 233.96C183.658 232.149 182.754 230.339 181.721 228.529C180.818 226.718 179.785 224.908 179.01 222.969C175.653 215.34 172.426 207.711 169.586 200.082ZM169.327 200.082C172.168 207.84 175.266 215.469 178.752 222.969L181.463 228.529C182.367 230.339 183.271 232.279 184.303 234.089C186.24 237.709 188.306 241.33 190.371 244.821C191.404 246.631 192.566 248.312 193.599 250.123C194.761 251.804 195.923 253.614 197.084 255.295C198.246 256.976 199.537 258.657 200.699 260.338C201.99 262.019 203.281 263.57 204.572 265.251C205.863 266.803 207.284 268.355 208.704 269.906C210.124 271.458 211.544 272.88 213.093 274.303C216.063 277.148 219.29 279.863 222.776 282.19H222.905H223.034C223.938 282.578 224.712 282.966 225.616 283.225L226.907 283.742C227.295 284.001 227.811 284.13 228.198 284.389L229.102 282.578C228.586 282.32 228.198 282.19 227.811 281.932L226.52 281.285C225.616 280.897 224.712 280.51 223.809 280.122L222.905 281.932C225.616 283.742 228.715 284.777 231.813 285.423C234.912 286.07 238.01 286.328 241.238 286.328C242.787 286.328 244.336 286.199 246.014 285.94C247.564 285.682 249.242 285.294 250.662 284.518C253.631 283.096 256.084 280.768 257.892 278.053C259.699 275.337 260.99 272.493 261.894 269.519C262.927 266.545 263.443 263.441 263.96 260.338C264.863 254.131 264.992 247.925 264.863 241.718C264.605 235.511 264.089 229.305 263.185 223.227C262.281 217.15 261.119 211.072 259.828 204.995C257.117 192.97 253.502 181.203 249.113 169.565C244.852 158.057 239.817 146.808 234.137 135.817C231.297 130.386 228.327 124.955 224.971 119.783C221.743 114.611 218.257 109.438 214.513 104.525C210.769 99.6112 206.767 94.9562 202.249 90.6891C197.73 86.422 192.824 82.6721 186.885 80.3446C183.916 79.1809 180.818 78.5344 177.59 78.9223C174.362 79.1809 171.393 80.7326 168.811 82.4135C166.229 84.2238 163.905 86.2927 161.839 88.7495C160.807 89.9133 159.903 91.2063 158.999 92.6287C158.225 94.051 157.45 95.4734 156.934 97.0251L158.612 97.6716L159.645 95.6027C160.032 94.9562 160.419 94.3096 160.678 93.5338L161.71 91.4649C161.969 90.8184 162.356 90.0426 162.614 89.396L160.936 88.7495C160.678 89.396 160.419 90.0426 160.032 90.8184L159.128 92.8873C158.87 93.5338 158.483 94.1803 158.095 94.8269L157.063 96.7664V96.8957V97.0251C156.417 99.0939 155.901 101.292 155.513 103.49C155.126 105.689 154.739 107.887 154.61 110.085C154.352 112.283 154.222 114.481 154.093 116.679C153.964 118.878 153.964 121.076 153.964 123.274C153.964 125.472 154.093 127.67 154.222 129.869C154.351 132.067 154.481 134.265 154.739 136.463C154.997 138.661 155.126 140.86 155.513 142.928C155.772 145.127 156.03 147.196 156.417 149.394C157.063 153.661 157.966 158.057 158.87 162.324C159.387 164.393 159.774 166.591 160.29 168.66C160.807 170.729 161.323 172.927 161.969 174.996C163.647 183.66 166.358 191.935 169.327 200.082Z" fill="#AEB0BA"/>
<path d="M182.237 193.229C168.423 155.601 164.55 120.171 170.617 101.292C172.941 94.31 176.556 89.5257 181.462 87.7154C199.924 80.8622 230.263 117.068 249.241 168.531C268.09 219.995 268.477 267.321 250.016 274.174C244.722 276.113 238.525 274.562 231.812 270.165C234.911 271.458 236.589 272.234 236.589 272.234C236.589 272.234 234.911 271.329 231.812 270.165C215.029 258.916 195.792 229.951 182.237 193.229Z" fill="#F3F3EE"/>
<path d="M182.366 193.229L180.429 187.668C179.784 185.858 179.268 183.919 178.622 182.108L177.718 179.264L176.944 176.419C176.427 174.479 175.782 172.669 175.394 170.729C174.878 168.79 174.362 166.98 173.974 165.04L172.683 159.351L171.521 153.532C171.134 151.592 170.876 149.653 170.618 147.713C170.23 145.774 170.101 143.834 169.843 141.894C169.585 139.955 169.456 138.015 169.198 136.076C168.939 134.136 168.939 132.196 168.81 130.257C168.681 128.317 168.681 126.378 168.681 124.438C168.681 122.499 168.81 120.559 168.81 118.619C168.939 116.68 169.068 114.74 169.327 112.801C169.585 110.861 169.843 108.921 170.23 107.111C170.489 105.172 171.134 103.361 171.65 101.551L171.521 101.68L173.329 97.9305C173.587 97.284 173.974 96.6374 174.233 96.1202L175.007 94.1806L173.329 93.5341L172.554 95.3444C172.296 95.9909 171.909 96.5081 171.65 97.1546L169.843 100.775L171.521 101.422C172.425 98.8356 173.458 96.3788 174.878 94.3099C176.298 92.1117 178.106 90.1721 180.429 89.0084C185.077 86.4223 190.629 87.586 195.405 89.9135C197.858 91.0773 200.053 92.4996 202.248 94.1806C204.443 95.7323 206.379 97.5426 208.445 99.4821C212.318 103.232 215.804 107.37 219.16 111.766C225.744 120.43 231.296 129.869 236.202 139.438C241.108 149.135 245.368 159.221 248.983 169.436C250.79 174.609 252.469 179.781 254.018 184.953C255.567 190.125 256.858 195.427 258.02 200.728C259.182 206.03 260.215 211.331 260.989 216.762C261.764 222.064 262.281 227.495 262.539 232.925C262.797 238.356 262.797 243.787 262.151 249.089C261.506 254.39 260.473 259.692 258.149 264.476C256.987 266.803 255.567 269.002 253.631 270.683C253.114 271.071 252.727 271.588 252.081 271.846C251.565 272.234 251.049 272.493 250.403 272.751L249.499 273.139L248.596 273.398L247.563 273.657C247.305 273.657 246.917 273.786 246.659 273.786C244.206 274.045 241.624 273.657 239.171 272.881C236.718 271.976 234.394 270.683 232.2 269.26L231.296 271.07L233.62 272.105C234.394 272.364 235.169 272.751 235.944 273.139L236.847 271.329C236.073 270.941 235.169 270.553 234.394 270.295L231.941 269.26L232.071 269.39C230.521 268.226 228.972 267.191 227.552 266.028C226.777 265.381 226.003 264.864 225.357 264.217L223.292 262.278C221.871 260.985 220.58 259.562 219.289 258.14C217.998 256.718 216.707 255.295 215.545 253.744C214.383 252.192 213.092 250.77 211.93 249.218C210.769 247.666 209.607 246.115 208.574 244.563C207.541 243.011 206.379 241.46 205.346 239.779C204.313 238.098 203.281 236.546 202.248 234.865C201.215 233.184 200.182 231.632 199.278 229.951L196.438 224.908L193.727 219.736C192.823 218.055 192.049 216.245 191.145 214.564C190.241 212.883 189.467 211.073 188.692 209.262L187.53 206.676L186.368 203.961C185.594 202.151 184.819 200.47 184.173 198.659L182.366 193.229ZM182.108 193.229L184.173 198.659C184.819 200.47 185.594 202.28 186.368 204.09L187.401 206.806L188.563 209.521C189.338 211.331 190.112 213.012 190.887 214.823L193.34 220.124L195.922 225.296L198.633 230.469C199.537 232.15 200.569 233.831 201.473 235.511C202.377 237.192 203.41 238.873 204.443 240.554C205.475 242.235 206.508 243.787 207.541 245.468C208.574 247.149 209.736 248.701 210.898 250.252C212.06 251.804 213.222 253.356 214.383 254.907C215.545 256.459 216.836 257.881 218.127 259.433C219.418 260.855 220.709 262.278 222.13 263.7L224.195 265.769C224.841 266.416 225.615 267.062 226.39 267.709C227.81 269.002 229.488 270.165 231.038 271.329H231.167L233.491 272.364C234.265 272.751 235.04 273.01 235.814 273.398L236.718 271.588L235.556 270.941L234.394 270.424L231.941 269.39L231.038 271.2C233.362 272.751 235.814 274.045 238.526 275.079C241.237 275.984 244.077 276.501 247.046 276.113C247.434 276.113 247.821 275.984 248.208 275.984L249.241 275.725L250.274 275.467L251.307 275.079C251.952 274.82 252.598 274.432 253.243 274.045C253.889 273.657 254.405 273.139 254.922 272.751C257.116 270.812 258.666 268.355 259.957 265.898C262.41 260.855 263.442 255.295 264.088 249.735C264.733 244.304 264.733 238.744 264.346 233.184C263.701 222.193 262.022 211.331 259.44 200.728C258.149 195.427 256.729 190.125 255.18 184.953C253.631 179.781 251.823 174.479 249.887 169.436C247.95 164.264 245.884 159.221 243.69 154.308C241.495 149.265 239.042 144.351 236.589 139.567C234.136 134.653 231.425 129.998 228.585 125.343C225.744 120.688 222.775 116.163 219.418 111.766C216.191 107.37 212.576 103.232 208.703 99.3528C206.766 97.4133 204.701 95.603 202.506 93.922C200.311 92.241 198.117 90.6894 195.534 89.3963C193.082 88.1033 190.37 87.1981 187.53 86.8102C187.143 86.8102 186.885 86.6809 186.497 86.6809H185.464C184.819 86.6809 184.044 86.8102 183.27 86.8102C182.495 86.9395 181.979 87.0688 181.204 87.3274L180.946 87.4567H180.817H180.688L180.171 87.7153L179.138 88.1033C176.556 89.3963 174.491 91.4652 172.942 93.7927C171.392 96.1202 170.23 98.7063 169.327 101.422L171.005 102.068L172.942 98.3184C173.2 97.6719 173.587 97.0253 173.845 96.5081L174.62 94.5685L172.942 93.922L172.167 95.7323C171.909 96.3788 171.521 96.896 171.263 97.5426L169.456 101.163V101.292C168.939 103.232 168.294 105.172 168.036 107.111C167.648 109.051 167.39 110.99 167.132 113.059C166.874 114.999 166.874 117.068 166.745 119.007C166.745 120.947 166.615 123.016 166.745 124.955C166.874 126.895 166.874 128.834 167.003 130.903C167.132 132.843 167.261 134.783 167.519 136.722C167.777 138.662 167.906 140.601 168.294 142.541C168.552 144.48 168.81 146.42 169.198 148.36C169.585 150.299 169.843 152.239 170.359 154.178L171.65 159.868L173.071 165.557L174.62 171.247C175.136 173.186 175.653 174.997 176.298 176.936L177.202 179.781L178.106 182.626C178.751 184.436 179.268 186.375 179.913 188.186L182.108 193.229Z" fill="#AEB0BA"/>
<path d="M2.525 231.891C4.07423 227.624 6.65629 223.744 9.75475 220.512C17.2427 212.753 29.3783 210.038 39.3192 207.193C39.4483 207.193 39.5775 207.323 39.4484 207.452C30.4112 212.236 19.9539 213.788 11.9495 220.512C8.59285 223.357 6.01078 226.848 4.07425 230.856C1.6213 236.158 1.4922 241.847 1.4922 247.537C1.4922 247.666 1.23397 247.666 1.23397 247.537C0.846664 242.106 0.717564 237.192 2.525 231.891Z" fill="#EC2823"/>
<path d="M15.1792 225.942C20.7306 221.029 28.2186 218.701 35.1901 216.632C35.4483 216.632 35.5774 216.891 35.3192 217.02C28.6059 219.994 21.7634 222.581 15.3083 226.072C15.1792 226.072 15.0501 225.942 15.1792 225.942Z" fill="#EC2823"/>
<path d="M15.4359 240.683C20.7291 237.321 27.0552 236.158 32.7357 233.442C32.9939 233.313 33.1229 233.572 32.8647 233.701C29.2499 236.158 25.1186 237.322 21.2455 239.132C19.0508 240.166 8.85167 244.692 12.4665 248.312C12.7247 248.571 12.3375 248.959 12.0793 248.83C7.81886 246.502 13.2411 242.106 15.4359 240.683Z" fill="#EC2823"/>
<path d="M35.8346 246.632C35.9637 246.502 36.2219 246.761 36.0928 246.89C33.5107 249.993 29.2504 251.545 25.8937 253.485C23.3116 255.036 12.9835 259.433 14.6618 263.571C14.7909 263.829 14.4036 263.958 14.2745 263.829C8.59395 258.269 32.9944 248.83 35.8346 246.632Z" fill="#EC2823"/>
<path d="M28.0888 266.157C30.1545 264.993 32.2201 264.217 34.2858 263.183C36.7387 262.019 39.0626 260.338 41.6446 259.691C41.7737 259.691 41.9028 259.821 41.7737 259.95C39.0626 261.889 35.9641 263.7 32.8656 265.251C31.4455 266.027 22.021 269.648 25.6359 272.622C25.8941 272.88 25.5068 273.268 25.2486 273.139C21.3755 271.07 26.0232 267.32 28.0888 266.157Z" fill="#EC2823"/>
<path d="M35.5767 275.337C40.0953 273.527 45.0012 272.363 49.5198 270.294C49.6489 270.165 49.778 270.424 49.6489 270.553C46.5504 272.622 43.3229 273.915 39.8371 275.208C38.6752 275.596 32.6074 276.889 34.673 278.699C34.9312 278.958 34.5439 279.346 34.2857 279.216C31.7037 277.794 33.6402 276.113 35.5767 275.337Z" fill="#EC2823"/>
<path d="M173.198 162.324L195.016 157.023L216.06 213.4L196.049 222.839C195.92 222.839 180.428 198.012 173.198 162.324Z" fill="#F3F3EE"/>
<path d="M173.199 162.324L195.017 157.281L194.759 157.152L205.087 185.47L215.544 213.658L215.802 213.012L195.792 222.451L196.437 222.58C195.792 221.417 195.146 220.253 194.371 219.089C193.726 217.925 193.08 216.762 192.435 215.469C191.789 214.305 191.144 213.141 190.627 211.848L188.949 208.228C188.433 207.064 187.787 205.771 187.271 204.607L185.722 200.857L184.172 197.107L182.752 193.357L181.332 189.608C180.945 188.314 180.299 187.151 179.912 185.728L177.459 177.97C177.072 176.677 176.555 175.384 176.297 174.091L175.264 170.212L173.199 162.324ZM173.199 162.324L175.006 170.212L175.91 174.22C176.168 175.513 176.684 176.806 176.943 178.099L179.266 185.858C179.654 187.151 180.17 188.444 180.557 189.737L181.978 193.616L183.398 197.495L184.947 201.245L186.496 204.995C187.013 206.288 187.529 207.452 188.175 208.745L189.853 212.495C190.369 213.788 191.015 214.951 191.66 216.115C192.306 217.279 192.822 218.572 193.597 219.736C194.242 220.899 194.888 222.063 195.662 223.227L195.921 223.615L196.308 223.486L216.319 214.046L216.706 213.788L216.577 213.4L205.991 185.211L195.275 157.023L195.146 156.764H194.888L173.199 162.324Z" fill="#AEB0BA"/>
<path d="M199.019 187.668C204.829 203.314 212.446 214.822 215.932 213.529C219.547 212.236 217.739 198.53 211.93 182.884C206.12 167.238 198.503 155.73 195.017 157.023C191.402 158.316 193.21 172.022 199.019 187.668Z" fill="#F3F3EE"/>
<path d="M199.019 187.668C199.019 187.668 199.148 188.185 199.536 188.961C199.923 189.866 200.31 191.159 201.085 192.711C202.376 195.944 204.442 200.469 207.54 205.641C208.315 206.935 209.218 208.228 210.122 209.521C211.155 210.814 212.188 212.107 213.737 213.141C214.124 213.4 214.512 213.529 215.028 213.658C215.544 213.788 216.061 213.658 216.448 213.4C217.352 212.883 217.61 211.848 217.868 210.943C218.256 209.133 218.256 207.193 218.126 205.383C217.868 201.633 217.094 197.754 216.061 194.004C215.028 190.125 213.866 186.375 212.446 182.625C211.026 178.875 209.477 175.125 207.669 171.634C205.862 168.143 204.054 164.652 201.73 161.678C200.568 160.126 199.407 158.704 197.857 157.54C197.083 157.023 196.179 156.505 195.146 156.635C195.017 156.635 194.888 156.635 194.759 156.764L194.501 156.893C194.242 157.023 194.113 157.281 193.984 157.411C193.726 157.798 193.468 158.186 193.339 158.704C192.822 160.385 192.951 162.195 192.951 163.747C193.08 165.427 193.21 166.979 193.468 168.402C194.501 174.35 196.05 179.134 197.083 182.496C197.599 184.177 198.115 185.47 198.374 186.375C198.89 187.151 199.019 187.668 199.019 187.668ZM199.019 187.668C199.019 187.668 198.89 187.151 198.503 186.375C198.245 185.47 197.728 184.177 197.212 182.496C196.695 180.815 196.05 178.746 195.404 176.418C194.759 174.091 194.113 171.376 193.726 168.402C193.468 166.979 193.339 165.427 193.339 163.747C193.339 162.195 193.339 160.385 193.855 158.833C193.984 158.445 194.113 158.057 194.372 157.798C194.501 157.669 194.63 157.54 194.759 157.411L195.017 157.281H195.275C196.05 157.152 196.824 157.669 197.47 158.186C198.89 159.221 200.052 160.772 201.085 162.195C203.28 165.298 205.087 168.66 206.765 172.151C208.444 175.643 209.993 179.392 211.413 183.142C212.833 186.892 214.124 190.642 215.028 194.392C216.061 198.142 216.835 201.892 217.223 205.641C217.352 207.452 217.481 209.391 217.094 211.072C216.964 211.848 216.577 212.753 215.932 213.141C215.286 213.529 214.382 213.271 213.737 212.883C212.317 211.977 211.155 210.684 210.251 209.521C209.218 208.228 208.315 206.935 207.54 205.771C205.862 203.185 204.7 200.857 203.538 198.659C202.505 196.461 201.601 194.521 200.956 192.97C200.31 191.418 199.794 190.125 199.407 189.22C199.277 188.056 199.019 187.668 199.019 187.668Z" fill="#AEB0BA"/>
<path d="M62.3013 276.501L62.4304 276.759H62.1722H62.0431C61.914 276.759 61.914 276.501 62.0431 276.242C62.1722 276.113 62.3013 275.984 62.3013 275.984H62.4304C62.4304 275.984 62.4304 276.113 62.3013 276.501ZM62.3013 276.501C62.1722 276.759 62.1722 277.018 62.3013 277.018C62.3013 277.018 62.3013 277.018 62.4304 277.018C62.4304 277.018 62.5595 277.018 62.6886 276.759C62.8177 276.501 62.6886 276.371 62.6886 276.242C62.5595 276.242 62.5595 276.242 62.5595 276.242H62.3013V276.501Z" fill="#AEB0BA"/>
<path d="M3.4299 231.373C3.0426 234.606 3.0426 237.968 3.55902 241.33C4.85007 250.898 10.5305 264.605 21.8916 265.122C26.5393 265.38 32.8653 263.829 35.3183 259.303C37.6421 254.907 36.9966 250.122 35.7056 245.338C33.8981 238.485 32.0907 231.502 32.6071 224.261C33.1235 217.667 36.9966 213.27 39.4495 207.581L41.5152 206.934C42.0316 203.831 44.4845 201.116 48.4867 198.271C45.3883 201.503 42.8062 205.253 41.1279 209.779C37.513 219.606 39.966 231.373 46.0338 239.778C53.3926 249.993 65.3992 248.053 75.7274 244.433C90.4451 239.261 105.937 236.028 120.268 229.951C131.112 225.425 142.732 219.865 149.445 209.65C156.933 198.142 154.738 183.789 153.318 170.858C151.64 155.212 152.414 139.308 154.738 123.791C154.867 123.015 154.738 122.369 154.351 121.851C154.48 112.412 155.513 104.136 157.578 97.8005C158.224 95.7316 159.386 93.6627 160.677 91.7231C157.578 97.5418 156.158 104.524 155.513 111.378C151.898 149.911 171.134 207.71 186.497 233.83C192.953 244.821 193.211 231.502 187.659 219.865C175.782 195.167 161.193 164.522 161.064 123.015C161.064 111.119 161.452 90.4301 175.395 85.5164C181.333 83.4476 187.659 83.8355 193.598 85.5164C199.408 89.3956 205.475 95.085 211.543 102.585C213.738 105.042 216.062 107.628 218.257 110.602C212.189 103.49 204.443 95.8609 195.018 94.5678C191.662 94.0506 187.918 94.0506 185.077 96.3781C182.495 98.447 181.075 101.68 180.43 104.912C178.622 113.446 179.784 122.369 180.817 130.773C181.204 134.265 181.721 137.756 181.979 141.376C182.237 143.833 182.495 146.419 183.012 148.876C183.27 150.169 183.528 151.721 184.432 152.755C183.786 152.885 184.044 153.919 184.69 153.79C186.368 153.531 187.788 152.497 189.596 152.367C192.178 152.238 194.244 153.273 196.051 155.212C197.213 156.376 198.246 157.669 199.149 159.091C197.6 157.928 195.922 157.798 194.889 160.126C193.598 162.97 194.502 166.591 195.405 169.306C196.567 173.186 197.213 179.651 198.762 183.401C202.119 191.806 205.605 198.529 210.769 206.029C211.931 207.71 213.738 210.038 216.062 209.391C216.837 209.262 217.224 208.745 217.611 207.969C217.869 211.201 217.353 214.434 214.125 216.632C211.027 218.701 207.67 220.253 204.314 221.804C204.055 221.934 204.055 222.192 204.055 222.451C205.475 227.494 207.283 232.407 209.607 237.062C214.125 245.985 220.064 254.777 227.681 261.243C234.007 266.544 242.399 270.811 250.661 267.191C258.149 263.829 261.764 256.458 263.313 248.7C262.926 267.837 258.02 281.285 248.467 284.776C242.657 286.845 230.392 286.586 223.033 281.802C216.707 277.535 209.865 271.199 203.281 263.053C192.823 261.372 180.042 260.467 165.066 261.113C108.778 263.958 77.0184 282.578 64.3664 278.182C62.5589 277.018 61.6552 276.759 61.9134 276.889L49.9069 282.061L46.0338 283.742C29.3795 289.56 10.4014 278.828 3.30081 259.691C0.202332 249.734 0.331451 239.778 3.4299 231.373Z" fill="#DEE4EB"/>
<path d="M155.641 112.8C155.383 112.8 155.125 112.671 154.867 112.8C155.383 106.981 156.287 101.939 157.707 97.6715C158.352 95.6026 159.514 93.5337 160.805 91.5941C157.707 97.4129 156.287 104.395 155.641 111.249C155.641 111.636 155.641 112.283 155.641 112.8Z" fill="#B7C2C2"/>
<path d="M154.221 132.972C154.092 132.972 153.833 132.842 153.704 132.842C153.833 131.808 153.963 130.644 154.092 129.61C154.221 130.256 154.35 130.903 154.479 131.549C154.35 131.937 154.35 132.325 154.35 132.713C154.221 132.843 154.221 132.972 154.221 132.972Z" fill="#B7C2C2"/>
<path opacity="0.5" d="M3.30138 258.01C6.27074 263.958 10.2729 269.389 15.6952 273.398C20.6011 277.147 28.0891 281.932 34.6733 280.38C39.0628 279.346 48.2291 276.242 49.5201 271.07C50.8112 265.898 45.5179 259.95 43.4523 255.553C38.2882 244.433 35.0606 231.632 37.2554 219.736C36.0935 236.933 42.9359 256.717 56.1043 267.708C59.7192 270.811 63.9796 273.656 68.8855 274.044C74.9534 274.561 126.078 257.752 155.642 251.028C160.807 249.864 166.874 249.864 171.651 247.795C181.463 243.528 175.653 228.011 172.942 221.029C167.907 207.969 163.13 195.168 160.548 181.332C159.257 174.608 158.741 167.755 158.354 160.902C160.29 169.048 162.743 177.065 165.842 184.823C166.745 187.797 167.52 190.901 168.553 193.875C175.782 217.02 185.982 238.744 201.732 257.364C209.349 266.286 217.354 275.466 227.811 280.639C233.362 283.354 239.43 285.035 245.369 285.294C239.043 286.328 229.489 285.423 223.421 281.415C217.095 277.147 210.253 270.811 203.669 262.665C193.211 260.984 180.43 260.079 165.454 260.726C109.166 263.57 77.4063 282.19 64.7542 277.794C62.9468 276.63 62.0431 276.372 62.3013 276.501L50.2947 281.673L46.4216 283.354C29.7674 289.173 10.7894 278.44 3.68871 259.303C3.5596 258.915 3.43048 258.398 3.30138 258.01C3.17227 257.881 3.30138 257.881 3.30138 258.01Z" fill="#B7C2C2"/>
<g opacity="0.7">
<path opacity="0.6" d="M187.918 159.609C186.369 160.256 184.69 160.773 183.141 161.419C180.043 162.712 178.493 164.264 179.139 167.626C181.463 179.393 186.885 191.03 192.436 201.633C194.244 205.125 195.277 209.262 198.633 211.59C200.828 213.012 204.056 211.073 204.83 208.874C206.25 204.607 203.539 200.599 202.377 196.59C201.861 195.039 201.345 193.358 200.957 191.806C202.765 196.073 204.701 200.47 206.896 204.607C208.703 207.84 210.64 210.555 214.126 211.978C215.417 212.495 216.579 212.624 217.353 212.495C217.224 212.495 217.095 212.624 216.837 212.754C210.511 217.279 203.023 219.865 195.664 222.064C194.631 219.348 192.824 216.891 191.404 214.564C188.434 209.78 186.24 204.866 184.174 199.694C179.914 188.444 174.104 175.384 174.233 163.23C174.233 162.712 173.975 162.324 173.587 162.066C178.364 160.902 183.141 160.126 187.918 159.609Z" fill="#B7C2C2"/>
<path d="M155.642 112.8C155.384 112.8 155.126 112.671 154.868 112.8C155.384 106.982 156.288 101.939 157.708 97.6715C158.353 95.6027 159.515 93.5338 160.806 91.5942C157.708 97.4129 156.288 104.395 155.642 111.249C155.642 111.637 155.642 112.283 155.642 112.8Z" fill="#B7C2C2"/>
<path d="M154.222 132.972C154.093 132.972 153.835 132.843 153.706 132.843C153.835 131.808 153.964 130.645 154.093 129.61C154.222 130.257 154.351 130.903 154.48 131.55C154.351 131.938 154.351 132.326 154.351 132.714C154.222 132.843 154.222 132.972 154.222 132.972Z" fill="#B7C2C2"/>
</g>
<path d="M50.0358 206.676C54.4253 205.9 58.1692 203.702 62.1714 201.762C66.3027 199.823 70.434 198.142 74.6944 196.331C83.4734 192.581 92.1232 188.573 100.644 184.047C109.165 179.522 117.169 174.349 125.173 168.918C132.661 163.876 139.117 155.859 144.022 148.359C145.184 146.549 147.766 147.712 147.379 149.781C143.377 169.306 126.594 184.823 110.198 194.521C101.548 199.693 92.3814 203.96 83.2151 208.098C78.6965 210.167 74.0489 212.107 69.5303 214.175C64.4953 216.503 59.4603 219.477 53.9088 220.382C44.8717 221.934 40.8695 208.227 50.0358 206.676Z" fill="white"/>
<path d="M155.254 105.301C156.674 95.8612 162.226 86.9391 170.746 82.5428C178.622 78.405 188.433 81.5083 195.663 85.6461C195.921 85.7754 195.792 86.1633 195.405 86.1633C186.755 83.06 178.234 81.6376 170.101 87.0684C161.322 92.7579 158.094 103.62 157.449 113.576C156.029 134.782 160.935 154.954 166.099 175.384C166.228 175.772 165.711 175.901 165.582 175.513C161.967 162.583 159.644 149.652 156.932 136.592C154.996 125.989 153.576 115.774 155.254 105.301Z" fill="white"/>
<path d="M199.278 163.746C199.537 163.617 199.666 163.746 199.924 163.876C200.182 164.134 200.44 164.393 200.569 164.781C201.344 165.557 202.119 166.462 202.764 167.496C205.992 171.893 208.832 176.936 209.477 182.754C209.865 184.306 210.123 185.728 209.736 186.634C209.736 187.28 209.607 187.927 209.607 188.573C209.477 190.125 207.799 190.513 206.895 189.866C200.44 185.47 197.987 174.867 196.825 166.462C196.567 164.652 197.858 163.1 199.278 163.746Z" fill="white"/>
<path d="M211.285 191.418C211.931 191.159 212.705 191.418 212.963 192.194C213.092 192.84 213.351 193.746 213.738 194.392C214.642 195.944 212.834 197.754 211.285 196.849C209.994 196.073 209.349 194.392 209.349 192.84C209.349 191.935 210.381 191.03 211.285 191.418Z" fill="white"/>
<path d="M200.311 102.197C208.702 106.076 214.77 114.223 219.805 121.593C225.744 130.256 230.65 139.696 235.297 149.135C245.109 168.919 252.597 189.737 257.116 211.46C259.311 221.934 259.44 232.925 257.89 243.399C256.858 250.511 250.661 265.639 240.978 259.691C239.816 258.915 240.074 257.234 241.365 256.847C249.628 254.002 248.079 242.882 247.691 235.899C247.046 226.33 245.755 217.15 243.173 207.969C238.138 190.254 231.166 172.798 223.033 156.247C215.674 141.118 207.411 123.791 193.597 113.576C186.755 108.533 192.435 98.5766 200.311 102.197Z" fill="white"/>
<path d="M272.812 165.672C273.229 165.747 273.74 165.823 274.346 165.899C274.952 165.937 275.52 165.956 276.051 165.956C277.339 165.956 278.513 165.766 279.573 165.388C280.672 165.009 281.6 164.422 282.357 163.626C283.153 162.831 283.759 161.808 284.175 160.558C284.63 159.27 284.857 157.736 284.857 155.956C284.857 152.547 284.062 149.99 282.471 148.286C280.88 146.544 278.759 145.672 276.108 145.672C275.577 145.672 275.028 145.691 274.46 145.729C273.93 145.767 273.38 145.824 272.812 145.9V165.672ZM275.994 173.967C275.35 173.967 274.611 173.948 273.778 173.91C272.945 173.872 272.074 173.796 271.165 173.683C270.293 173.569 269.403 173.418 268.494 173.228C267.623 173.077 266.809 172.849 266.051 172.546C263.968 171.751 262.926 170.368 262.926 168.399V141.866C262.926 141.07 263.135 140.464 263.551 140.048C264.006 139.593 264.612 139.233 265.369 138.968C266.998 138.438 268.722 138.097 270.54 137.945C272.358 137.756 273.986 137.661 275.426 137.661C278.38 137.661 281.051 138.021 283.437 138.741C285.861 139.46 287.925 140.578 289.63 142.093C291.372 143.57 292.717 145.445 293.664 147.718C294.611 149.99 295.084 152.68 295.084 155.786C295.084 158.816 294.63 161.467 293.721 163.74C292.812 165.975 291.505 167.869 289.8 169.422C288.134 170.937 286.126 172.073 283.778 172.83C281.429 173.588 278.835 173.967 275.994 173.967Z" fill="white"/>
<path d="M313.75 172.83C313.333 172.944 312.67 173.058 311.761 173.171C310.89 173.285 310.019 173.342 309.148 173.342C308.276 173.342 307.5 173.266 306.818 173.114C306.174 173.001 305.625 172.774 305.17 172.433C304.716 172.092 304.375 171.618 304.148 171.012C303.921 170.406 303.807 169.611 303.807 168.626V138.627C304.224 138.551 304.886 138.457 305.795 138.343C306.705 138.191 307.576 138.116 308.409 138.116C309.28 138.116 310.038 138.191 310.682 138.343C311.363 138.457 311.932 138.684 312.386 139.025C312.841 139.366 313.182 139.839 313.409 140.445C313.636 141.051 313.75 141.847 313.75 142.831V172.83Z" fill="white"/>
<path d="M345.56 166.506C345.139 169.354 343.741 171.425 341.367 172.721C338.993 174.016 335.726 174.356 331.567 173.742C329.994 173.509 328.549 173.18 327.233 172.756C325.917 172.332 324.806 171.823 323.898 171.229C323.033 170.604 322.372 169.893 321.916 169.098C321.496 168.309 321.359 167.427 321.503 166.453C321.636 165.553 321.934 164.832 322.397 164.288C322.866 163.706 323.393 163.248 323.979 162.913C324.977 163.674 326.133 164.4 327.447 165.092C328.805 165.752 330.401 166.218 332.237 166.489C333.399 166.661 334.305 166.622 334.954 166.374C335.641 166.131 336.026 165.728 336.109 165.166C336.186 164.642 336.022 164.196 335.617 163.83C335.212 163.464 334.498 163.109 333.477 162.767L331.841 162.18C328.675 161.061 326.386 159.708 324.974 158.121C323.606 156.502 323.11 154.419 323.486 151.871C323.691 150.484 324.177 149.273 324.942 148.238C325.708 147.202 326.69 146.39 327.887 145.802C329.085 145.213 330.463 144.823 332.023 144.633C333.62 144.448 335.337 144.491 337.173 144.762C338.559 144.967 339.835 145.271 341.001 145.673C342.21 146.043 343.233 146.501 344.072 147.046C344.91 147.591 345.542 148.239 345.967 148.991C346.397 149.706 346.546 150.513 346.413 151.412C346.285 152.274 346.006 152.998 345.574 153.586C345.186 154.141 344.718 154.589 344.17 154.929C343.898 154.697 343.476 154.443 342.904 154.167C342.338 153.854 341.71 153.569 341.02 153.314C340.336 153.022 339.627 152.764 338.894 152.541C338.199 152.323 337.552 152.17 336.952 152.081C335.716 151.898 334.738 151.907 334.019 152.107C333.306 152.27 332.905 152.651 332.816 153.25C332.755 153.662 332.893 154.027 333.229 154.345C333.565 154.663 334.241 155.011 335.257 155.391L336.941 156.042C340.416 157.399 342.795 158.918 344.078 160.601C345.404 162.252 345.898 164.22 345.56 166.506Z" fill="white"/>
<path d="M368.742 151.703C367.802 151.824 366.92 152.089 366.094 152.501C365.306 152.907 364.631 153.452 364.07 154.135C363.541 154.775 363.144 155.552 362.879 156.464C362.614 157.376 362.556 158.415 362.705 159.579C363.004 161.909 363.885 163.572 365.349 164.568C366.851 165.559 368.56 165.932 370.476 165.687C371.603 165.542 372.563 165.286 373.356 164.917C374.149 164.548 374.845 164.172 375.445 163.79C376.264 164.219 376.902 164.73 377.36 165.32C377.813 165.873 378.094 166.582 378.205 167.446C378.402 168.986 377.824 170.282 376.469 171.334C375.11 172.348 373.134 173.022 370.542 173.354C368.175 173.657 365.99 173.593 363.987 173.163C361.98 172.694 360.201 171.929 358.652 170.867C357.136 169.763 355.889 168.377 354.912 166.707C353.934 165.037 353.308 163.132 353.034 160.99C352.716 158.511 352.834 156.3 353.387 154.358C353.973 152.374 354.884 150.691 356.12 149.311C357.356 147.93 358.837 146.824 360.563 145.992C362.327 145.155 364.224 144.607 366.252 144.347C368.957 144 371.105 144.221 372.696 145.01C374.286 145.799 375.18 146.964 375.377 148.505C375.469 149.218 375.386 149.916 375.13 150.598C374.869 151.243 374.542 151.819 374.149 152.328C373.471 152.109 372.665 151.926 371.73 151.779C370.79 151.594 369.793 151.568 368.742 151.703Z" fill="white"/>
<path d="M393.656 173.228C392.027 173.228 390.739 172.755 389.792 171.808C388.845 170.861 388.372 169.573 388.372 167.944V138.57C388.788 138.495 389.451 138.4 390.36 138.286C391.269 138.135 392.14 138.059 392.974 138.059C393.845 138.059 394.602 138.135 395.246 138.286C395.928 138.4 396.496 138.627 396.951 138.968C397.405 139.309 397.746 139.782 397.974 140.388C398.201 140.995 398.314 141.79 398.314 142.775V165.217H411.325C411.59 165.634 411.837 166.202 412.064 166.922C412.291 167.603 412.405 168.323 412.405 169.081C412.405 170.596 412.083 171.675 411.439 172.319C410.795 172.925 409.943 173.228 408.882 173.228H393.656Z" fill="white"/>
<path d="M509.509 165.022C508.978 165.388 508.303 165.663 507.485 165.848C506.709 165.999 505.812 166.024 504.794 165.923C503.437 165.787 502.324 165.505 501.453 165.076C500.62 164.65 500.113 164.009 499.931 163.154C499.207 159.732 498.607 156.969 498.131 154.867C497.659 152.726 497.312 150.864 497.089 149.281L496.807 149.253C496.472 151.466 496.175 153.491 495.915 155.331C495.697 157.136 495.483 158.904 495.272 160.634C495.099 162.368 494.887 164.116 494.635 165.88C494.421 167.648 494.15 169.601 493.823 171.738C493.314 171.877 492.658 171.964 491.855 171.998C491.049 172.07 490.25 172.067 489.458 171.988C487.8 171.822 486.526 171.429 485.636 170.807C484.784 170.189 484.428 169.183 484.567 167.789L489.081 139.119C489.431 138.659 490.144 138.197 491.218 137.733C492.292 137.269 493.752 137.129 495.599 137.313C497.597 137.513 499.129 137.989 500.196 138.742C501.266 139.458 501.996 140.54 502.384 141.987C502.633 142.925 502.888 143.997 503.149 145.203C503.447 146.413 503.722 147.659 503.975 148.94C504.266 150.225 504.537 151.508 504.79 152.79C505.047 154.033 505.277 155.16 505.481 156.17L505.764 156.198C506.984 153.123 508.193 150.16 509.391 147.31C510.592 144.423 511.669 142.018 512.622 140.096C513.218 139.85 513.958 139.677 514.844 139.575C515.771 139.439 516.781 139.425 517.874 139.534C519.721 139.718 521.2 140.151 522.312 140.833C523.428 141.477 524.03 142.318 524.117 143.354C524.192 144.123 524.226 145.306 524.219 146.904C524.254 148.469 524.267 150.24 524.26 152.219C524.254 154.197 524.235 156.289 524.206 158.494C524.176 160.699 524.135 162.826 524.083 164.877C524.073 166.893 524.039 168.755 523.983 170.462C523.931 172.132 523.879 173.421 523.826 174.329C523.148 174.642 522.443 174.839 521.712 174.918C521.015 175.039 520.12 175.045 519.026 174.936C517.594 174.793 516.413 174.428 515.481 173.84C514.55 173.252 514.119 172.239 514.186 170.799C514.369 166.668 514.587 162.959 514.838 159.673C515.128 156.39 515.327 153.631 515.435 151.396L515.153 151.368C514.629 152.8 513.898 154.592 512.961 156.745C512.023 158.897 510.872 161.656 509.509 165.022Z" fill="white"/>
<path d="M533.892 145.615C533.678 144 533.978 142.662 534.792 141.598C535.606 140.535 536.82 139.896 538.435 139.682L557.021 137.216C557.339 137.594 557.636 138.108 557.914 138.759C558.229 139.405 558.436 140.104 558.536 140.855C558.725 142.281 558.54 143.338 557.982 144.023C557.461 144.704 556.693 145.111 555.679 145.246L543.795 146.823L544.491 152.061L557.163 150.379C557.481 150.757 557.778 151.272 558.056 151.923C558.366 152.531 558.57 153.211 558.67 153.962C558.859 155.389 558.694 156.442 558.173 157.123C557.652 157.803 556.884 158.211 555.87 158.345L545.507 159.72L546.292 165.634L560.767 163.714C561.084 164.092 561.382 164.606 561.659 165.257C561.974 165.903 562.181 166.602 562.281 167.353C562.47 168.779 562.288 169.854 561.735 170.577C561.214 171.258 560.446 171.665 559.432 171.8L542.986 173.982C541.372 174.197 540.033 173.897 538.97 173.082C537.906 172.268 537.268 171.054 537.053 169.439L533.892 145.615Z" fill="white"/>
<path d="M580.553 162.687L582.775 173.367C582.391 173.563 581.765 173.809 580.898 174.106C580.068 174.394 579.227 174.627 578.374 174.805C577.521 174.982 576.745 175.066 576.047 175.057C575.393 175.077 574.809 174.966 574.295 174.725C573.818 174.476 573.406 174.078 573.06 173.531C572.714 172.984 572.441 172.228 572.24 171.264L566.789 145.065C566.627 144.286 566.708 143.65 567.031 143.158C567.383 142.62 567.903 142.144 568.591 141.73C569.759 141.023 571.159 140.403 572.789 139.87C574.411 139.301 576.168 138.819 578.059 138.426C583.177 137.361 587.257 137.634 590.301 139.245C593.344 140.856 595.247 143.497 596.011 147.168C596.49 149.467 596.305 151.556 595.458 153.434C594.611 155.313 593.464 156.867 592.017 158.096C593.73 159.636 595.402 161.068 597.031 162.392C598.661 163.717 599.982 164.951 600.994 166.095C600.893 167.47 600.415 168.614 599.56 169.526C598.735 170.395 597.711 170.956 596.487 171.211C595.671 171.38 594.947 171.434 594.315 171.372C593.683 171.31 593.11 171.159 592.596 170.917C592.081 170.676 591.588 170.353 591.117 169.948C590.646 169.543 590.186 169.097 589.736 168.611L583.502 162.073L580.553 162.687ZM582.519 154.56C583.928 154.266 584.967 153.683 585.636 152.808C586.298 151.897 586.482 150.737 586.189 149.327C585.896 147.918 585.212 146.958 584.138 146.446C583.094 145.89 581.589 145.816 579.624 146.225C579.068 146.341 578.626 146.452 578.3 146.558C577.974 146.665 577.615 146.797 577.223 146.957L578.959 155.3L582.519 154.56Z" fill="white"/>
<path d="M469.732 173.324C469.304 173.377 468.631 173.393 467.715 173.374C466.837 173.36 465.967 173.291 465.105 173.165C464.243 173.039 463.485 172.851 462.833 172.603C462.212 172.397 461.701 172.093 461.301 171.69C460.9 171.287 460.632 170.769 460.494 170.136C460.357 169.504 460.36 168.7 460.502 167.726L464.842 138.043C465.265 138.028 465.934 138.03 466.85 138.049C467.772 138.031 468.645 138.082 469.469 138.202C470.331 138.328 471.07 138.513 471.685 138.756C472.343 138.967 472.873 139.274 473.273 139.677C473.674 140.08 473.942 140.598 474.08 141.231C474.217 141.863 474.214 142.667 474.072 143.641L469.732 173.324Z" fill="white"/>
<path d="M420.839 141.659C421.385 141.149 422.25 140.588 423.432 139.975C424.652 139.354 425.909 138.9 427.203 138.612C429.052 138.2 430.74 138.115 432.269 138.356C433.826 138.553 434.936 139.179 435.598 140.234C436.691 142.009 437.91 144.085 439.255 146.463C440.6 148.841 441.965 151.312 443.351 153.874C444.728 156.4 446.083 158.912 447.415 161.409C448.74 163.87 449.905 166.055 450.913 167.965C450.584 168.581 450.01 169.136 449.188 169.629C448.375 170.16 447.358 170.561 446.138 170.832C445.251 171.03 444.477 171.125 443.815 171.117C443.191 171.101 442.642 170.99 442.169 170.785C441.734 170.572 441.333 170.254 440.967 169.831C440.638 169.399 440.312 168.89 439.987 168.303L438.136 164.698L428.098 166.934C428.05 168.109 428.009 169.321 427.977 170.57C427.945 171.819 427.904 173.031 427.855 174.206C427.379 174.506 426.857 174.778 426.291 175.02C425.769 175.292 425.101 175.518 424.288 175.699C422.403 176.119 420.928 176.118 419.863 175.695C418.828 175.227 418.182 174.42 417.927 173.274C417.812 172.757 417.771 172.223 417.803 171.672C417.836 171.122 417.866 170.475 417.895 169.731C417.931 168.675 418.006 167.358 418.121 165.781C418.272 164.195 418.435 162.49 418.611 160.665C418.779 158.804 418.975 156.898 419.2 154.946C419.425 152.995 419.638 151.162 419.838 149.449C420.03 147.699 420.208 146.146 420.372 144.79C420.573 143.426 420.728 142.382 420.839 141.659ZM429.087 147.331C428.915 148.999 428.711 150.868 428.474 152.939C428.265 154.964 428.12 157.015 428.039 159.089L434.916 157.558C433.954 155.676 432.985 153.855 432.011 152.093C431.065 150.286 430.201 148.674 429.42 147.257L429.087 147.331Z" fill="white"/>
</svg>
