<svg width="25" height="25" viewBox="0 0 25 25" fill="none" xmlns="http://www.w3.org/2000/svg">
<g id="key">
<path id="Vector" d="M21.0315 2.5L19.0315 4.5M19.0315 4.5L22.0315 7.5L18.5315 11L15.5315 8M19.0315 4.5L15.5315 8M11.4215 12.11C11.9379 12.6195 12.3483 13.226 12.6293 13.8948C12.9102 14.5635 13.0561 15.2813 13.0586 16.0066C13.061 16.732 12.9199 17.4507 12.6434 18.1213C12.367 18.7919 11.9606 19.4012 11.4477 19.9141C10.9348 20.4271 10.3254 20.8334 9.65483 21.1099C8.98421 21.3864 8.26552 21.5275 7.54016 21.525C6.81479 21.5226 6.09707 21.3767 5.42832 21.0958C4.75956 20.8148 4.15299 20.4043 3.64352 19.888C2.64165 18.8507 2.08729 17.4614 2.09982 16.0193C2.11235 14.5772 2.69078 13.1977 3.71052 12.178C4.73027 11.1583 6.10974 10.5798 7.55182 10.5673C8.9939 10.5548 10.3832 11.1091 11.4205 12.111L11.4215 12.11ZM11.4215 12.11L15.5315 8" stroke="#797585" stroke-width="2" stroke-linecap="round" stroke-linejoin="round"/>
</g>
</svg>
