<svg width="25" height="25" viewBox="0 0 25 25" fill="none" xmlns="http://www.w3.org/2000/svg">
<g id="message-circle">
<path id="Vector" d="M21.6777 11.5625C21.6812 12.8824 21.3728 14.1844 20.7777 15.3625C20.0722 16.7742 18.9875 17.9617 17.6452 18.7918C16.3029 19.6219 14.756 20.0619 13.1777 20.0625C11.8579 20.0659 10.5558 19.7576 9.37773 19.1625L3.67773 21.0625L5.57773 15.3625C4.98267 14.1844 4.67429 12.8824 4.67773 11.5625C4.67835 9.98426 5.11835 8.43735 5.94845 7.09505C6.77856 5.75275 7.96599 4.66807 9.37773 3.9625C10.5558 3.36743 11.8579 3.05906 13.1777 3.0625H13.6777C15.7621 3.17749 17.7308 4.05726 19.2069 5.53336C20.683 7.00945 21.5627 8.97815 21.6777 11.0625V11.5625Z" stroke="white" stroke-opacity="0.8" stroke-width="2" stroke-linecap="round" stroke-linejoin="round"/>
</g>
</svg>
