<svg width="409" height="310" viewBox="0 0 409 310" fill="none" xmlns="http://www.w3.org/2000/svg">
<g clip-path="url(#clip0_4017_182)">
<rect x="0.879395" y="0.3125" width="408" height="309" rx="12" fill="url(#paint0_linear_4017_182)"/>
<g clip-path="url(#clip1_4017_182)">
<path d="M370.15 49.0461H39.8794V309.046H370.15V49.0461Z" fill="#BCCCFD"/>
<path d="M370.15 78.5325H39.8794V309.046H370.15V78.5325Z" fill="white"/>
<path d="M51.6562 68.1255C54.3344 68.1255 56.5055 65.9511 56.5055 63.2689C56.5055 60.5867 54.3344 58.4124 51.6562 58.4124C48.978 58.4124 46.8069 60.5867 46.8069 63.2689C46.8069 65.9511 48.978 68.1255 51.6562 68.1255Z" fill="white"/>
<path d="M76.9417 63.2689C76.9417 65.8707 74.8635 68.1255 72.0924 68.1255C69.4946 68.1255 67.2432 66.0441 67.2432 63.2689C67.2432 60.6672 69.3214 58.4124 72.0924 58.4124C74.8635 58.4124 76.9417 60.4937 76.9417 63.2689Z" fill="white"/>
<path d="M97.5511 63.2689C97.5511 65.8707 95.4729 68.1255 92.7019 68.1255C90.104 68.1255 87.8526 66.0441 87.8526 63.2689C87.8526 60.6672 89.9309 58.4124 92.7019 58.4124C95.2997 58.4124 97.5511 60.4937 97.5511 63.2689Z" fill="white"/>
<path d="M256.538 71.9414H120.585C116.082 71.9414 112.272 68.299 112.272 63.6158C112.272 59.1062 115.909 55.2903 120.585 55.2903H256.538C261.041 55.2903 264.851 58.9327 264.851 63.6158C264.851 68.1255 261.041 71.9414 256.538 71.9414Z" fill="white"/>
<path d="M350.06 71.9414H285.634C281.131 71.9414 277.321 68.299 277.321 63.6158C277.321 59.1062 280.958 55.2903 285.634 55.2903H350.06C354.563 55.2903 358.373 58.9327 358.373 63.6158C358.373 68.1255 354.563 71.9414 350.06 71.9414Z" fill="white"/>
<path d="M352.373 118.202H246.951C243.637 118.202 240.951 120.888 240.951 124.202V154.914C240.951 158.228 243.637 160.914 246.951 160.914H352.373C355.687 160.914 358.373 158.228 358.373 154.914V124.202C358.373 120.888 355.687 118.202 352.373 118.202Z" fill="#BCCCFD"/>
<path d="M344.627 131.362H247.792V136.565H344.627V131.362Z" fill="#9CB4FC"/>
<path d="M312.001 142.551H247.792V147.754H312.001V142.551Z" fill="#9CB4FC"/>
<path d="M167.927 179.046H62.5053C59.1916 179.046 56.5053 181.732 56.5053 185.046V230.266C56.5053 233.58 59.1916 236.266 62.5053 236.266H167.927C171.241 236.266 173.927 233.58 173.927 230.266V185.046C173.927 181.732 171.241 179.046 167.927 179.046Z" fill="#BCCCFD"/>
<path d="M163.633 189.749H66.7991V196.719H163.633V189.749Z" fill="#9CB4FC"/>
<path fill-rule="evenodd" clip-rule="evenodd" d="M75.6628 214.764L75.2194 214.849L73.4967 213.127C73.0444 212.674 72.6857 212.137 72.4409 211.546C72.1962 210.955 72.0702 210.322 72.0703 209.682C72.0704 208.391 72.5836 207.152 73.4972 206.238C74.4107 205.325 75.6497 204.812 76.9415 204.812C78.2334 204.812 79.4723 205.325 80.3857 206.239L82.1075 207.961L82.0215 208.405L82.0206 208.413L82.0089 208.461C81.9902 208.535 81.9693 208.608 81.9462 208.68C81.8835 208.877 81.776 209.168 81.6013 209.529C81.2537 210.251 80.6374 211.252 79.5732 212.315C78.5089 213.38 77.5092 213.996 76.7871 214.344C76.4261 214.518 76.1332 214.625 75.9379 214.687C75.8498 214.716 75.7608 214.741 75.6709 214.763L75.6628 214.764ZM78.8162 207.024C78.7542 206.96 78.68 206.909 78.598 206.874C78.516 206.839 78.4279 206.82 78.3386 206.819C78.2494 206.819 78.161 206.836 78.0784 206.87C77.9959 206.903 77.9209 206.953 77.8578 207.016C77.7948 207.08 77.7449 207.155 77.7112 207.237C77.6774 207.32 77.6605 207.408 77.6613 207.497C77.6621 207.587 77.6807 207.675 77.7159 207.757C77.7512 207.839 77.8024 207.913 77.8666 207.975L79.2103 209.319C79.2719 209.385 79.346 209.437 79.4284 209.474C79.5109 209.511 79.5998 209.531 79.69 209.532C79.7803 209.534 79.8699 209.517 79.9535 209.483C80.0372 209.45 80.1132 209.399 80.177 209.336C80.2408 209.272 80.2911 209.196 80.3249 209.112C80.3587 209.028 80.3753 208.939 80.3737 208.849C80.3721 208.758 80.3523 208.669 80.3156 208.587C80.2789 208.505 80.2259 208.43 80.1599 208.369L78.8162 207.024Z" fill="#6F92FB"/>
<path d="M84.9768 210.831L83.2282 209.082L83.2255 209.089C83.1448 209.34 83.0149 209.691 82.8116 210.113C82.4049 210.958 81.7043 212.085 80.5236 213.266C79.3429 214.447 78.2151 215.148 77.3703 215.554C77.039 215.716 76.6968 215.854 76.3464 215.967L76.3401 215.97L78.0897 217.719C78.5399 218.18 79.0772 218.548 79.6705 218.8C80.2638 219.052 80.9013 219.184 81.5459 219.188C82.1906 219.191 82.8296 219.067 83.4259 218.822C84.0222 218.578 84.564 218.217 85.0198 217.761C85.4756 217.305 85.8364 216.763 86.0812 216.167C86.326 215.57 86.4501 214.931 86.4461 214.287C86.4421 213.642 86.3101 213.005 86.0579 212.411C85.8057 211.818 85.4382 211.281 84.9768 210.831Z" fill="#6F92FB"/>
<path opacity="0.5" d="M72.7129 212.103C72.9225 212.469 73.1841 212.814 73.4967 213.128L78.0897 217.72C78.4023 218.033 78.7472 218.294 79.1136 218.504C78.8938 219.509 78.39 220.429 77.6623 221.155C77.0718 221.745 76.352 222.19 75.5599 222.453C74.7677 222.717 73.9251 222.792 73.0988 222.673C72.2725 222.555 71.4851 222.245 70.7992 221.769C70.1133 221.294 69.5477 220.664 69.1471 219.932C68.7466 219.2 68.5222 218.384 68.4916 217.55C68.4611 216.715 68.6253 215.886 68.9713 215.126C69.3172 214.366 69.8353 213.697 70.4846 213.173C71.1339 212.648 71.8974 212.282 72.7129 212.103Z" fill="#6F92FB"/>
<path fill-rule="evenodd" clip-rule="evenodd" d="M103.663 215.128L103.219 215.213L101.497 213.491C101.044 213.038 100.686 212.501 100.441 211.91C100.196 211.319 100.07 210.686 100.07 210.046C100.07 208.755 100.584 207.516 101.497 206.602C102.411 205.689 103.65 205.176 104.942 205.176C106.233 205.176 107.472 205.689 108.386 206.603L110.107 208.325L110.021 208.769L110.021 208.777L110.009 208.825C109.99 208.899 109.969 208.972 109.946 209.044C109.884 209.241 109.776 209.532 109.601 209.893C109.254 210.615 108.637 211.616 107.573 212.679C106.509 213.744 105.509 214.36 104.787 214.708C104.426 214.882 104.133 214.989 103.938 215.051C103.85 215.08 103.761 215.105 103.671 215.127L103.663 215.128ZM106.816 207.388C106.754 207.324 106.68 207.273 106.598 207.238C106.516 207.203 106.428 207.184 106.339 207.183C106.249 207.183 106.161 207.2 106.078 207.234C105.996 207.267 105.921 207.317 105.858 207.38C105.795 207.444 105.745 207.519 105.711 207.601C105.677 207.684 105.66 207.772 105.661 207.861C105.662 207.951 105.681 208.039 105.716 208.121C105.751 208.203 105.802 208.277 105.867 208.339L107.21 209.683C107.272 209.749 107.346 209.801 107.428 209.838C107.511 209.875 107.6 209.895 107.69 209.896C107.78 209.898 107.87 209.881 107.954 209.847C108.037 209.814 108.113 209.763 108.177 209.7C108.241 209.636 108.291 209.56 108.325 209.476C108.359 209.392 108.375 209.303 108.374 209.213C108.372 209.122 108.352 209.033 108.316 208.951C108.279 208.869 108.226 208.794 108.16 208.733L106.816 207.388Z" fill="#6F92FB"/>
<path d="M112.977 211.195L111.228 209.446L111.225 209.453C111.145 209.704 111.015 210.055 110.812 210.477C110.405 211.322 109.704 212.449 108.524 213.63C107.343 214.811 106.215 215.512 105.37 215.918C105.039 216.08 104.697 216.218 104.346 216.331L104.34 216.334L106.09 218.083C106.54 218.544 107.077 218.912 107.671 219.164C108.264 219.416 108.901 219.548 109.546 219.552C110.191 219.555 110.83 219.431 111.426 219.186C112.022 218.942 112.564 218.581 113.02 218.125C113.476 217.669 113.836 217.127 114.081 216.531C114.326 215.934 114.45 215.295 114.446 214.651C114.442 214.006 114.31 213.369 114.058 212.775C113.806 212.182 113.438 211.645 112.977 211.195Z" fill="#6F92FB"/>
<path opacity="0.5" d="M100.713 212.467C100.922 212.833 101.184 213.178 101.497 213.492L106.09 218.084C106.402 218.397 106.747 218.658 107.114 218.868C106.894 219.873 106.39 220.793 105.662 221.519C105.072 222.109 104.352 222.554 103.56 222.817C102.768 223.081 101.925 223.156 101.099 223.037C100.272 222.919 99.4851 222.609 98.7992 222.133C98.1133 221.658 97.5477 221.028 97.1471 220.296C96.7466 219.564 96.5222 218.748 96.4916 217.914C96.4611 217.079 96.6253 216.25 96.9713 215.49C97.3172 214.73 97.8353 214.061 98.4846 213.537C99.1339 213.012 99.8974 212.646 100.713 212.467Z" fill="#6F92FB"/>
</g>
</g>
<defs>
<linearGradient id="paint0_linear_4017_182" x1="22.8794" y1="-18.6059" x2="387.615" y2="395.193" gradientUnits="userSpaceOnUse">
<stop stop-color="#CEF2F9"/>
<stop offset="1" stop-color="#E7F9FC"/>
</linearGradient>
<clipPath id="clip0_4017_182">
<rect x="0.879395" y="0.3125" width="408" height="309" rx="12" fill="white"/>
</clipPath>
<clipPath id="clip1_4017_182">
<rect width="330.27" height="260" fill="white" transform="translate(39.8794 49.0461)"/>
</clipPath>
</defs>
</svg>
