<svg width="160" height="49" viewBox="0 0 160 49" fill="none" xmlns="http://www.w3.org/2000/svg">
<rect x="0.143066" y="0.3125" width="159" height="48" rx="3" fill="#051052"/>
<path d="M19.6147 21.875C19.5616 21.3788 19.3381 20.9924 18.9442 20.7159C18.5541 20.4394 18.0465 20.3011 17.4215 20.3011C16.9821 20.3011 16.6052 20.3674 16.2908 20.5C15.9764 20.6326 15.7359 20.8125 15.5692 21.0398C15.4025 21.267 15.3173 21.5265 15.3135 21.8182C15.3135 22.0606 15.3684 22.2708 15.4783 22.4489C15.5919 22.6269 15.7453 22.7784 15.9385 22.9034C16.1317 23.0246 16.3457 23.1269 16.5806 23.2102C16.8154 23.2936 17.0522 23.3636 17.2908 23.4205L18.3817 23.6932C18.8211 23.7955 19.2434 23.9337 19.6487 24.108C20.0578 24.2822 20.4234 24.5019 20.7453 24.767C21.0711 25.0322 21.3287 25.3523 21.5181 25.7273C21.7075 26.1023 21.8022 26.5417 21.8022 27.0455C21.8022 27.7273 21.6279 28.3277 21.2794 28.8466C20.9309 29.3617 20.4272 29.7652 19.7681 30.0568C19.1128 30.3447 18.3192 30.4886 17.3874 30.4886C16.4821 30.4886 15.6961 30.3485 15.0294 30.0682C14.3666 29.7879 13.8476 29.3788 13.4726 28.8409C13.1014 28.303 12.9006 27.6477 12.8703 26.875H14.9442C14.9745 27.2803 15.0995 27.6174 15.3192 27.8864C15.5389 28.1553 15.8249 28.3561 16.1772 28.4886C16.5332 28.6212 16.9309 28.6875 17.3703 28.6875C17.8287 28.6875 18.2302 28.6193 18.5749 28.483C18.9234 28.3428 19.1961 28.1496 19.3931 27.9034C19.59 27.6534 19.6904 27.3617 19.6942 27.0284C19.6904 26.7254 19.6014 26.4754 19.4272 26.2784C19.2529 26.0777 19.0086 25.911 18.6942 25.7784C18.3836 25.642 18.02 25.5208 17.6033 25.4148L16.2794 25.0739C15.3211 24.8277 14.5635 24.4545 14.0067 23.9545C13.4537 23.4508 13.1772 22.7822 13.1772 21.9489C13.1772 21.2633 13.3628 20.6629 13.734 20.1477C14.109 19.6326 14.6184 19.233 15.2624 18.9489C15.9063 18.661 16.6355 18.517 17.4499 18.517C18.2756 18.517 18.9991 18.661 19.6203 18.9489C20.2453 19.233 20.7359 19.6288 21.0919 20.1364C21.448 20.6402 21.6317 21.2197 21.6431 21.875H19.6147ZM23.5905 33.5852V21.5852H25.6132V23.0284H25.7326C25.8386 22.8163 25.9882 22.5909 26.1814 22.3523C26.3746 22.1098 26.636 21.9034 26.9655 21.733C27.2951 21.5587 27.7155 21.4716 28.2269 21.4716C28.9011 21.4716 29.5091 21.6439 30.0507 21.9886C30.5962 22.3295 31.028 22.8352 31.3462 23.5057C31.6682 24.1723 31.8291 24.9905 31.8291 25.9602C31.8291 26.9186 31.6719 27.733 31.3576 28.4034C31.0432 29.0739 30.6151 29.5852 30.0735 29.9375C29.5318 30.2898 28.9182 30.4659 28.2326 30.4659C27.7326 30.4659 27.3178 30.3826 26.9882 30.2159C26.6587 30.0492 26.3935 29.8485 26.1928 29.6136C25.9958 29.375 25.8424 29.1496 25.7326 28.9375H25.6473V33.5852H23.5905ZM25.6076 25.9489C25.6076 26.5133 25.6871 27.0076 25.8462 27.4318C26.0091 27.8561 26.242 28.1875 26.5451 28.4261C26.8519 28.661 27.2231 28.7784 27.6587 28.7784C28.1132 28.7784 28.4939 28.6572 28.8007 28.4148C29.1076 28.1686 29.3386 27.8333 29.4939 27.4091C29.653 26.9811 29.7326 26.4943 29.7326 25.9489C29.7326 25.4072 29.6549 24.9261 29.4996 24.5057C29.3443 24.0852 29.1132 23.7557 28.8064 23.517C28.4996 23.2784 28.117 23.1591 27.6587 23.1591C27.2193 23.1591 26.8462 23.2746 26.5394 23.5057C26.2326 23.7367 25.9996 24.0606 25.8405 24.4773C25.6852 24.8939 25.6076 25.3845 25.6076 25.9489ZM37.4541 30.483C36.5791 30.483 35.8235 30.3011 35.1871 29.9375C34.5545 29.5701 34.0678 29.0511 33.7269 28.3807C33.386 27.7064 33.2155 26.9129 33.2155 26C33.2155 25.1023 33.386 24.3144 33.7269 23.6364C34.0716 22.9545 34.5526 22.4242 35.1701 22.0455C35.7875 21.6629 36.5129 21.4716 37.3462 21.4716C37.8841 21.4716 38.3916 21.5587 38.8689 21.733C39.35 21.9034 39.7742 22.1686 40.1416 22.5284C40.5129 22.8883 40.8045 23.3466 41.0166 23.9034C41.2288 24.4564 41.3348 25.1155 41.3348 25.8807V26.5114H34.1814V25.125H39.3632C39.3594 24.7311 39.2742 24.3807 39.1076 24.0739C38.9409 23.7633 38.7079 23.5189 38.4087 23.3409C38.1132 23.1629 37.7685 23.0739 37.3746 23.0739C36.9541 23.0739 36.5848 23.1761 36.2666 23.3807C35.9485 23.5814 35.7004 23.8466 35.5223 24.1761C35.3481 24.5019 35.2591 24.8598 35.2553 25.25V26.4602C35.2553 26.9678 35.3481 27.4034 35.5337 27.767C35.7193 28.1269 35.9788 28.4034 36.3121 28.5966C36.6454 28.786 37.0356 28.8807 37.4826 28.8807C37.7818 28.8807 38.0526 28.839 38.2951 28.7557C38.5375 28.6686 38.7477 28.5417 38.9257 28.375C39.1038 28.2083 39.2382 28.0019 39.3291 27.7557L41.2496 27.9716C41.1284 28.4792 40.8973 28.9223 40.5564 29.3011C40.2193 29.6761 39.7875 29.9678 39.261 30.1761C38.7344 30.3807 38.1322 30.483 37.4541 30.483ZM45.5862 30.4886C45.0332 30.4886 44.5351 30.3902 44.0919 30.1932C43.6525 29.9924 43.3041 29.697 43.0465 29.3068C42.7927 28.9167 42.6658 28.4356 42.6658 27.8636C42.6658 27.3712 42.7567 26.964 42.9385 26.642C43.1203 26.3201 43.3684 26.0625 43.6828 25.8693C43.9972 25.6761 44.3514 25.5303 44.7453 25.4318C45.1431 25.3295 45.5541 25.2557 45.9783 25.2102C46.4897 25.1572 46.9044 25.1098 47.2226 25.0682C47.5408 25.0227 47.7719 24.9545 47.9158 24.8636C48.0635 24.7689 48.1374 24.6231 48.1374 24.4261V24.392C48.1374 23.964 48.0105 23.6326 47.7567 23.3977C47.5029 23.1629 47.1374 23.0455 46.6601 23.0455C46.1563 23.0455 45.7567 23.1553 45.4612 23.375C45.1696 23.5947 44.9726 23.8542 44.8703 24.1534L42.9499 23.8807C43.1014 23.3504 43.3514 22.9072 43.6999 22.5511C44.0484 22.1913 44.4745 21.9223 44.9783 21.7443C45.4821 21.5625 46.0389 21.4716 46.6487 21.4716C47.0692 21.4716 47.4878 21.5208 47.9044 21.6193C48.3211 21.7178 48.7018 21.8807 49.0465 22.108C49.3912 22.3314 49.6677 22.6364 49.876 23.0227C50.0881 23.4091 50.1942 23.892 50.1942 24.4716V30.3125H48.2169V29.1136H48.1487C48.0237 29.3561 47.8476 29.5833 47.6203 29.7955C47.3969 30.0038 47.1147 30.1723 46.7737 30.3011C46.4366 30.4261 46.0408 30.4886 45.5862 30.4886ZM46.1203 28.9773C46.5332 28.9773 46.8912 28.8958 47.1942 28.733C47.4972 28.5663 47.7302 28.3466 47.8931 28.0739C48.0597 27.8011 48.1431 27.5038 48.1431 27.1818V26.1534C48.0787 26.2064 47.9688 26.2557 47.8135 26.3011C47.662 26.3466 47.4916 26.3864 47.3022 26.4205C47.1128 26.4545 46.9253 26.4848 46.7397 26.5114C46.5541 26.5379 46.3931 26.5606 46.2567 26.5795C45.9499 26.6212 45.6753 26.6894 45.4328 26.7841C45.1904 26.8788 44.9991 27.0114 44.859 27.1818C44.7188 27.3485 44.6487 27.5644 44.6487 27.8295C44.6487 28.2083 44.787 28.4943 45.0635 28.6875C45.34 28.8807 45.6923 28.9773 46.1203 28.9773ZM54.1374 27.5739L54.1317 25.0909H54.4612L57.5976 21.5852H60.001L56.1431 25.8807H55.7169L54.1374 27.5739ZM52.2624 30.3125V18.6761H54.3192V30.3125H52.2624ZM57.7397 30.3125L54.8987 26.3409L56.2851 24.892L60.1999 30.3125H57.7397ZM69.6985 21.5852V23.1761H64.6814V21.5852H69.6985ZM65.9201 19.4943H67.9769V27.6875C67.9769 27.964 68.0185 28.1761 68.1019 28.3239C68.189 28.4678 68.3026 28.5663 68.4428 28.6193C68.5829 28.6723 68.7382 28.6989 68.9087 28.6989C69.0375 28.6989 69.1549 28.6894 69.261 28.6705C69.3708 28.6515 69.4541 28.6345 69.511 28.6193L69.8576 30.2273C69.7477 30.2652 69.5905 30.3068 69.386 30.3523C69.1852 30.3977 68.939 30.4242 68.6473 30.4318C68.1322 30.447 67.6682 30.3693 67.2553 30.1989C66.8424 30.0246 66.5148 29.7557 66.2723 29.392C66.0337 29.0284 65.9163 28.5739 65.9201 28.0284V19.4943ZM75.1317 30.483C74.2794 30.483 73.5408 30.2955 72.9158 29.9205C72.2908 29.5455 71.8059 29.0208 71.4612 28.3466C71.1203 27.6723 70.9499 26.8845 70.9499 25.983C70.9499 25.0814 71.1203 24.2917 71.4612 23.6136C71.8059 22.9356 72.2908 22.4091 72.9158 22.0341C73.5408 21.6591 74.2794 21.4716 75.1317 21.4716C75.984 21.4716 76.7226 21.6591 77.3476 22.0341C77.9726 22.4091 78.4556 22.9356 78.7965 23.6136C79.1412 24.2917 79.3135 25.0814 79.3135 25.983C79.3135 26.8845 79.1412 27.6723 78.7965 28.3466C78.4556 29.0208 77.9726 29.5455 77.3476 29.9205C76.7226 30.2955 75.984 30.483 75.1317 30.483ZM75.1431 28.8352C75.6052 28.8352 75.9916 28.7083 76.3022 28.4545C76.6128 28.197 76.8438 27.8523 76.9953 27.4205C77.1506 26.9886 77.2283 26.5076 77.2283 25.9773C77.2283 25.4432 77.1506 24.9602 76.9953 24.5284C76.8438 24.0928 76.6128 23.7462 76.3022 23.4886C75.9916 23.2311 75.6052 23.1023 75.1431 23.1023C74.6696 23.1023 74.2756 23.2311 73.9612 23.4886C73.6506 23.7462 73.4177 24.0928 73.2624 24.5284C73.1109 24.9602 73.0351 25.4432 73.0351 25.9773C73.0351 26.5076 73.1109 26.9886 73.2624 27.4205C73.4177 27.8523 73.6506 28.197 73.9612 28.4545C74.2756 28.7083 74.6696 28.8352 75.1431 28.8352ZM94.6814 18.6761V30.3125H92.8064L87.3235 22.3864H87.2269V30.3125H85.1189V18.6761H87.0053L92.4826 26.608H92.5848V18.6761H94.6814ZM100.751 30.483C99.876 30.483 99.1203 30.3011 98.484 29.9375C97.8514 29.5701 97.3647 29.0511 97.0237 28.3807C96.6828 27.7064 96.5124 26.9129 96.5124 26C96.5124 25.1023 96.6828 24.3144 97.0237 23.6364C97.3684 22.9545 97.8495 22.4242 98.4669 22.0455C99.0844 21.6629 99.8097 21.4716 100.643 21.4716C101.181 21.4716 101.689 21.5587 102.166 21.733C102.647 21.9034 103.071 22.1686 103.439 22.5284C103.81 22.8883 104.101 23.3466 104.314 23.9034C104.526 24.4564 104.632 25.1155 104.632 25.8807V26.5114H97.4783V25.125H102.66C102.656 24.7311 102.571 24.3807 102.404 24.0739C102.238 23.7633 102.005 23.5189 101.706 23.3409C101.41 23.1629 101.065 23.0739 100.671 23.0739C100.251 23.0739 99.8817 23.1761 99.5635 23.3807C99.2453 23.5814 98.9972 23.8466 98.8192 24.1761C98.645 24.5019 98.5559 24.8598 98.5522 25.25V26.4602C98.5522 26.9678 98.645 27.4034 98.8306 27.767C99.0162 28.1269 99.2756 28.4034 99.609 28.5966C99.9423 28.786 100.332 28.8807 100.779 28.8807C101.079 28.8807 101.35 28.839 101.592 28.7557C101.834 28.6686 102.045 28.5417 102.223 28.375C102.401 28.2083 102.535 28.0019 102.626 27.7557L104.546 27.9716C104.425 28.4792 104.194 28.9223 103.853 29.3011C103.516 29.6761 103.084 29.9678 102.558 30.1761C102.031 30.3807 101.429 30.483 100.751 30.483ZM110.179 30.483C109.326 30.483 108.588 30.2955 107.963 29.9205C107.338 29.5455 106.853 29.0208 106.508 28.3466C106.167 27.6723 105.997 26.8845 105.997 25.983C105.997 25.0814 106.167 24.2917 106.508 23.6136C106.853 22.9356 107.338 22.4091 107.963 22.0341C108.588 21.6591 109.326 21.4716 110.179 21.4716C111.031 21.4716 111.769 21.6591 112.394 22.0341C113.019 22.4091 113.502 22.9356 113.843 23.6136C114.188 24.2917 114.36 25.0814 114.36 25.983C114.36 26.8845 114.188 27.6723 113.843 28.3466C113.502 29.0208 113.019 29.5455 112.394 29.9205C111.769 30.2955 111.031 30.483 110.179 30.483ZM110.19 28.8352C110.652 28.8352 111.038 28.7083 111.349 28.4545C111.66 28.197 111.891 27.8523 112.042 27.4205C112.198 26.9886 112.275 26.5076 112.275 25.9773C112.275 25.4432 112.198 24.9602 112.042 24.5284C111.891 24.0928 111.66 23.7462 111.349 23.4886C111.038 23.2311 110.652 23.1023 110.19 23.1023C109.716 23.1023 109.323 23.2311 109.008 23.4886C108.698 23.7462 108.465 24.0928 108.309 24.5284C108.158 24.9602 108.082 25.4432 108.082 25.9773C108.082 26.5076 108.158 26.9886 108.309 27.4205C108.465 27.8523 108.698 28.197 109.008 28.4545C109.323 28.7083 109.716 28.8352 110.19 28.8352Z" fill="white"/>
<path d="M130.143 29.3125L140.143 19.3125" stroke="white" stroke-width="2" stroke-linecap="round" stroke-linejoin="round"/>
<path d="M130.143 19.3125H140.143V29.3125" stroke="white" stroke-width="2" stroke-linecap="round" stroke-linejoin="round"/>
</svg>
