<svg width="152" height="49" viewBox="0 0 152 49" fill="none" xmlns="http://www.w3.org/2000/svg">
<path d="M24.1431 44.3125C35.1888 44.3125 44.1431 35.3582 44.1431 24.3125C44.1431 13.2668 35.1888 4.3125 24.1431 4.3125C13.0974 4.3125 4.14307 13.2668 4.14307 24.3125C4.14307 35.3582 13.0974 44.3125 24.1431 44.3125Z" fill="#0CC0DF" stroke="#0CC0DF" stroke-width="2" stroke-linecap="round" stroke-linejoin="round"/>
<path d="M20.1431 16.3125L32.1431 24.3125L20.1431 32.3125V16.3125Z" fill="white"/>
<path d="M55.7397 30.3125L52.4556 18.6761H54.7226L56.8192 27.2273H56.9272L59.1658 18.6761H61.2283L63.4726 27.233H63.5749L65.6715 18.6761H67.9385L64.6544 30.3125H62.5749L60.2453 22.1477H60.1544L57.8192 30.3125H55.7397ZM70.93 30.4886C70.377 30.4886 69.8789 30.3902 69.4357 30.1932C68.9963 29.9924 68.6478 29.697 68.3902 29.3068C68.1364 28.9167 68.0095 28.4356 68.0095 27.8636C68.0095 27.3712 68.1005 26.964 68.2823 26.642C68.4641 26.3201 68.7122 26.0625 69.0266 25.8693C69.341 25.6761 69.6951 25.5303 70.0891 25.4318C70.4868 25.3295 70.8978 25.2557 71.322 25.2102C71.8334 25.1572 72.2482 25.1098 72.5664 25.0682C72.8845 25.0227 73.1156 24.9545 73.2595 24.8636C73.4073 24.7689 73.4811 24.6231 73.4811 24.4261V24.392C73.4811 23.964 73.3542 23.6326 73.1005 23.3977C72.8467 23.1629 72.4811 23.0455 72.0039 23.0455C71.5001 23.0455 71.1005 23.1553 70.805 23.375C70.5133 23.5947 70.3164 23.8542 70.2141 24.1534L68.2936 23.8807C68.4451 23.3504 68.6951 22.9072 69.0436 22.5511C69.3921 22.1913 69.8183 21.9223 70.322 21.7443C70.8258 21.5625 71.3826 21.4716 71.9925 21.4716C72.413 21.4716 72.8315 21.5208 73.2482 21.6193C73.6648 21.7178 74.0455 21.8807 74.3902 22.108C74.7349 22.3314 75.0114 22.6364 75.2198 23.0227C75.4319 23.4091 75.538 23.892 75.538 24.4716V30.3125H73.5607V29.1136H73.4925C73.3675 29.3561 73.1914 29.5833 72.9641 29.7955C72.7406 30.0038 72.4584 30.1723 72.1175 30.3011C71.7804 30.4261 71.3845 30.4886 70.93 30.4886ZM71.4641 28.9773C71.877 28.9773 72.2349 28.8958 72.538 28.733C72.841 28.5663 73.0739 28.3466 73.2368 28.0739C73.4035 27.8011 73.4868 27.5038 73.4868 27.1818V26.1534C73.4224 26.2064 73.3126 26.2557 73.1573 26.3011C73.0058 26.3466 72.8353 26.3864 72.6459 26.4205C72.4565 26.4545 72.269 26.4848 72.0834 26.5114C71.8978 26.5379 71.7368 26.5606 71.6005 26.5795C71.2936 26.6212 71.019 26.6894 70.7766 26.7841C70.5342 26.8788 70.3429 27.0114 70.2027 27.1818C70.0626 27.3485 69.9925 27.5644 69.9925 27.8295C69.9925 28.2083 70.1308 28.4943 70.4073 28.6875C70.6838 28.8807 71.0361 28.9773 71.4641 28.9773ZM81.9641 21.5852V23.1761H76.947V21.5852H81.9641ZM78.1857 19.4943H80.2425V27.6875C80.2425 27.964 80.2842 28.1761 80.3675 28.3239C80.4546 28.4678 80.5683 28.5663 80.7084 28.6193C80.8486 28.6723 81.0039 28.6989 81.1743 28.6989C81.3031 28.6989 81.4205 28.6894 81.5266 28.6705C81.6364 28.6515 81.7198 28.6345 81.7766 28.6193L82.1232 30.2273C82.0133 30.2652 81.8561 30.3068 81.6516 30.3523C81.4508 30.3977 81.2046 30.4242 80.913 30.4318C80.3978 30.447 79.9338 30.3693 79.5209 30.1989C79.108 30.0246 78.7804 29.7557 78.538 29.392C78.2993 29.0284 78.1819 28.5739 78.1857 28.0284V19.4943ZM87.3973 30.483C86.5261 30.483 85.778 30.2917 85.153 29.9091C84.5318 29.5265 84.0526 28.9981 83.7155 28.3239C83.3822 27.6458 83.2155 26.8655 83.2155 25.983C83.2155 25.0966 83.386 24.3144 83.7269 23.6364C84.0678 22.9545 84.5488 22.4242 85.1701 22.0455C85.7951 21.6629 86.5337 21.4716 87.386 21.4716C88.0943 21.4716 88.7212 21.6023 89.2666 21.8636C89.8159 22.1212 90.2534 22.4867 90.5791 22.9602C90.9049 23.4299 91.0905 23.9792 91.136 24.608H89.1701C89.0905 24.1875 88.9011 23.8371 88.6019 23.5568C88.3064 23.2727 87.9106 23.1307 87.4144 23.1307C86.9939 23.1307 86.6246 23.2443 86.3064 23.4716C85.9882 23.6951 85.7401 24.017 85.5621 24.4375C85.3879 24.858 85.3007 25.3617 85.3007 25.9489C85.3007 26.5436 85.3879 27.0549 85.5621 27.483C85.7363 27.9072 85.9807 28.2348 86.2951 28.4659C86.6132 28.6932 86.9863 28.8068 87.4144 28.8068C87.7174 28.8068 87.9882 28.75 88.2269 28.6364C88.4693 28.5189 88.6719 28.3504 88.8348 28.1307C88.9977 27.911 89.1094 27.6439 89.1701 27.3295H91.136C91.0867 27.947 90.9049 28.4943 90.5905 28.9716C90.2761 29.4451 89.8481 29.8163 89.3064 30.0852C88.7648 30.3504 88.1284 30.483 87.3973 30.483ZM94.8817 25.1989V30.3125H92.8249V18.6761H94.8362V23.0682H94.9385C95.1431 22.5758 95.4594 22.1875 95.8874 21.9034C96.3192 21.6155 96.8684 21.4716 97.5351 21.4716C98.1412 21.4716 98.6696 21.5985 99.1203 21.8523C99.5711 22.1061 99.9196 22.4773 100.166 22.9659C100.416 23.4545 100.541 24.0511 100.541 24.7557V30.3125H98.484V25.0739C98.484 24.4867 98.3325 24.0303 98.0294 23.7045C97.7302 23.375 97.3097 23.2102 96.7681 23.2102C96.4044 23.2102 96.0787 23.2898 95.7908 23.4489C95.5067 23.6042 95.2832 23.8295 95.1203 24.125C94.9612 24.4205 94.8817 24.7784 94.8817 25.1989ZM110.64 30.3125H106.697V18.6761H110.72C111.875 18.6761 112.867 18.9091 113.697 19.375C114.53 19.8371 115.171 20.5019 115.617 21.3693C116.064 22.2367 116.288 23.2746 116.288 24.483C116.288 25.6951 116.063 26.7367 115.612 27.608C115.165 28.4792 114.519 29.1477 113.674 29.6136C112.833 30.0795 111.822 30.3125 110.64 30.3125ZM108.805 28.4886H110.538C111.349 28.4886 112.025 28.3409 112.566 28.0455C113.108 27.7462 113.515 27.3011 113.788 26.7102C114.061 26.1155 114.197 25.3731 114.197 24.483C114.197 23.5928 114.061 22.8542 113.788 22.267C113.515 21.6761 113.112 21.2348 112.578 20.9432C112.047 20.6477 111.388 20.5 110.6 20.5H108.805V28.4886ZM122.064 30.483C121.189 30.483 120.433 30.3011 119.796 29.9375C119.164 29.5701 118.677 29.0511 118.336 28.3807C117.995 27.7064 117.825 26.9129 117.825 26C117.825 25.1023 117.995 24.3144 118.336 23.6364C118.681 22.9545 119.162 22.4242 119.779 22.0455C120.397 21.6629 121.122 21.4716 121.956 21.4716C122.493 21.4716 123.001 21.5587 123.478 21.733C123.959 21.9034 124.384 22.1686 124.751 22.5284C125.122 22.8883 125.414 23.3466 125.626 23.9034C125.838 24.4564 125.944 25.1155 125.944 25.8807V26.5114H118.791V25.125H123.973C123.969 24.7311 123.884 24.3807 123.717 24.0739C123.55 23.7633 123.317 23.5189 123.018 23.3409C122.723 23.1629 122.378 23.0739 121.984 23.0739C121.564 23.0739 121.194 23.1761 120.876 23.3807C120.558 23.5814 120.31 23.8466 120.132 24.1761C119.957 24.5019 119.868 24.8598 119.865 25.25V26.4602C119.865 26.9678 119.957 27.4034 120.143 27.767C120.329 28.1269 120.588 28.4034 120.921 28.5966C121.255 28.786 121.645 28.8807 122.092 28.8807C122.391 28.8807 122.662 28.839 122.904 28.7557C123.147 28.6686 123.357 28.5417 123.535 28.375C123.713 28.2083 123.848 28.0019 123.939 27.7557L125.859 27.9716C125.738 28.4792 125.507 28.9223 125.166 29.3011C124.829 29.6761 124.397 29.9678 123.87 30.1761C123.344 30.3807 122.742 30.483 122.064 30.483ZM127.684 30.3125V21.5852H129.65V23.0682H129.752C129.934 22.5682 130.235 22.178 130.656 21.8977C131.076 21.6136 131.578 21.4716 132.162 21.4716C132.752 21.4716 133.251 21.6155 133.656 21.9034C134.065 22.1875 134.353 22.5758 134.519 23.0682H134.61C134.804 22.5833 135.129 22.197 135.588 21.9091C136.05 21.6174 136.597 21.4716 137.23 21.4716C138.033 21.4716 138.688 21.7254 139.196 22.233C139.703 22.7405 139.957 23.4811 139.957 24.4545V30.3125H137.894V24.7727C137.894 24.2311 137.751 23.8352 137.463 23.5852C137.175 23.3314 136.823 23.2045 136.406 23.2045C135.91 23.2045 135.521 23.3598 135.241 23.6705C134.965 23.9773 134.826 24.3769 134.826 24.8693V30.3125H132.809V24.6875C132.809 24.2367 132.673 23.8769 132.4 23.608C132.131 23.339 131.779 23.2045 131.343 23.2045C131.048 23.2045 130.779 23.2803 130.537 23.4318C130.294 23.5795 130.101 23.7898 129.957 24.0625C129.813 24.3314 129.741 24.6458 129.741 25.0057V30.3125H127.684ZM145.85 30.483C144.998 30.483 144.26 30.2955 143.635 29.9205C143.01 29.5455 142.525 29.0208 142.18 28.3466C141.839 27.6723 141.669 26.8845 141.669 25.983C141.669 25.0814 141.839 24.2917 142.18 23.6136C142.525 22.9356 143.01 22.4091 143.635 22.0341C144.26 21.6591 144.998 21.4716 145.85 21.4716C146.703 21.4716 147.441 21.6591 148.066 22.0341C148.691 22.4091 149.174 22.9356 149.515 23.6136C149.86 24.2917 150.032 25.0814 150.032 25.983C150.032 26.8845 149.86 27.6723 149.515 28.3466C149.174 29.0208 148.691 29.5455 148.066 29.9205C147.441 30.2955 146.703 30.483 145.85 30.483ZM145.862 28.8352C146.324 28.8352 146.71 28.7083 147.021 28.4545C147.332 28.197 147.563 27.8523 147.714 27.4205C147.869 26.9886 147.947 26.5076 147.947 25.9773C147.947 25.4432 147.869 24.9602 147.714 24.5284C147.563 24.0928 147.332 23.7462 147.021 23.4886C146.71 23.2311 146.324 23.1023 145.862 23.1023C145.388 23.1023 144.994 23.2311 144.68 23.4886C144.369 23.7462 144.136 24.0928 143.981 24.5284C143.83 24.9602 143.754 25.4432 143.754 25.9773C143.754 26.5076 143.83 26.9886 143.981 27.4205C144.136 27.8523 144.369 28.197 144.68 28.4545C144.994 28.7083 145.388 28.8352 145.862 28.8352Z" fill="#0CC0DF"/>
</svg>
