<svg width="59" height="78" viewBox="0 0 59 78" fill="none" xmlns="http://www.w3.org/2000/svg">
<path id="Vector 3" d="M5.1699 2.17435C5.44387 1.54069 5.15229 0.804904 4.51863 0.530927C3.88496 0.256951 3.14918 0.548535 2.8752 1.1822L5.1699 2.17435ZM58.4798 69.9678C59.0142 69.5309 59.0933 68.7434 58.6563 68.2089L51.5355 59.4993C51.0986 58.9648 50.3111 58.8858 49.7766 59.3228C49.2421 59.7597 49.1631 60.5472 49.6001 61.0817L55.9296 68.8236L48.1878 75.1531C47.6533 75.5901 47.5743 76.3776 48.0112 76.9121C48.4482 77.4465 49.2357 77.5256 49.7702 77.0886L58.4798 69.9678ZM2.8752 1.1822C1.10116 5.28528 -0.428317 11.6152 1.00191 17.1354C1.72692 19.9337 3.21985 22.5424 5.82975 24.4978C8.42911 26.4453 12.0337 27.668 16.855 27.8928L16.9715 25.3955C12.5059 25.1873 9.42548 24.0679 7.32873 22.497C5.24251 20.934 4.02822 18.8482 3.422 16.5084C2.18977 11.7524 3.5018 6.0324 5.1699 2.17435L2.8752 1.1822ZM16.855 27.8928C22.6709 28.1639 27.3118 28.3807 30.9893 28.7299C34.6879 29.0812 37.2813 29.557 39.0562 30.2906C40.7659 30.9973 41.6098 31.8942 42.0074 33.1074C42.4413 34.4311 42.4087 36.3159 41.8683 39.1213L44.3232 39.5941C44.8798 36.7043 45.0251 34.2875 44.3831 32.3287C43.7048 30.2594 42.2191 28.8928 40.0111 27.9802C37.8683 27.0945 34.9557 26.5954 31.2257 26.2411C27.4746 25.8849 22.7642 25.6656 16.9715 25.3955L16.855 27.8928ZM41.8683 39.1213C40.7615 44.8679 40.082 52.1004 41.9596 58.1756C42.9062 61.2386 44.515 64.0467 47.0777 66.2024C49.6437 68.361 53.0815 69.794 57.5637 70.2438L57.8134 67.7563C53.7415 67.3477 50.8038 66.0699 48.687 64.2893C46.5669 62.5059 45.1854 60.1465 44.3481 57.4374C42.6579 51.9683 43.2361 45.2381 44.3232 39.5941L41.8683 39.1213Z" fill="#0CC0DF"/>
</svg>
