<svg width="130" height="21" viewBox="0 0 130 21" fill="none" xmlns="http://www.w3.org/2000/svg">
<g id="Group 5">
<g id="Clip path group">
<mask id="mask0_4017_72" style="mask-type:luminance" maskUnits="userSpaceOnUse" x="0" y="0" width="21" height="18">
<g id="e2b4fda93e">
<path id="Vector" d="M0.879395 0.3125H20.5105V17.0102H0.879395V0.3125Z" fill="white"/>
</g>
</mask>
<g mask="url(#mask0_4017_72)">
<g id="Group">
<path id="Vector_2" d="M17.1312 0.383545V11.0365C17.1312 11.0365 13.1401 3.04721 8.42799 1.81322C3.5255 0.528099 0.879456 3.60956 0.879456 3.60956C0.879456 3.60956 7.9291 0.0168716 12.2234 7.9832C16.9866 16.8169 20.403 16.8169 20.403 16.8169V3.63072C20.403 1.8379 18.9381 0.383545 17.1312 0.383545Z" fill="#051052"/>
</g>
</g>
</g>
<g id="Clip path group_2">
<mask id="mask1_4017_72" style="mask-type:luminance" maskUnits="userSpaceOnUse" x="4" y="3" width="21" height="18">
<g id="1602023662">
<path id="Vector_3" d="M4.69971 3.85815H24.2339V20.3126H4.69971V3.85815Z" fill="white"/>
</g>
</mask>
<g mask="url(#mask1_4017_72)">
<g id="Group_2">
<path id="Vector_4" d="M7.98285 20.3135V9.66057C7.98285 9.66057 11.9739 17.6498 16.686 18.8838C21.5885 20.1672 24.2346 17.0875 24.2346 17.0875C24.2346 17.0875 17.1849 20.6784 12.8906 12.7138C8.1274 3.87842 4.711 3.87842 4.711 3.87842V17.0646C4.711 18.8591 6.17593 20.3135 7.98285 20.3135Z" fill="#0CC0DF"/>
</g>
</g>
</g>
<g id="Group_3">
<g id="Group_4">
<g id="Group_5">
<path id="Vector_5" d="M26.8387 18.6169C26.6695 18.6169 26.5426 18.5552 26.4579 18.4336C26.3769 18.312 26.3381 18.1692 26.3381 18.0035C26.3557 17.7214 26.4156 17.5522 26.5144 17.4958C26.6166 17.4394 26.7911 17.4112 27.0362 17.4112C27.5756 17.4112 27.9758 17.316 28.2349 17.122C28.4976 16.9246 28.6668 16.6884 28.7426 16.4099C28.8166 16.1278 28.8642 15.7453 28.8836 15.2605V4.14041C28.8642 3.65738 28.8166 3.27661 28.7426 2.99808C28.6668 2.71602 28.4976 2.4798 28.2349 2.28589C27.9758 2.08845 27.5756 1.98973 27.0362 1.98973H26.8669C26.6977 1.98973 26.5708 1.958 26.4862 1.89101C26.4051 1.82578 26.3557 1.66184 26.3381 1.39741C26.3381 1.23346 26.3769 1.09067 26.4579 0.967272C26.5426 0.845635 26.6695 0.783936 26.8387 0.783936C28.0516 0.840347 29.1622 0.868552 30.174 0.868552C31.2917 0.868552 32.4587 0.840347 33.6715 0.783936C33.8408 0.783936 33.9642 0.845635 34.0453 0.967272C34.1299 1.09067 34.1722 1.23346 34.1722 1.39741C34.1528 1.67946 34.0911 1.8487 33.9888 1.90511C33.8901 1.96152 33.7086 1.98973 33.4459 1.98973C32.9047 1.98973 32.5028 2.08845 32.2401 2.28589C31.981 2.4798 31.8188 2.72131 31.7536 3.01218C31.6866 3.29953 31.6443 3.67501 31.6266 4.14041V15.2605C31.6443 15.7259 31.6866 16.1049 31.7536 16.3958C31.8188 16.6831 31.981 16.9246 32.2401 17.122C32.5028 17.316 32.9047 17.4112 33.4459 17.4112H33.6151C33.802 17.4112 33.936 17.4447 34.0171 17.5099C34.1017 17.5769 34.1528 17.7408 34.1722 18.0035C34.1722 18.1692 34.1299 18.312 34.0453 18.4336C33.9642 18.5552 33.8408 18.6169 33.6715 18.6169C32.4763 18.5605 31.3199 18.5323 30.2022 18.5323C29.1727 18.5323 28.0516 18.5605 26.8387 18.6169Z" fill="#051052"/>
</g>
</g>
</g>
<g id="Group_6">
<g id="Group_7">
<g id="Group_8">
<path id="Vector_6" d="M41.5353 18.6169C41.3837 18.6169 41.2674 18.5552 41.1827 18.4336C41.1016 18.312 41.0629 18.1692 41.0629 18.0035C41.0805 17.7214 41.1351 17.5522 41.225 17.4958C41.3185 17.4394 41.4965 17.4112 41.761 17.4112C42.3004 17.4112 42.7006 17.316 42.9597 17.122C43.2224 16.9246 43.3863 16.6831 43.4533 16.3958C43.5185 16.1049 43.5608 15.7259 43.5802 15.2605V4.14041C43.5608 3.67501 43.5185 3.29953 43.4533 3.01218C43.3863 2.72131 43.2224 2.4798 42.9597 2.28589C42.7006 2.08845 42.3004 1.98973 41.761 1.98973H41.5917C41.4031 1.98973 41.2709 1.958 41.1968 1.89101C41.1263 1.82578 41.0805 1.66184 41.0629 1.39741C41.0629 1.23346 41.1016 1.09067 41.1827 0.967272C41.2674 0.845635 41.3837 0.783936 41.5353 0.783936C42.7658 0.840347 43.8781 0.868552 44.8706 0.868552H49.2355C51.0265 0.868552 52.6519 1.22817 54.115 1.94742C55.5817 2.66666 56.7399 3.69969 57.5914 5.04299C58.4411 6.38275 58.8677 7.96756 58.8677 9.79564C58.8677 11.6995 58.3847 13.3108 57.4221 14.6258C56.4631 15.9427 55.2115 16.9228 53.6708 17.5663C52.1336 18.2115 50.4853 18.5323 48.7277 18.5323H44.8706C43.8781 18.5323 42.7658 18.5605 41.5353 18.6169ZM49.1508 17.4958C51.3368 17.4958 52.9374 16.8188 53.9528 15.465C54.9682 14.1111 55.4759 12.2213 55.4759 9.79564C55.4759 8.26901 55.2009 6.9028 54.6509 5.69877C54.1009 4.4965 53.3006 3.55866 52.2535 2.88526C51.2098 2.21361 49.9706 1.8769 48.5374 1.8769L46.3514 1.90511V15.5919C46.3514 16.3217 46.57 16.8224 47.0072 17.0938C47.4479 17.3618 48.1636 17.4958 49.1508 17.4958Z" fill="#051052"/>
</g>
</g>
</g>
<g id="Group_9">
<g id="Group_10">
<g id="Group_11">
<path id="Vector_7" d="M64.9118 18.6173C64.7425 18.6173 64.6156 18.5556 64.531 18.434C64.4464 18.3124 64.4041 18.1696 64.4041 18.0039C64.4234 17.7218 64.4799 17.5526 64.5733 17.4962C64.6685 17.4398 64.7795 17.4115 64.9118 17.4115C65.0422 17.4115 65.1268 17.4115 65.1656 17.4115C65.7244 17.4115 66.1334 17.2688 66.3925 16.9814C66.6552 16.6905 66.865 16.3644 67.0201 16.0013C67.1788 15.6346 67.2881 15.3878 67.3445 15.2609L72.2452 3.66835C72.358 3.38629 72.4144 3.16417 72.4144 2.99847C72.4144 2.66 72.2822 2.41849 72.0196 2.27217C71.7604 2.12233 71.3955 2.00069 70.9266 1.9055C70.6111 1.84909 70.4154 1.79268 70.3413 1.73626C70.2655 1.67985 70.2285 1.52296 70.2285 1.26382C70.2285 1.03817 70.2885 0.888332 70.4119 0.81253C70.5335 0.73849 70.7239 0.699707 70.983 0.699707C71.9173 0.699707 72.6612 0.770221 73.2113 0.911249C73.7613 1.05228 74.2408 1.33257 74.6497 1.75037C75.0623 2.16993 75.4466 2.80808 75.7991 3.66835L80.5024 15.2609C80.7845 15.966 81.0542 16.4984 81.3133 16.8545C81.576 17.2071 81.9691 17.3939 82.4909 17.4115H82.6601C82.847 17.4115 82.9775 17.445 83.048 17.5103C83.122 17.5773 83.1696 17.7412 83.189 18.0039C83.189 18.1696 83.1467 18.3124 83.0621 18.434C82.981 18.5556 82.8576 18.6173 82.6883 18.6173C81.4931 18.5609 80.4672 18.5327 79.6069 18.5327C78.4875 18.5327 77.331 18.5609 76.1376 18.6173C75.9684 18.6173 75.8414 18.5556 75.7568 18.434C75.6722 18.3124 75.6299 18.1696 75.6299 18.0039C75.6475 17.7412 75.6951 17.5773 75.7709 17.5103C75.845 17.445 75.9772 17.4115 76.1658 17.4115C76.8004 17.4115 77.2464 17.3534 77.5056 17.2353C77.7682 17.1136 77.9004 16.8933 77.9004 16.5724C77.9004 16.3292 77.7876 15.892 77.562 15.2609L76.61 12.9339H69.6997C69.229 14.0903 68.961 14.7637 68.8958 14.9506C68.8341 15.1392 68.8041 15.2432 68.8041 15.2609C68.5785 15.966 68.4657 16.4226 68.4657 16.6288C68.4657 16.9497 68.6032 17.1612 68.8817 17.2635C69.1638 17.3622 69.6961 17.4115 70.4824 17.4115H70.6516C70.8349 17.4115 70.9636 17.445 71.0394 17.5103C71.1135 17.5773 71.1611 17.7412 71.1805 18.0039C71.1805 18.1696 71.1381 18.3124 71.0535 18.434C70.9689 18.5556 70.8437 18.6173 70.6798 18.6173C69.4846 18.5609 68.4674 18.5327 67.6265 18.5327C67.0289 18.5327 66.1246 18.5609 64.9118 18.6173ZM70.2285 11.7281H76.1094L73.2818 4.53567H73.1972L70.2285 11.7281Z" fill="#051052"/>
</g>
</g>
</g>
<g id="Group_12">
<g id="Group_13">
<g id="Group_14">
<path id="Vector_8" d="M87.6984 18.6173C87.5291 18.6173 87.4022 18.5556 87.3176 18.434C87.233 18.3124 87.1907 18.1696 87.1907 18.0039C87.2101 17.7218 87.2665 17.5526 87.3599 17.4962C87.4551 17.4398 87.5662 17.4115 87.6984 17.4115C87.8288 17.4115 87.9134 17.4115 87.9522 17.4115C88.511 17.4115 88.92 17.2688 89.1792 16.9814C89.4418 16.6905 89.6516 16.3644 89.8067 16.0013C89.9654 15.6346 90.0747 15.3878 90.1311 15.2609L95.0318 3.66835C95.1447 3.38629 95.2011 3.16417 95.2011 2.99847C95.2011 2.66 95.0689 2.41849 94.8062 2.27217C94.5471 2.12233 94.1821 2.00069 93.7132 1.9055C93.3977 1.84909 93.202 1.79268 93.128 1.73626C93.0522 1.67985 93.0151 1.52296 93.0151 1.26382C93.0151 1.03817 93.0751 0.888332 93.1985 0.81253C93.3201 0.73849 93.5105 0.699707 93.7696 0.699707C94.7039 0.699707 95.4479 0.770221 95.9979 0.911249C96.5479 1.05228 97.0274 1.33257 97.4364 1.75037C97.8489 2.16993 98.2332 2.80808 98.5857 3.66835L103.289 15.2609C103.571 15.966 103.841 16.4984 104.1 16.8545C104.363 17.2071 104.756 17.3939 105.278 17.4115H105.447C105.634 17.4115 105.764 17.445 105.835 17.5103C105.909 17.5773 105.956 17.7412 105.976 18.0039C105.976 18.1696 105.933 18.3124 105.849 18.434C105.768 18.5556 105.644 18.6173 105.475 18.6173C104.28 18.5609 103.254 18.5327 102.394 18.5327C101.274 18.5327 100.118 18.5609 98.9242 18.6173C98.755 18.6173 98.6281 18.5556 98.5434 18.434C98.4588 18.3124 98.4165 18.1696 98.4165 18.0039C98.4341 17.7412 98.4817 17.5773 98.5575 17.5103C98.6316 17.445 98.7638 17.4115 98.9524 17.4115C99.587 17.4115 100.033 17.3534 100.292 17.2353C100.555 17.1136 100.687 16.8933 100.687 16.5724C100.687 16.3292 100.574 15.892 100.349 15.2609L99.3967 12.9339H92.4863C92.0156 14.0903 91.7476 14.7637 91.6824 14.9506C91.6207 15.1392 91.5908 15.2432 91.5908 15.2609C91.3651 15.966 91.2523 16.4226 91.2523 16.6288C91.2523 16.9497 91.3898 17.1612 91.6683 17.2635C91.9504 17.3622 92.4828 17.4115 93.269 17.4115H93.4382C93.6216 17.4115 93.7502 17.445 93.826 17.5103C93.9001 17.5773 93.9477 17.7412 93.9671 18.0039C93.9671 18.1696 93.9248 18.3124 93.8401 18.434C93.7555 18.5556 93.6304 18.6173 93.4664 18.6173C92.2712 18.5609 91.254 18.5327 90.4132 18.5327C89.8156 18.5327 88.9112 18.5609 87.6984 18.6173ZM93.0151 11.7281H98.896L96.0684 4.53567H95.9838L93.0151 11.7281Z" fill="#051052"/>
</g>
</g>
</g>
<g id="Group_15">
<g id="Group_16">
<g id="Group_17">
<path id="Vector_9" d="M112.046 18.6173C111.877 18.6173 111.75 18.5556 111.665 18.434C111.584 18.3124 111.545 18.1696 111.545 18.0039C111.563 17.7218 111.618 17.5526 111.708 17.4962C111.801 17.4398 111.979 17.4115 112.243 17.4115C112.783 17.4115 113.178 17.3164 113.428 17.1224C113.682 16.925 113.837 16.6923 113.893 16.4244C113.95 16.1529 113.987 15.765 114.006 15.2609L114.063 4.1408C114.063 3.58197 114.001 3.15889 113.879 2.87154C113.756 2.58067 113.564 2.37089 113.301 2.24397C113.042 2.11352 112.67 2.00069 112.187 1.9055C111.871 1.84909 111.676 1.79268 111.602 1.73626C111.526 1.67985 111.489 1.52296 111.489 1.26382C111.489 1.03817 111.547 0.888332 111.665 0.81253C111.787 0.73849 111.979 0.699707 112.243 0.699707C113.4 0.699707 114.313 0.780798 114.986 0.939455C115.658 1.09987 116.25 1.38369 116.763 1.79268C117.275 2.20166 117.839 2.82747 118.456 3.66835L126.128 13.7448H126.212L126.156 4.1408C126.136 3.63838 126.099 3.25232 126.043 2.98436C125.987 2.71288 125.832 2.48019 125.578 2.28627C125.327 2.08883 124.932 1.99012 124.393 1.99012H124.224C124.035 1.99012 123.899 1.95838 123.815 1.8914C123.734 1.82617 123.684 1.66222 123.667 1.3978C123.667 1.23385 123.711 1.09106 123.801 0.967661C123.894 0.846024 124.016 0.784324 124.167 0.784324C125.361 0.840735 126.256 0.868941 126.854 0.868941C127.21 0.868941 127.892 0.851312 128.899 0.81253L129.484 0.784324C129.653 0.784324 129.78 0.846024 129.865 0.967661C129.95 1.09106 129.992 1.23385 129.992 1.3978C129.972 1.67985 129.916 1.84909 129.823 1.9055C129.727 1.96191 129.551 1.99012 129.294 1.99012C128.753 1.99012 128.356 2.08883 128.102 2.28627C127.848 2.48019 127.693 2.71288 127.637 2.98436C127.584 3.25232 127.549 3.63838 127.531 4.1408L127.475 18.2507C127.455 18.4957 127.221 18.6173 126.769 18.6173C126.417 18.6173 126.145 18.4957 125.958 18.2507L115.41 4.1408H115.325L115.381 15.2609C115.399 15.765 115.434 16.1529 115.487 16.4244C115.544 16.6923 115.699 16.925 115.952 17.1224C116.206 17.3164 116.603 17.4115 117.144 17.4115H117.313C117.497 17.4115 117.631 17.445 117.715 17.5103C117.8 17.5773 117.851 17.7412 117.87 18.0039C117.87 18.1696 117.828 18.3124 117.744 18.434C117.659 18.5556 117.532 18.6173 117.363 18.6173C116.168 18.5609 115.263 18.5327 114.648 18.5327C114.276 18.5327 113.622 18.5504 112.688 18.5891L112.046 18.6173Z" fill="#0CC0DF"/>
</g>
</g>
</g>
</g>
</svg>
