<svg width="29" height="28" viewBox="0 0 29 28" fill="none" xmlns="http://www.w3.org/2000/svg">
<g id="message-circle">
<path id="Vector" d="M25 13.4167C25.004 14.9565 24.6443 16.4756 23.95 17.85C23.1268 19.4971 21.8614 20.8824 20.2954 21.8509C18.7293 22.8193 16.9246 23.3327 15.0833 23.3334C13.5435 23.3374 12.0245 22.9776 10.65 22.2834L4 24.5L6.21667 17.85C5.52242 16.4756 5.16265 14.9565 5.16667 13.4167C5.16738 11.5754 5.68071 9.77069 6.64917 8.20468C7.61763 6.63866 9.00296 5.3732 10.65 4.55003C12.0245 3.85579 13.5435 3.49602 15.0833 3.50003H15.6667C18.0984 3.63419 20.3952 4.66059 22.1173 6.3827C23.8394 8.10482 24.8658 10.4016 25 12.8334V13.4167Z" stroke="#008FBE" stroke-width="2" stroke-linecap="round" stroke-linejoin="round"/>
</g>
</svg>
