<svg width="28" height="28" viewBox="0 0 28 28" fill="none" xmlns="http://www.w3.org/2000/svg">
<g id="phone">
<path id="Vector" d="M25.6676 19.7408V23.2408C25.669 23.5657 25.6024 23.8873 25.4722 24.185C25.3421 24.4827 25.1512 24.7499 24.9117 24.9696C24.6723 25.1893 24.3896 25.3565 24.0819 25.4606C23.7741 25.5647 23.4479 25.6033 23.1243 25.5741C19.5343 25.184 16.0858 23.9573 13.056 21.9924C10.2371 20.2012 7.84721 17.8113 6.05598 14.9924C4.08429 11.9488 2.85726 8.48359 2.47431 4.87743C2.44516 4.55481 2.4835 4.22965 2.5869 3.92266C2.69029 3.61567 2.85648 3.33357 3.07487 3.09432C3.29327 2.85508 3.55909 2.66393 3.8554 2.53304C4.15172 2.40215 4.47204 2.3344 4.79598 2.3341H8.29598C8.86217 2.32852 9.41107 2.52902 9.84037 2.89822C10.2697 3.26742 10.5501 3.78012 10.6293 4.34076C10.777 5.46084 11.051 6.56061 11.446 7.6191C11.6029 8.03667 11.6369 8.4905 11.5439 8.92679C11.4508 9.36308 11.2347 9.76356 10.921 10.0808L9.43931 11.5624C11.1001 14.4832 13.5185 16.9016 16.4393 18.5624L17.921 17.0808C18.2382 16.7671 18.6387 16.5509 19.075 16.4579C19.5112 16.3648 19.9651 16.3988 20.3826 16.5558C21.4411 16.9507 22.5409 17.2247 23.661 17.3724C24.2277 17.4524 24.7453 17.7378 25.1153 18.1745C25.4853 18.6112 25.6818 19.1686 25.6676 19.7408Z" stroke="#008FBE" stroke-width="2" stroke-linecap="round" stroke-linejoin="round"/>
</g>
</svg>
