<svg width="375" height="416" viewBox="0 0 375 416" fill="none" xmlns="http://www.w3.org/2000/svg">
<g clip-path="url(#clip0_5066_4477)">
<rect width="375" height="416" fill="#EBFAFF"/>
<g clip-path="url(#clip1_5066_4477)">
<path d="M341.398 303.913V294.626" stroke="#263238" stroke-miterlimit="10" stroke-linecap="round" stroke-linejoin="round"/>
<path d="M363.228 303.919H341.391V297.109H363.228V303.919Z" stroke="#263238" stroke-miterlimit="10" stroke-linecap="round" stroke-linejoin="round"/>
<path d="M363.236 303.913V294.626" stroke="#263238" stroke-miterlimit="10" stroke-linecap="round" stroke-linejoin="round"/>
<path d="M286.454 429.322H242.328V352.497H286.454V429.322Z" stroke="#263238" stroke-miterlimit="10" stroke-linecap="round" stroke-linejoin="round"/>
<path d="M330.434 429.323H286.309V324.019H330.434V429.323Z" stroke="#263238" stroke-miterlimit="10" stroke-linecap="round" stroke-linejoin="round"/>
<path d="M374.733 429.336H330.607V303.714H374.733V429.336Z" stroke="#263238" stroke-miterlimit="10" stroke-linecap="round" stroke-linejoin="round"/>
<path d="M338.811 311.623V424.526" stroke="#00E3B9" stroke-miterlimit="10" stroke-linecap="round" stroke-linejoin="round"/>
<path d="M348.435 311.623V424.526" stroke="#00E3B9" stroke-miterlimit="10" stroke-linecap="round" stroke-linejoin="round"/>
<path d="M358.115 311.623V424.526" stroke="#00E3B9" stroke-miterlimit="10" stroke-linecap="round" stroke-linejoin="round"/>
<path d="M367.74 311.623V424.526" stroke="#00E3B9" stroke-miterlimit="10" stroke-linecap="round" stroke-linejoin="round"/>
<path d="M293.615 329.464V339.932V350.457V360.982V371.451V381.975V392.5V402.969V413.494V424.018V424.187" stroke="#00E3B9" stroke-miterlimit="10" stroke-linecap="round" stroke-linejoin="round"/>
<path d="M303.24 329.464V339.932V350.457V360.982V371.451V381.975V392.5V402.969V413.494V424.018V424.187" stroke="#00E3B9" stroke-miterlimit="10" stroke-linecap="round" stroke-linejoin="round"/>
<path d="M312.92 329.464V339.932V350.457V360.982V371.451V381.975V392.5V402.969V413.494V424.018V424.187" stroke="#00E3B9" stroke-miterlimit="10" stroke-linecap="round" stroke-linejoin="round"/>
<path d="M322.545 329.464V339.932V350.457V360.982V371.451V381.975V392.5V402.969V413.494V424.018V424.187" stroke="#00E3B9" stroke-miterlimit="10" stroke-linecap="round" stroke-linejoin="round"/>
<path d="M293.616 329.464H295.473H304.535H313.54H322.545" stroke="#00E3B9" stroke-miterlimit="10" stroke-linecap="round" stroke-linejoin="round"/>
<path d="M293.616 339.932H295.473H304.535H313.54H322.545" stroke="#00E3B9" stroke-miterlimit="10" stroke-linecap="round" stroke-linejoin="round"/>
<path d="M293.616 350.457H295.473H304.535H313.54H322.545" stroke="#00E3B9" stroke-miterlimit="10" stroke-linecap="round" stroke-linejoin="round"/>
<path d="M293.616 360.982H295.473H304.535H313.54H322.545" stroke="#00E3B9" stroke-miterlimit="10" stroke-linecap="round" stroke-linejoin="round"/>
<path d="M293.616 371.45H295.473H304.535H313.54H322.545" stroke="#00E3B9" stroke-miterlimit="10" stroke-linecap="round" stroke-linejoin="round"/>
<path d="M293.616 381.975H295.473H304.535H313.54H322.545" stroke="#00E3B9" stroke-miterlimit="10" stroke-linecap="round" stroke-linejoin="round"/>
<path d="M293.616 392.5H295.473H304.535H313.54H322.545" stroke="#00E3B9" stroke-miterlimit="10" stroke-linecap="round" stroke-linejoin="round"/>
<path d="M293.616 402.969H295.473H304.535H313.54H322.545" stroke="#00E3B9" stroke-miterlimit="10" stroke-linecap="round" stroke-linejoin="round"/>
<path d="M293.616 413.493H295.473H304.535H313.54H322.545" stroke="#00E3B9" stroke-miterlimit="10" stroke-linecap="round" stroke-linejoin="round"/>
<path d="M246.621 358.844H279.996" stroke="#00E3B9" stroke-miterlimit="10" stroke-linecap="round" stroke-linejoin="round"/>
<path d="M246.621 369.312H279.996" stroke="#00E3B9" stroke-miterlimit="10" stroke-linecap="round" stroke-linejoin="round"/>
<path d="M246.621 379.837H279.996" stroke="#00E3B9" stroke-miterlimit="10" stroke-linecap="round" stroke-linejoin="round"/>
<path d="M246.621 390.362H279.996" stroke="#00E3B9" stroke-miterlimit="10" stroke-linecap="round" stroke-linejoin="round"/>
<path d="M246.621 400.83H279.996" stroke="#00E3B9" stroke-miterlimit="10" stroke-linecap="round" stroke-linejoin="round"/>
<path d="M246.621 411.355H279.996" stroke="#00E3B9" stroke-miterlimit="10" stroke-linecap="round" stroke-linejoin="round"/>
</g>
<g clip-path="url(#clip2_5066_4477)">
<path d="M279.975 479.619C279.647 481.263 278.926 481.724 279.385 482.513C279.451 482.645 279.516 482.776 279.582 482.908C279.975 483.697 280.369 484.815 281.877 485.276C283.648 485.802 292.239 486.262 294.075 485.999C295.911 485.736 296.96 484.026 297.092 482.579C297.223 481.132 296.37 480.211 296.501 478.567C296.633 476.922 297.879 476.462 298.01 475.344C298.075 474.226 297.026 472.647 297.026 471.529C297.026 469.227 296.96 471.726 296.501 458.571C296.239 451.073 294.468 449.429 296.501 440.944C297.223 437.853 305.289 382.274 305.289 382.274L280.5 383.787C280.5 383.787 280.107 393.258 279.647 404.44C279.057 418.647 278.467 435.682 278.401 439.497C278.336 447.258 279.057 458.177 279.647 467.846C279.91 471.989 280.303 474.818 279.647 476.396C279.582 476.593 279.516 476.725 279.516 476.922C279.516 477.909 280.303 477.975 279.975 479.619Z" fill="#00E3B9"/>
<mask id="mask0_5066_4477" style="mask-type:luminance" maskUnits="userSpaceOnUse" x="278" y="382" width="28" height="105">
<path d="M279.975 479.619C279.647 481.263 278.926 481.724 279.385 482.513C279.451 482.645 279.516 482.776 279.582 482.908C279.975 483.697 280.369 484.815 281.877 485.276C283.648 485.802 292.239 486.262 294.075 485.999C295.911 485.736 296.96 484.026 297.092 482.579C297.223 481.132 296.37 480.211 296.501 478.567C296.633 476.922 297.879 476.462 298.01 475.344C298.075 474.226 297.026 472.647 297.026 471.529C297.026 469.227 296.96 471.726 296.501 458.571C296.239 451.073 294.468 449.429 296.501 440.944C297.223 437.853 305.289 382.274 305.289 382.274L280.5 383.787C280.5 383.787 280.107 393.258 279.647 404.44C279.057 418.647 278.467 435.682 278.401 439.497C278.336 447.258 279.057 458.177 279.647 467.846C279.91 471.989 280.303 474.818 279.647 476.396C279.582 476.593 279.516 476.725 279.516 476.922C279.516 477.909 280.303 477.975 279.975 479.619Z" fill="white"/>
</mask>
<g mask="url(#mask0_5066_4477)">
<path opacity="0.3" d="M279.582 482.908C279.975 483.697 280.369 484.815 281.877 485.276C283.648 485.802 292.239 486.262 294.075 485.999C295.911 485.736 296.96 484.026 297.092 482.579C297.223 481.132 296.37 480.211 296.501 478.567C296.633 476.922 297.879 476.462 298.01 475.344C298.075 474.226 297.026 472.647 297.026 471.529C297.026 469.227 296.96 471.726 296.501 458.571C296.239 451.073 294.468 449.429 296.501 440.944C297.223 437.853 305.289 382.274 305.289 382.274L280.5 383.787C280.5 383.787 280.107 393.258 279.647 404.44C282.599 416.871 286.074 430.552 287.386 432.854L285.353 436.406C285.353 436.406 290.271 447.785 290.271 449.166C290.271 450.547 288.566 463.373 288.042 466.07C287.517 468.766 290.271 466.859 290.271 469.095C290.337 471.134 290.599 481.198 279.582 482.908Z" fill="black"/>
</g>
<path d="M279.975 479.619C279.647 481.263 278.926 481.724 279.385 482.513C279.451 482.645 279.516 482.776 279.582 482.908C279.975 483.697 280.369 484.815 281.877 485.276C283.648 485.802 292.239 486.262 294.075 485.999C295.911 485.736 296.96 484.026 297.092 482.579C297.223 481.132 296.37 480.211 296.501 478.567C296.633 476.922 297.879 476.462 298.01 475.344C298.075 474.226 297.026 472.647 297.026 471.529C297.026 469.227 296.96 471.726 296.501 458.571C296.239 451.073 294.468 449.429 296.501 440.944C297.223 437.853 305.289 382.274 305.289 382.274L280.5 383.787C280.5 383.787 280.107 393.258 279.647 404.44C279.057 418.647 278.467 435.682 278.401 439.497C278.336 447.258 279.057 458.177 279.647 467.846C279.91 471.989 280.303 474.818 279.647 476.396C279.582 476.593 279.516 476.725 279.516 476.922C279.516 477.909 280.303 477.975 279.975 479.619Z" stroke="#263238" stroke-linecap="round" stroke-linejoin="round"/>
<path d="M281.878 401.678C281.878 401.678 284.894 404.308 287.518 403.848" stroke="#263238" stroke-linecap="round" stroke-linejoin="round"/>
<path d="M282.14 406.61C282.14 406.61 287.255 405.361 287.846 404.308" stroke="#263238" stroke-linecap="round" stroke-linejoin="round"/>
<path d="M282.861 383.656L307.387 382.143C307.387 382.143 308.896 437.656 308.699 440.748C308.109 449.232 310.207 450.877 311.716 458.375C314.404 471.53 314.076 468.964 314.404 471.332C314.601 472.45 315.913 474.029 316.044 475.147C316.175 476.265 314.929 476.726 315.126 478.37C315.257 480.014 316.241 480.935 316.372 482.382C316.503 483.829 315.781 485.605 313.945 485.802C312.109 486 303.453 485.539 301.616 485.079C299.715 484.553 299.255 483.106 298.6 482.316C297.944 481.527 298.665 481.067 298.665 479.422C298.665 477.778 297.944 477.712 297.878 476.66C297.878 476.463 297.878 476.331 297.944 476.134C298.337 474.555 297.419 471.727 296.501 467.583C294.271 457.914 291.714 447.062 290.402 439.301C289.746 435.42 287.451 418.121 285.549 403.783C285.549 403.783 283.713 400.823 282.795 395.167" fill="#00E3B9"/>
<mask id="mask1_5066_4477" style="mask-type:luminance" maskUnits="userSpaceOnUse" x="282" y="382" width="35" height="104">
<path d="M282.861 383.656L307.387 382.143C307.387 382.143 308.896 437.656 308.699 440.748C308.109 449.232 310.207 450.877 311.716 458.375C314.404 471.53 314.076 468.964 314.404 471.332C314.601 472.45 315.913 474.029 316.044 475.147C316.175 476.265 314.929 476.726 315.126 478.37C315.257 480.014 316.241 480.935 316.372 482.382C316.503 483.829 315.781 485.605 313.945 485.802C312.109 486 303.453 485.539 301.616 485.079C299.715 484.553 299.255 483.106 298.6 482.316C297.944 481.527 298.665 481.067 298.665 479.422C298.665 477.778 297.944 477.712 297.878 476.66C297.878 476.463 297.878 476.331 297.944 476.134C298.337 474.555 297.419 471.727 296.501 467.583C294.271 457.914 291.714 447.062 290.402 439.301C289.746 435.42 287.451 418.121 285.549 403.783C285.549 403.783 283.713 400.823 282.795 395.167" fill="white"/>
</mask>
<g mask="url(#mask1_5066_4477)">
<path opacity="0.3" d="M307.387 384.117L307.584 392.404C307.584 392.404 301.551 392.996 295.124 392.404C287.058 391.681 282.139 388.063 282.139 388.063L282.795 383.656C282.795 383.656 291.976 386.156 296.501 385.761C301.092 385.498 305.354 384.906 307.387 384.117Z" fill="black"/>
</g>
<path d="M282.861 383.656L307.387 382.143C307.387 382.143 308.896 437.656 308.699 440.748C308.109 449.232 310.207 450.877 311.716 458.375C314.404 471.53 314.076 468.964 314.404 471.332C314.601 472.45 315.913 474.029 316.044 475.147C316.175 476.265 314.929 476.726 315.126 478.37C315.257 480.014 316.241 480.935 316.372 482.382C316.503 483.829 315.781 485.605 313.945 485.802C312.109 486 303.453 485.539 301.616 485.079C299.715 484.553 299.255 483.106 298.6 482.316C297.944 481.527 298.665 481.067 298.665 479.422C298.665 477.778 297.944 477.712 297.878 476.66C297.878 476.463 297.878 476.331 297.944 476.134C298.337 474.555 297.419 471.727 296.501 467.583C294.271 457.914 291.714 447.062 290.402 439.301C289.746 435.42 287.451 418.121 285.549 403.783C285.549 403.783 283.713 400.823 282.795 395.167" stroke="#263238" stroke-linecap="round" stroke-linejoin="round"/>
<path d="M302.469 389.05C302.469 389.05 303.124 412.662 303.387 422.528C303.584 432.329 304.043 443.839 304.043 443.839C304.043 443.839 304.83 445.023 304.436 446.207C304.043 447.391 304.043 447.391 304.043 447.391L304.239 450.811C304.239 450.811 305.157 451.863 304.83 453.113C304.502 454.363 307.059 463.045 307.059 463.045L307.518 463.637C308.436 464.821 308.699 466.333 308.24 467.583L309.158 475.016C310.207 476.002 310.404 477.449 309.748 478.436L310.601 482.316C311.519 483.171 311.715 484.487 311.125 485.408L310.994 485.605" stroke="#263238" stroke-linecap="round" stroke-linejoin="round"/>
<path d="M260.039 345.507C260.694 346.954 266.269 350.769 266.269 350.769C266.269 350.111 266.138 349.519 265.875 348.927C265.482 348.336 265.219 347.744 264.957 347.349C264.891 346.362 265.219 345.376 265.875 344.586C266.662 343.731 267.252 345.836 267.58 347.283C267.908 348.664 270.138 350.835 270.007 351.887C269.81 353.071 269.548 354.255 269.285 355.439C269.285 355.439 278.598 358.728 279.647 356.755C281.811 352.545 284.237 348.401 286.861 344.389C289.09 347.48 287.32 351.69 286.074 356.952C284.828 362.214 281.024 369.515 281.024 369.515C274.204 366.226 266.4 357.675 266.4 357.675C266.4 357.675 264.564 356.886 262.334 356.097C260.104 355.307 260.432 354.65 260.039 352.413C259.645 350.177 257.809 347.152 257.874 346.033C258.071 344.784 259.383 344.06 260.039 345.507Z" fill="white" stroke="#263238" stroke-linecap="round" stroke-linejoin="round"/>
<path d="M282.139 356.623C282.204 361.359 281.286 377.539 280.302 383.919L308.108 383.195V382.735C306.075 375.171 307.387 367.015 310.6 359.846C312.305 356.031 313.092 351.23 313.945 346.625C316.174 334.983 310.535 331.366 305.878 330.906C304.042 330.84 303.911 329.59 302.599 329.656C301.419 329.722 300.632 329.656 299.911 329.327C299.32 331.695 296.107 338.733 294.992 339.522C293.877 340.311 292.303 340.574 291.189 339.785C290.074 338.996 289.746 337.483 289.484 336.167C289.352 335.444 289.156 334.72 288.893 334.063C287.254 334.852 284.368 335.839 282.27 339.719C279.647 348.204 281.089 342.745 279.056 355.176C278.728 357.083 282.139 356.623 282.139 356.623Z" fill="white" stroke="#263238" stroke-linecap="round" stroke-linejoin="round"/>
<path d="M286.533 334.589L289.222 333.668C287.386 339.917 288.959 347.086 293.616 344.258C298.206 341.429 300.042 333.339 301.42 329.787C302.141 329.59 305.092 329.459 306.6 330.642C305.026 333.536 300.698 339.325 301.223 344.06C301.813 349.322 305.945 353.992 313.617 348.73C312.568 356.689 309.223 362.477 308.568 365.174C306.207 375.04 307.781 376.355 308.896 386.155C297.747 391.878 284.238 389.049 278.336 387.273C280.106 377.276 279.319 352.282 286.533 334.589Z" fill="#00E3B9"/>
<mask id="mask2_5066_4477" style="mask-type:luminance" maskUnits="userSpaceOnUse" x="278" y="329" width="36" height="61">
<path d="M286.533 334.589L289.222 333.668C287.386 339.917 288.959 347.086 293.616 344.258C298.206 341.429 300.042 333.339 301.42 329.787C302.141 329.59 305.092 329.459 306.6 330.642C305.026 333.536 300.698 339.325 301.223 344.06C301.813 349.322 305.945 353.992 313.617 348.73C312.568 356.689 309.223 362.477 308.568 365.174C306.207 375.04 307.781 376.355 308.896 386.155C297.747 391.878 284.238 389.049 278.336 387.273C280.106 377.276 279.319 352.282 286.533 334.589Z" fill="white"/>
</mask>
<g mask="url(#mask2_5066_4477)">
<path opacity="0.3" d="M303.518 376.421C303.518 376.421 285.352 384.379 282.729 376.684C287.516 377.736 292.435 377.933 297.288 377.276L303.518 376.421Z" fill="black"/>
</g>
<mask id="mask3_5066_4477" style="mask-type:luminance" maskUnits="userSpaceOnUse" x="278" y="329" width="36" height="61">
<path d="M286.533 334.589L289.222 333.668C287.386 339.917 288.959 347.086 293.616 344.258C298.206 341.429 300.042 333.339 301.42 329.787C302.141 329.59 305.092 329.459 306.6 330.642C305.026 333.536 300.698 339.325 301.223 344.06C301.813 349.322 305.945 353.992 313.617 348.73C312.568 356.689 309.223 362.477 308.568 365.174C306.207 375.04 307.781 376.355 308.896 386.155C297.747 391.878 284.238 389.049 278.336 387.273C280.106 377.276 279.319 352.282 286.533 334.589Z" fill="white"/>
</mask>
<g mask="url(#mask3_5066_4477)">
<path opacity="0.3" d="M309.945 359.189L296.764 348.665C296.764 348.665 294.141 355.9 301.158 360.044C305.945 362.872 309.945 359.189 309.945 359.189Z" fill="black"/>
</g>
<path d="M286.533 334.589L289.222 333.668C287.386 339.917 288.959 347.086 293.616 344.258C298.206 341.429 300.042 333.339 301.42 329.787C302.141 329.59 305.092 329.459 306.6 330.642C305.026 333.536 300.698 339.325 301.223 344.06C301.813 349.322 305.945 353.992 313.617 348.73C312.568 356.689 309.223 362.477 308.568 365.174C306.207 375.04 307.781 376.355 308.896 386.155C297.747 391.878 284.238 389.049 278.336 387.273C280.106 377.276 279.319 352.282 286.533 334.589Z" stroke="#263238" stroke-linecap="round" stroke-linejoin="round"/>
<path d="M282.73 376.421C282.927 377.407 283.648 378.262 284.566 378.723" stroke="#263238" stroke-linecap="round" stroke-linejoin="round"/>
<path d="M287.516 379.381C293.025 379.907 298.665 378.789 303.518 376.158" stroke="#263238" stroke-linecap="round" stroke-linejoin="round"/>
<path d="M262.006 334.786L267.645 350.046C267.842 350.572 267.777 351.23 267.514 351.69L266.465 353.4C265.94 354.255 264.104 354.519 263.317 353.927C263.055 353.729 262.792 353.466 262.661 353.137L257.021 337.944C256.694 337.22 256.89 336.365 257.415 335.839L259.186 334.129C259.907 333.471 260.956 333.471 261.612 334.195C261.874 334.392 261.94 334.589 262.006 334.786Z" fill="#263238"/>
<path d="M313.617 338.93C313.617 338.93 313.617 341.692 311.978 345.507C309.223 352.018 298.796 368.264 296.501 369.383C294.206 370.501 270.794 357.872 269.154 356.096C267.449 354.386 268.433 352.084 268.433 352.084C268.433 352.084 268.433 353.729 267.056 353.4C266.203 353.202 266.925 350.506 266.925 350.506C266.925 350.506 265.351 349.387 266.859 347.283C266.859 347.283 264.695 347.283 264.892 345.638C264.957 344.981 271.253 344.915 272.237 346.691C273.417 348.927 274.597 354.649 274.597 354.649C274.597 354.649 289.812 358.596 293.025 359.188L301.223 341.1" fill="white"/>
<path d="M313.617 338.93C313.617 338.93 313.617 341.692 311.978 345.507C309.223 352.018 298.796 368.264 296.501 369.383C294.206 370.501 270.794 357.872 269.154 356.096C267.449 354.386 268.433 352.084 268.433 352.084C268.433 352.084 268.433 353.729 267.056 353.4C266.203 353.202 266.925 350.506 266.925 350.506C266.925 350.506 265.351 349.387 266.859 347.283C266.859 347.283 264.695 347.283 264.892 345.638C264.957 344.981 271.253 344.915 272.237 346.691C273.417 348.927 274.597 354.649 274.597 354.649C274.597 354.649 289.812 358.596 293.025 359.188L301.223 341.1" stroke="#263238" stroke-linecap="round" stroke-linejoin="round"/>
<path d="M268.893 357.083C268.434 355.9 267.581 354.847 266.532 354.124C265.286 353.532 263.581 353.334 262.269 353.071C262.269 353.071 261.22 348.599 260.63 348.73C258.859 349.125 260.236 353.203 260.236 353.203" fill="white"/>
<path d="M268.893 357.083C268.434 355.9 267.581 354.847 266.532 354.124C265.286 353.532 263.581 353.334 262.269 353.071C262.269 353.071 261.22 348.599 260.63 348.73C258.859 349.125 260.236 353.203 260.236 353.203" stroke="#263238" stroke-linecap="round" stroke-linejoin="round"/>
<path d="M258.202 347.151C258.661 346.691 259.382 346.625 259.907 347.085C260.76 347.875 262.006 350.045 263.383 351.163" stroke="#263238" stroke-linecap="round" stroke-linejoin="round"/>
<path d="M270.334 351.822C269.941 350.967 267.317 349.585 266.793 351.361" stroke="#263238" stroke-linecap="round" stroke-linejoin="round"/>
<path d="M270.4 349.651C270.4 349.651 267.318 347.941 266.728 350.046" stroke="#263238" stroke-linecap="round" stroke-linejoin="round"/>
<path d="M269.941 347.612C269.941 347.612 268.63 347.349 268.368 347.349C267.318 347.217 266.269 347.086 265.679 347.086" stroke="#263238" stroke-linecap="round" stroke-linejoin="round"/>
<path d="M285.484 403.849C285.484 403.849 289.55 400.231 291.977 399.508L285.484 403.849Z" fill="#00E3B9"/>
<path d="M285.484 403.849C285.484 403.849 289.55 400.231 291.977 399.508" stroke="#263238" stroke-linecap="round" stroke-linejoin="round"/>
<path d="M289.484 333.339C289.484 333.339 286.73 344.192 291.19 344.981C297.223 346.099 301.42 329.722 301.42 329.722C300.502 329.656 300.371 329.261 299.584 328.801C299.584 328.801 292.829 342.35 289.484 333.339Z" fill="#263238"/>
<path d="M307.912 331.301C307.912 331.301 314.273 332.55 314.273 342.022C314.273 351.361 310.142 359.32 310.142 359.32C310.142 359.32 305.223 358.925 302.076 356.623C295.518 351.822 296.567 349.125 296.567 349.125L299.977 342.285C299.977 342.285 301.092 337.944 306.01 330.972L307.912 331.301Z" fill="#263238"/>
<path d="M286.139 334.918C282.663 344.784 282.532 348.402 281.942 352.94C281.942 352.94 278.531 352.282 278.072 351.559C278.072 351.559 279.712 343.534 281.483 339.391C282.532 336.694 284.04 335.773 286.139 334.918Z" fill="#263238"/>
<path d="M289.483 323.802C289.483 323.802 290.008 332.813 289.942 333.537C289.877 334.918 288.893 336.694 289.811 337.746C290.729 338.799 292.369 338.864 293.615 338.338C294.861 337.812 295.844 336.76 296.697 335.707C298.271 333.8 299.582 331.695 300.697 329.525C300.369 329.261 299.517 328.275 299.123 326.894L298.927 326.104C298.664 324.263 298.73 322.355 298.992 320.514C299.451 316.83 300.566 313.805 300.566 313.805L289.483 323.802Z" fill="white" stroke="#263238" stroke-linecap="round" stroke-linejoin="round"/>
<path d="M298.795 332.353C296.893 333.01 295.45 333.668 294.27 334.26L298.795 332.353Z" fill="#263238"/>
<path d="M298.795 332.353C296.893 333.01 295.45 333.668 294.27 334.26" stroke="#263238" stroke-linecap="round" stroke-linejoin="round"/>
<path d="M300.174 302.032C300.174 302.032 305.748 305.255 302.862 313.608C299.977 321.961 293.55 331.301 287.713 330.051C281.877 328.802 280.369 317.16 283.451 309.398C286.533 301.637 294.403 297.296 300.174 302.032Z" fill="white" stroke="#263238" stroke-linecap="round" stroke-linejoin="round"/>
<path d="M283.516 317.423C283.451 318.08 283.713 318.672 284.106 318.738C284.5 318.738 284.828 318.212 284.828 317.554C284.893 316.896 284.631 316.304 284.238 316.304C283.91 316.239 283.582 316.765 283.516 317.423Z" fill="#263238"/>
<path d="M289.221 317.159C289.156 317.817 289.418 318.409 289.811 318.409C290.205 318.409 290.533 317.882 290.533 317.225C290.598 316.567 290.336 315.975 289.943 315.909C289.549 315.975 289.287 316.501 289.221 317.159Z" fill="#263238"/>
<path d="M287.057 303.478C290.795 299.795 295.91 298.677 299.976 302.031C299.976 302.031 305.551 305.254 302.665 313.607C301.944 315.581 301.091 317.554 300.107 319.395L299.976 319.461C299.976 319.461 301.813 317.62 294.533 313.607C292.172 312.226 288.631 303.741 287.057 303.478Z" fill="#263238" stroke="#263238" stroke-linecap="round" stroke-linejoin="round"/>
<path d="M292.894 306.175C292.894 306.175 292.37 300.321 288.369 300.123C286.271 299.992 283.451 302.886 283.123 304.333C282.664 306.372 281.025 308.016 278.926 308.411C278.926 308.411 280.106 312.357 282.402 312.62C286.14 313.081 288.107 312.226 290.534 308.871C291.255 307.951 291.976 307.03 292.829 306.175H292.894Z" fill="#263238" stroke="#263238" stroke-linecap="round" stroke-linejoin="round"/>
<path d="M298.927 317.357C298.927 317.357 301.157 312.819 303.124 317.817C304.37 320.975 299.452 323.474 297.747 322.619" fill="white"/>
<path d="M298.927 317.357C298.927 317.357 301.157 312.819 303.124 317.817C304.37 320.975 299.452 323.474 297.747 322.619" stroke="#263238" stroke-linecap="round" stroke-linejoin="round"/>
<path d="M285.746 314.594C286.533 315.449 286.795 316.567 286.599 317.685C286.402 318.869 286.008 320.053 285.418 321.04L288.238 321.96" stroke="#263238" stroke-linecap="round" stroke-linejoin="round"/>
<path d="M290.73 324.065C289.812 324.986 288.5 325.249 287.32 324.855" stroke="#263238" stroke-linecap="round" stroke-linejoin="round"/>
<path d="M293.812 314.528C293.812 314.528 291.845 312.358 289.484 313.41" stroke="#263238" stroke-linecap="round" stroke-linejoin="round"/>
<path d="M284.697 313.936C284.697 313.936 282.14 313.147 282.467 315.383" stroke="#263238" stroke-linecap="round" stroke-linejoin="round"/>
<path d="M298.993 319.856C299.452 319.921 299.846 319.527 300.042 319.132C300.239 318.737 300.305 318.277 300.501 317.817C300.698 317.422 301.092 317.027 301.551 317.093" fill="#263238"/>
<path d="M298.993 319.856C299.452 319.921 299.846 319.527 300.042 319.132C300.239 318.737 300.305 318.277 300.501 317.817C300.698 317.422 301.092 317.027 301.551 317.093" stroke="#263238" stroke-linecap="round" stroke-linejoin="round"/>
<path d="M290.796 301.834C291.058 300.65 291.517 299.532 292.107 298.48C292.107 298.48 291.058 298.217 290.468 298.085C290.599 299.269 290.73 300.716 290.796 301.834Z" fill="#263238" stroke="#263238" stroke-linecap="round" stroke-linejoin="round"/>
<path d="M289.681 329.788L289.616 331.761C290.009 331.958 290.468 332.024 290.993 331.958C293.485 331.695 296.043 326.039 296.174 325.71L296.108 325.776C293.223 329.064 290.993 329.722 289.681 329.788Z" fill="#263238"/>
<g clip-path="url(#clip3_5066_4477)">
<path d="M264.252 317.652L262.559 328.309" stroke="#00E3B9" stroke-miterlimit="10"/>
<path d="M270.725 321.387L263.605 330.001" stroke="#00E3B9" stroke-miterlimit="10"/>
<path d="M271.82 328.707L265.199 331.296" stroke="#00E3B9" stroke-miterlimit="10"/>
</g>
</g>
<g clip-path="url(#clip4_5066_4477)">
<path d="M-39.9473 349.198H35.7434C35.7434 343.914 31.4888 339.66 26.2049 339.66C23.8031 339.66 21.6758 340.552 20.0289 341.993C18.1761 336.64 13.1666 332.798 7.19645 332.798C-0.283409 332.798 -6.39082 338.905 -6.39082 346.385V346.454C-7.28291 345.356 -8.58674 344.601 -10.1651 344.601C-11.4689 344.601 -12.6355 345.15 -13.5276 345.973C-14.2138 340.689 -18.7429 336.503 -24.2327 336.503C-30.0656 336.503 -34.8692 341.238 -34.9378 347.14C-35.4868 346.728 -36.1044 346.522 -36.7906 346.522C-38.3689 346.522 -39.7414 347.689 -39.9473 349.198Z" stroke="#A8A8A8" stroke-miterlimit="10"/>
</g>
<g clip-path="url(#clip5_5066_4477)">
<path d="M68.8832 296.378C70.6194 295.799 72.4383 295.469 74.3399 295.469C83.3518 295.469 90.7101 302.827 90.7101 311.839V311.922C91.7849 310.599 93.3558 309.689 95.2574 309.689C96.8283 309.689 98.2338 310.351 99.3086 311.343C99.9701 304.977 105.427 299.933 112.041 299.933C119.151 299.933 124.856 305.638 124.939 312.666C125.6 312.17 126.344 311.922 127.171 311.922C129.073 311.922 130.726 313.327 130.974 315.146H39.8633C39.8633 308.78 44.9893 303.654 51.3555 303.654C54.1665 303.654 56.8122 304.729 58.7965 306.465C59.6233 304.067 61.0288 301.918 62.765 300.181" stroke="#A8A8A8" stroke-miterlimit="10" stroke-linecap="round" stroke-linejoin="round"/>
</g>
<g clip-path="url(#clip6_5066_4477)">
<path d="M125.102 378.522V390.173L156.691 365.618L125.102 378.522Z" fill="#00E3B9" stroke="#263238" stroke-miterlimit="10" stroke-linecap="round" stroke-linejoin="round"/>
<path d="M125.101 378.522L157.422 365.249L113.328 369.895L125.101 378.522Z" fill="#00E3B9" stroke="#263238" stroke-miterlimit="10" stroke-linecap="round" stroke-linejoin="round"/>
<path d="M128.904 380.955L144.114 392.311L157.423 365.249L128.904 380.955Z" fill="#00E3B9" stroke="#263238" stroke-miterlimit="10" stroke-linecap="round" stroke-linejoin="round"/>
<path d="M128.904 380.955L125.102 390.172L133.218 384.2L128.904 380.955Z" fill="#00E3B9" stroke="#263238" stroke-miterlimit="10" stroke-linecap="round" stroke-linejoin="round"/>
<path d="M5.32434 474.973C12.1249 454.473 10.8818 442.159 21.9236 422.323C24.1904 418.341 35.2322 399.317 51.0271 392.533C59.2902 389.141 64.482 394.376 62.3614 398.063C57.6814 406.322 40.3509 396.441 57.6814 386.634C73.6957 377.564 107.845 395.261 123.786 390.173" stroke="#263238" stroke-linecap="round" stroke-linejoin="round" stroke-dasharray="2 2"/>
<path d="M125.176 389.731C125.395 389.657 125.615 389.509 125.834 389.436" stroke="#263238" stroke-linecap="round" stroke-linejoin="round"/>
</g>
</g>
<defs>
<clipPath id="clip0_5066_4477">
<rect width="375" height="416" fill="white"/>
</clipPath>
<clipPath id="clip1_5066_4477">
<rect width="132.995" height="135.247" fill="white" transform="matrix(-1 0 0 1 375 294.345)"/>
</clipPath>
<clipPath id="clip2_5066_4477">
<rect width="59.7429" height="204.161" fill="white" transform="matrix(-1 0 0 1 316.699 297.756)"/>
</clipPath>
<clipPath id="clip3_5066_4477">
<rect width="9.60865" height="13.8929" fill="white" transform="matrix(-1 0 0 1 271.92 317.603)"/>
</clipPath>
<clipPath id="clip4_5066_4477">
<rect width="76.4456" height="17.087" fill="white" transform="translate(-40.3594 332.455)"/>
</clipPath>
<clipPath id="clip5_5066_4477">
<rect width="92.0204" height="20.5868" fill="white" transform="translate(39.4492 295.056)"/>
</clipPath>
<clipPath id="clip6_5066_4477">
<rect width="154" height="114" fill="white" transform="translate(3.78906 364.88)"/>
</clipPath>
</defs>
</svg>
