<svg width="409" height="310" viewBox="0 0 409 310" fill="none" xmlns="http://www.w3.org/2000/svg">
<g clip-path="url(#clip0_4017_165)">
<rect x="0.879395" y="0.3125" width="408" height="309" rx="12" fill="url(#paint0_linear_4017_165)"/>
<g clip-path="url(#clip1_4017_165)">
<path d="M370.015 49.0461H39.7443V309.046H370.015V49.0461Z" fill="#BCCCFD"/>
<path d="M370.015 78.5325H39.7443V309.046H370.015V78.5325Z" fill="white"/>
<path d="M51.5211 68.1255C54.1993 68.1255 56.3703 65.9511 56.3703 63.2689C56.3703 60.5867 54.1993 58.4124 51.5211 58.4124C48.8429 58.4124 46.6718 60.5867 46.6718 63.2689C46.6718 65.9511 48.8429 68.1255 51.5211 68.1255Z" fill="white"/>
<path d="M76.8066 63.2689C76.8066 65.8707 74.7283 68.1255 71.9573 68.1255C69.3595 68.1255 67.108 66.0441 67.108 63.2689C67.108 60.6672 69.1863 58.4124 71.9573 58.4124C74.7283 58.4124 76.8066 60.4937 76.8066 63.2689Z" fill="white"/>
<path d="M97.416 63.2689C97.416 65.8707 95.3377 68.1255 92.5667 68.1255C89.9689 68.1255 87.7175 66.0441 87.7175 63.2689C87.7175 60.6672 89.7957 58.4124 92.5667 58.4124C95.1646 58.4124 97.416 60.4937 97.416 63.2689Z" fill="white"/>
<path d="M256.403 71.9414H120.45C115.947 71.9414 112.137 68.299 112.137 63.6158C112.137 59.1062 115.774 55.2903 120.45 55.2903H256.403C260.906 55.2903 264.716 58.9327 264.716 63.6158C264.716 68.1255 260.906 71.9414 256.403 71.9414Z" fill="white"/>
<path d="M349.925 71.9414H285.499C280.996 71.9414 277.186 68.299 277.186 63.6158C277.186 59.1062 280.823 55.2903 285.499 55.2903H349.925C354.428 55.2903 358.238 58.9327 358.238 63.6158C358.238 68.1255 354.428 71.9414 349.925 71.9414Z" fill="white"/>
<path fill-rule="evenodd" clip-rule="evenodd" d="M237.476 157.096L234.23 168.992L234.179 169.203C227.931 170.196 223.881 171.79 223.881 173.588C223.881 176.601 235.285 179.046 249.354 179.046C263.422 179.046 274.827 176.601 274.827 173.588C274.827 171.79 270.776 170.196 264.528 169.203C264.513 169.132 264.496 169.061 264.477 168.992L261.231 157.092C260.7 155.153 258.691 154.003 256.723 154.421C254.488 154.894 251.61 155.393 249.354 155.393C247.097 155.393 244.219 154.898 241.985 154.421C240.016 154.003 238.007 155.149 237.476 157.096ZM237.531 171.168C237.542 171.049 237.578 170.933 237.634 170.828C237.691 170.722 237.767 170.629 237.86 170.553C237.953 170.478 238.059 170.421 238.174 170.386C238.288 170.352 238.409 170.341 238.528 170.353C241.803 170.687 245.478 170.873 249.354 170.873C252.969 170.881 256.582 170.708 260.18 170.353C260.42 170.328 260.66 170.401 260.847 170.554C261.034 170.707 261.153 170.927 261.177 171.168C261.201 171.408 261.129 171.648 260.976 171.835C260.823 172.022 260.602 172.141 260.362 172.165C257.021 172.503 253.287 172.692 249.354 172.692C245.42 172.692 241.686 172.503 238.346 172.165C238.227 172.153 238.111 172.118 238.006 172.061C237.9 172.005 237.807 171.928 237.731 171.835C237.656 171.743 237.599 171.636 237.564 171.522C237.53 171.407 237.518 171.287 237.531 171.168ZM232.978 186.324H240.256C240.739 186.324 241.202 186.516 241.543 186.857C241.884 187.198 242.076 187.661 242.076 188.144V191.783C242.076 193.23 241.501 194.619 240.477 195.642C239.453 196.666 238.065 197.241 236.617 197.241C235.169 197.241 233.781 196.666 232.757 195.642C231.734 194.619 231.159 193.23 231.159 191.783V188.144C231.159 187.661 231.35 187.198 231.692 186.857C232.033 186.516 232.496 186.324 232.978 186.324ZM227.52 188.144C227.52 187.507 227.629 186.892 227.829 186.324H227.52C227.037 186.324 226.574 186.132 226.233 185.791C225.892 185.45 225.7 184.987 225.7 184.505C225.7 184.022 225.892 183.559 226.233 183.218C226.574 182.877 227.037 182.685 227.52 182.685H240.256C241.585 182.685 242.869 183.17 243.866 184.049C244.862 184.928 245.504 186.141 245.671 187.46C248.073 186.734 250.635 186.734 253.036 187.46C253.203 186.141 253.845 184.928 254.842 184.049C255.839 183.17 257.122 182.685 258.451 182.685H271.188C271.67 182.685 272.133 182.877 272.474 183.218C272.815 183.559 273.007 184.022 273.007 184.505C273.007 184.987 272.815 185.45 272.474 185.791C272.133 186.132 271.67 186.324 271.188 186.324H270.878C271.078 186.892 271.188 187.507 271.188 188.144V191.783C271.188 194.195 270.229 196.509 268.523 198.216C266.817 199.922 264.503 200.88 262.09 200.88C259.677 200.88 257.363 199.922 255.657 198.216C253.951 196.509 252.993 194.195 252.993 191.783V191.273L252.228 191.018C250.362 190.397 248.345 190.397 246.479 191.018L245.715 191.273V191.783C245.715 194.195 244.756 196.509 243.05 198.216C241.344 199.922 239.03 200.88 236.617 200.88C234.204 200.88 231.89 199.922 230.184 198.216C228.478 196.509 227.52 194.195 227.52 191.783V188.144ZM258.451 186.324H265.729C266.212 186.324 266.675 186.516 267.016 186.857C267.357 187.198 267.549 187.661 267.549 188.144V191.783C267.549 193.23 266.974 194.619 265.95 195.642C264.926 196.666 263.538 197.241 262.09 197.241C260.642 197.241 259.254 196.666 258.23 195.642C257.207 194.619 256.632 193.23 256.632 191.783V188.144C256.632 187.661 256.823 187.198 257.165 186.857C257.506 186.516 257.969 186.324 258.451 186.324Z" fill="#9CB4FC"/>
<path d="M159.941 190.629C161.223 190.629 162.452 190.12 163.359 189.214C164.265 188.307 164.774 187.078 164.774 185.796C164.774 184.514 164.265 183.285 163.359 182.378C162.452 181.472 161.223 180.963 159.941 180.963C158.659 180.963 157.43 181.472 156.523 182.378C155.617 183.285 155.108 184.514 155.108 185.796C155.108 187.078 155.617 188.307 156.523 189.214C157.43 190.12 158.659 190.629 159.941 190.629ZM174.441 168.879C175.723 168.879 176.952 169.389 177.859 170.295C178.765 171.202 179.274 172.431 179.274 173.713V197.879C179.274 199.161 178.765 200.391 177.859 201.297C176.952 202.204 175.723 202.713 174.441 202.713H145.441C144.159 202.713 142.93 202.204 142.023 201.297C141.117 200.391 140.608 199.161 140.608 197.879V173.713C140.608 172.431 141.117 171.202 142.023 170.295C142.93 169.389 144.159 168.879 145.441 168.879H147.858V164.046C147.858 160.841 149.131 157.768 151.397 155.502C153.663 153.236 156.736 151.963 159.941 151.963C161.528 151.963 163.099 152.275 164.565 152.883C166.031 153.49 167.363 154.38 168.485 155.502C169.607 156.624 170.497 157.956 171.105 159.422C171.712 160.888 172.024 162.459 172.024 164.046V168.879H174.441ZM159.941 156.796C158.018 156.796 156.174 157.56 154.815 158.92C153.455 160.279 152.691 162.123 152.691 164.046V168.879H167.191V164.046C167.191 162.123 166.427 160.279 165.068 158.92C163.708 157.56 161.864 156.796 159.941 156.796Z" fill="#9CB4FC"/>
</g>
</g>
<defs>
<linearGradient id="paint0_linear_4017_165" x1="22.8794" y1="-18.6059" x2="387.615" y2="395.193" gradientUnits="userSpaceOnUse">
<stop stop-color="#CEF2F9"/>
<stop offset="1" stop-color="#E7F9FC"/>
</linearGradient>
<clipPath id="clip0_4017_165">
<rect x="0.879395" y="0.3125" width="408" height="309" rx="12" fill="white"/>
</clipPath>
<clipPath id="clip1_4017_165">
<rect width="330.27" height="260" fill="white" transform="translate(39.7443 49.0461)"/>
</clipPath>
</defs>
</svg>
