<svg width="153" height="49" viewBox="0 0 153 49" fill="none" xmlns="http://www.w3.org/2000/svg">
<rect x="0.0412598" y="0.3125" width="152" height="48" rx="3" fill="#051052"/>
<path d="M19.5129 21.875C19.4598 21.3788 19.2363 20.9924 18.8424 20.7159C18.4522 20.4394 17.9447 20.3011 17.3197 20.3011C16.8803 20.3011 16.5034 20.3674 16.189 20.5C15.8746 20.6326 15.6341 20.8125 15.4674 21.0398C15.3007 21.267 15.2155 21.5265 15.2117 21.8182C15.2117 22.0606 15.2666 22.2708 15.3765 22.4489C15.4901 22.6269 15.6435 22.7784 15.8367 22.9034C16.0299 23.0246 16.2439 23.1269 16.4788 23.2102C16.7136 23.2936 16.9504 23.3636 17.189 23.4205L18.2799 23.6932C18.7193 23.7955 19.1416 23.9337 19.5469 24.108C19.956 24.2822 20.3216 24.5019 20.6435 24.767C20.9693 25.0322 21.2269 25.3523 21.4163 25.7273C21.6057 26.1023 21.7004 26.5417 21.7004 27.0455C21.7004 27.7273 21.5261 28.3277 21.1776 28.8466C20.8291 29.3617 20.3254 29.7652 19.6663 30.0568C19.011 30.3447 18.2174 30.4886 17.2856 30.4886C16.3803 30.4886 15.5943 30.3485 14.9276 30.0682C14.2647 29.7879 13.7458 29.3788 13.3708 28.8409C12.9996 28.303 12.7988 27.6477 12.7685 26.875H14.8424C14.8727 27.2803 14.9977 27.6174 15.2174 27.8864C15.4371 28.1553 15.7231 28.3561 16.0754 28.4886C16.4314 28.6212 16.8291 28.6875 17.2685 28.6875C17.7269 28.6875 18.1284 28.6193 18.4731 28.483C18.8216 28.3428 19.0943 28.1496 19.2913 27.9034C19.4882 27.6534 19.5886 27.3617 19.5924 27.0284C19.5886 26.7254 19.4996 26.4754 19.3254 26.2784C19.1511 26.0777 18.9068 25.911 18.5924 25.7784C18.2818 25.642 17.9182 25.5208 17.5015 25.4148L16.1776 25.0739C15.2193 24.8277 14.4617 24.4545 13.9049 23.9545C13.3519 23.4508 13.0754 22.7822 13.0754 21.9489C13.0754 21.2633 13.261 20.6629 13.6322 20.1477C14.0072 19.6326 14.5166 19.233 15.1606 18.9489C15.8045 18.661 16.5337 18.517 17.3481 18.517C18.1738 18.517 18.8973 18.661 19.5185 18.9489C20.1435 19.233 20.6341 19.6288 20.9901 20.1364C21.3462 20.6402 21.5299 21.2197 21.5413 21.875H19.5129ZM23.4887 33.5852V21.5852H25.5114V23.0284H25.6307C25.7368 22.8163 25.8864 22.5909 26.0796 22.3523C26.2728 22.1098 26.5342 21.9034 26.8637 21.733C27.1932 21.5587 27.6137 21.4716 28.1251 21.4716C28.7993 21.4716 29.4073 21.6439 29.9489 21.9886C30.4944 22.3295 30.9262 22.8352 31.2444 23.5057C31.5664 24.1723 31.7273 24.9905 31.7273 25.9602C31.7273 26.9186 31.5701 27.733 31.2557 28.4034C30.9414 29.0739 30.5133 29.5852 29.9717 29.9375C29.43 30.2898 28.8164 30.4659 28.1307 30.4659C27.6307 30.4659 27.216 30.3826 26.8864 30.2159C26.5569 30.0492 26.2917 29.8485 26.091 29.6136C25.894 29.375 25.7406 29.1496 25.6307 28.9375H25.5455V33.5852H23.4887ZM25.5057 25.9489C25.5057 26.5133 25.5853 27.0076 25.7444 27.4318C25.9073 27.8561 26.1402 28.1875 26.4432 28.4261C26.7501 28.661 27.1213 28.7784 27.5569 28.7784C28.0114 28.7784 28.3921 28.6572 28.6989 28.4148C29.0057 28.1686 29.2368 27.8333 29.3921 27.4091C29.5512 26.9811 29.6307 26.4943 29.6307 25.9489C29.6307 25.4072 29.5531 24.9261 29.3978 24.5057C29.2425 24.0852 29.0114 23.7557 28.7046 23.517C28.3978 23.2784 28.0152 23.1591 27.5569 23.1591C27.1175 23.1591 26.7444 23.2746 26.4376 23.5057C26.1307 23.7367 25.8978 24.0606 25.7387 24.4773C25.5834 24.8939 25.5057 25.3845 25.5057 25.9489ZM37.3523 30.483C36.4773 30.483 35.7217 30.3011 35.0853 29.9375C34.4527 29.5701 33.966 29.0511 33.6251 28.3807C33.2842 27.7064 33.1137 26.9129 33.1137 26C33.1137 25.1023 33.2842 24.3144 33.6251 23.6364C33.9698 22.9545 34.4508 22.4242 35.0682 22.0455C35.6857 21.6629 36.4111 21.4716 37.2444 21.4716C37.7823 21.4716 38.2898 21.5587 38.7671 21.733C39.2482 21.9034 39.6724 22.1686 40.0398 22.5284C40.4111 22.8883 40.7027 23.3466 40.9148 23.9034C41.127 24.4564 41.233 25.1155 41.233 25.8807V26.5114H34.0796V25.125H39.2614C39.2576 24.7311 39.1724 24.3807 39.0057 24.0739C38.8391 23.7633 38.6061 23.5189 38.3069 23.3409C38.0114 23.1629 37.6667 23.0739 37.2728 23.0739C36.8523 23.0739 36.483 23.1761 36.1648 23.3807C35.8467 23.5814 35.5986 23.8466 35.4205 24.1761C35.2463 24.5019 35.1573 24.8598 35.1535 25.25V26.4602C35.1535 26.9678 35.2463 27.4034 35.4319 27.767C35.6175 28.1269 35.877 28.4034 36.2103 28.5966C36.5436 28.786 36.9338 28.8807 37.3807 28.8807C37.68 28.8807 37.9508 28.839 38.1932 28.7557C38.4357 28.6686 38.6459 28.5417 38.8239 28.375C39.002 28.2083 39.1364 28.0019 39.2273 27.7557L41.1478 27.9716C41.0266 28.4792 40.7955 28.9223 40.4546 29.3011C40.1175 29.6761 39.6857 29.9678 39.1592 30.1761C38.6326 30.3807 38.0304 30.483 37.3523 30.483ZM45.4844 30.4886C44.9314 30.4886 44.4333 30.3902 43.9901 30.1932C43.5507 29.9924 43.2022 29.697 42.9447 29.3068C42.6909 28.9167 42.564 28.4356 42.564 27.8636C42.564 27.3712 42.6549 26.964 42.8367 26.642C43.0185 26.3201 43.2666 26.0625 43.581 25.8693C43.8954 25.6761 44.2496 25.5303 44.6435 25.4318C45.0413 25.3295 45.4522 25.2557 45.8765 25.2102C46.3879 25.1572 46.8026 25.1098 47.1208 25.0682C47.439 25.0227 47.67 24.9545 47.814 24.8636C47.9617 24.7689 48.0356 24.6231 48.0356 24.4261V24.392C48.0356 23.964 47.9087 23.6326 47.6549 23.3977C47.4011 23.1629 47.0356 23.0455 46.5583 23.0455C46.0545 23.0455 45.6549 23.1553 45.3594 23.375C45.0678 23.5947 44.8708 23.8542 44.7685 24.1534L42.8481 23.8807C42.9996 23.3504 43.2496 22.9072 43.5981 22.5511C43.9466 22.1913 44.3727 21.9223 44.8765 21.7443C45.3803 21.5625 45.9371 21.4716 46.5469 21.4716C46.9674 21.4716 47.386 21.5208 47.8026 21.6193C48.2193 21.7178 48.6 21.8807 48.9447 22.108C49.2894 22.3314 49.5659 22.6364 49.7742 23.0227C49.9863 23.4091 50.0924 23.892 50.0924 24.4716V30.3125H48.1151V29.1136H48.0469C47.9219 29.3561 47.7458 29.5833 47.5185 29.7955C47.295 30.0038 47.0129 30.1723 46.6719 30.3011C46.3348 30.4261 45.939 30.4886 45.4844 30.4886ZM46.0185 28.9773C46.4314 28.9773 46.7894 28.8958 47.0924 28.733C47.3954 28.5663 47.6284 28.3466 47.7913 28.0739C47.9579 27.8011 48.0413 27.5038 48.0413 27.1818V26.1534C47.9769 26.2064 47.867 26.2557 47.7117 26.3011C47.5602 26.3466 47.3897 26.3864 47.2004 26.4205C47.011 26.4545 46.8235 26.4848 46.6379 26.5114C46.4522 26.5379 46.2913 26.5606 46.1549 26.5795C45.8481 26.6212 45.5735 26.6894 45.331 26.7841C45.0886 26.8788 44.8973 27.0114 44.7572 27.1818C44.617 27.3485 44.5469 27.5644 44.5469 27.8295C44.5469 28.2083 44.6852 28.4943 44.9617 28.6875C45.2382 28.8807 45.5905 28.9773 46.0185 28.9773ZM54.0356 27.5739L54.0299 25.0909H54.3594L57.4958 21.5852H59.8992L56.0413 25.8807H55.6151L54.0356 27.5739ZM52.1606 30.3125V18.6761H54.2174V30.3125H52.1606ZM57.6379 30.3125L54.7969 26.3409L56.1833 24.892L60.0981 30.3125H57.6379ZM69.5967 21.5852V23.1761H64.5796V21.5852H69.5967ZM65.8182 19.4943H67.8751V27.6875C67.8751 27.964 67.9167 28.1761 68.0001 28.3239C68.0872 28.4678 68.2008 28.5663 68.341 28.6193C68.4811 28.6723 68.6364 28.6989 68.8069 28.6989C68.9357 28.6989 69.0531 28.6894 69.1592 28.6705C69.269 28.6515 69.3523 28.6345 69.4092 28.6193L69.7557 30.2273C69.6459 30.2652 69.4887 30.3068 69.2842 30.3523C69.0834 30.3977 68.8372 30.4242 68.5455 30.4318C68.0304 30.447 67.5664 30.3693 67.1535 30.1989C66.7406 30.0246 66.4129 29.7557 66.1705 29.392C65.9319 29.0284 65.8145 28.5739 65.8182 28.0284V19.4943ZM75.0299 30.483C74.1776 30.483 73.439 30.2955 72.814 29.9205C72.189 29.5455 71.7041 29.0208 71.3594 28.3466C71.0185 27.6723 70.8481 26.8845 70.8481 25.983C70.8481 25.0814 71.0185 24.2917 71.3594 23.6136C71.7041 22.9356 72.189 22.4091 72.814 22.0341C73.439 21.6591 74.1776 21.4716 75.0299 21.4716C75.8822 21.4716 76.6208 21.6591 77.2458 22.0341C77.8708 22.4091 78.3538 22.9356 78.6947 23.6136C79.0394 24.2917 79.2117 25.0814 79.2117 25.983C79.2117 26.8845 79.0394 27.6723 78.6947 28.3466C78.3538 29.0208 77.8708 29.5455 77.2458 29.9205C76.6208 30.2955 75.8822 30.483 75.0299 30.483ZM75.0413 28.8352C75.5034 28.8352 75.8897 28.7083 76.2004 28.4545C76.511 28.197 76.742 27.8523 76.8935 27.4205C77.0488 26.9886 77.1265 26.5076 77.1265 25.9773C77.1265 25.4432 77.0488 24.9602 76.8935 24.5284C76.742 24.0928 76.511 23.7462 76.2004 23.4886C75.8897 23.2311 75.5034 23.1023 75.0413 23.1023C74.5678 23.1023 74.1738 23.2311 73.8594 23.4886C73.5488 23.7462 73.3159 24.0928 73.1606 24.5284C73.0091 24.9602 72.9333 25.4432 72.9333 25.9773C72.9333 26.5076 73.0091 26.9886 73.1606 27.4205C73.3159 27.8523 73.5488 28.197 73.8594 28.4545C74.1738 28.7083 74.5678 28.8352 75.0413 28.8352ZM85.0171 18.6761H87.5967L91.0512 27.108H91.1876L94.6421 18.6761H97.2217V30.3125H95.1989V22.3182H95.091L91.8751 30.2784H90.3637L87.1478 22.3011H87.0398V30.3125H85.0171V18.6761ZM103.29 30.483C102.415 30.483 101.659 30.3011 101.023 29.9375C100.39 29.5701 99.9035 29.0511 99.5626 28.3807C99.2217 27.7064 99.0512 26.9129 99.0512 26C99.0512 25.1023 99.2217 24.3144 99.5626 23.6364C99.9073 22.9545 100.388 22.4242 101.006 22.0455C101.623 21.6629 102.349 21.4716 103.182 21.4716C103.72 21.4716 104.227 21.5587 104.705 21.733C105.186 21.9034 105.61 22.1686 105.977 22.5284C106.349 22.8883 106.64 23.3466 106.852 23.9034C107.064 24.4564 107.171 25.1155 107.171 25.8807V26.5114H100.017V25.125H105.199C105.195 24.7311 105.11 24.3807 104.943 24.0739C104.777 23.7633 104.544 23.5189 104.244 23.3409C103.949 23.1629 103.604 23.0739 103.21 23.0739C102.79 23.0739 102.421 23.1761 102.102 23.3807C101.784 23.5814 101.536 23.8466 101.358 24.1761C101.184 24.5019 101.095 24.8598 101.091 25.25V26.4602C101.091 26.9678 101.184 27.4034 101.369 27.767C101.555 28.1269 101.814 28.4034 102.148 28.5966C102.481 28.786 102.871 28.8807 103.318 28.8807C103.617 28.8807 103.888 28.839 104.131 28.7557C104.373 28.6686 104.583 28.5417 104.761 28.375C104.939 28.2083 105.074 28.0019 105.165 27.7557L107.085 27.9716C106.964 28.4792 106.733 28.9223 106.392 29.3011C106.055 29.6761 105.623 29.9678 105.097 30.1761C104.57 30.3807 103.968 30.483 103.29 30.483Z" fill="white"/>
<path d="M123.041 29.3125L133.041 19.3125" stroke="white" stroke-width="2" stroke-linecap="round" stroke-linejoin="round"/>
<path d="M123.041 19.3125H133.041V29.3125" stroke="white" stroke-width="2" stroke-linecap="round" stroke-linejoin="round"/>
</svg>
