<svg width="343" height="216" viewBox="0 0 343 216" fill="none" xmlns="http://www.w3.org/2000/svg">
<g clip-path="url(#clip0_5017_7853)">
<rect width="343" height="216" rx="8" fill="#003B84"/>
<path d="M328.906 51.4749C347.199 48.7957 359.857 31.794 357.178 13.5004C354.499 -4.79316 337.497 -17.4512 319.204 -14.772C300.91 -12.0929 288.252 4.90885 290.931 23.2024C293.61 41.496 310.612 54.154 328.906 51.4749Z" stroke="#7592DB" stroke-opacity="0.13" stroke-miterlimit="10"/>
<path d="M337.856 53.8496C353.152 43.4622 357.132 22.6413 346.744 7.3449C336.357 -7.95152 315.536 -11.931 300.24 -1.54359C284.943 8.84384 280.964 29.6647 291.351 44.9611C301.739 60.2576 322.559 64.2371 337.856 53.8496Z" stroke="#7592DB" stroke-opacity="0.13" stroke-miterlimit="10"/>
<path d="M325.267 65.8317C342.693 59.6506 351.81 40.513 345.629 23.0866C339.447 5.66017 320.31 -3.456 302.883 2.72507C285.457 8.90613 276.341 28.0438 282.522 45.4702C288.703 62.8966 307.841 72.0128 325.267 65.8317Z" stroke="#7592DB" stroke-opacity="0.13" stroke-miterlimit="10"/>
<path d="M329.051 70.0447C344.09 59.2893 347.563 38.3785 336.808 23.3391C326.053 8.29968 305.142 4.82679 290.102 15.5822C275.063 26.3376 271.59 47.2484 282.345 62.2878C293.101 77.3272 314.012 80.8001 329.051 70.0447Z" stroke="#7592DB" stroke-opacity="0.13" stroke-miterlimit="10"/>
<path d="M329.668 75.2515C342.742 62.1775 342.742 40.9804 329.668 27.9065C316.594 14.8325 295.397 14.8325 282.323 27.9065C269.249 40.9804 269.249 62.1775 282.323 75.2515C295.397 88.3255 316.594 88.3255 329.668 75.2515Z" stroke="#7592DB" stroke-opacity="0.13" stroke-miterlimit="10"/>
<path d="M310.168 93.2176C328.243 89.3273 339.742 71.5207 335.852 53.4453C331.962 35.3699 314.155 23.8705 296.08 27.7607C278.005 31.6509 266.505 49.4576 270.395 67.533C274.286 85.6084 292.092 97.1078 310.168 93.2176Z" stroke="#7592DB" stroke-opacity="0.13" stroke-miterlimit="10"/>
<path d="M305.295 102.73C323.637 100.397 336.614 83.6363 334.281 65.2946C331.947 46.953 315.187 33.9757 296.845 36.3091C278.504 38.6425 265.526 55.4029 267.86 73.7446C270.193 92.0862 286.954 105.063 305.295 102.73Z" stroke="#7592DB" stroke-opacity="0.13" stroke-miterlimit="10"/>
<path d="M323.449 102.362C336.523 89.2879 336.523 68.0908 323.449 55.0168C310.375 41.9428 289.178 41.9428 276.104 55.0168C263.03 68.0908 263.03 89.2879 276.104 102.362C289.178 115.436 310.375 115.436 323.449 102.362Z" stroke="#7592DB" stroke-opacity="0.13" stroke-miterlimit="10"/>
<path d="M322.912 111.459C335.986 98.3854 335.986 77.1883 322.912 64.1143C309.838 51.0404 288.641 51.0404 275.567 64.1143C262.493 77.1883 262.493 98.3854 275.567 111.459C288.641 124.533 309.838 124.533 322.912 111.459Z" stroke="#7592DB" stroke-opacity="0.13" stroke-miterlimit="10"/>
<path d="M306.504 129.631C324.579 125.74 336.078 107.934 332.188 89.8584C328.298 71.783 310.491 60.2836 292.416 64.1738C274.341 68.064 262.841 85.8707 266.731 103.946C270.622 122.021 288.428 133.521 306.504 129.631Z" stroke="#7592DB" stroke-opacity="0.13" stroke-miterlimit="10"/>
<path d="M330.124 121.334C338.641 104.922 332.24 84.7145 315.829 76.1982C299.418 67.6819 279.21 74.0822 270.694 90.4935C262.177 106.905 268.577 127.113 284.989 135.629C301.4 144.145 321.608 137.745 330.124 121.334Z" stroke="#7592DB" stroke-opacity="0.13" stroke-miterlimit="10"/>
<path d="M331.784 130.224C340.301 113.813 333.901 93.6052 317.489 85.0889C301.078 76.5726 280.87 82.9728 272.354 99.3841C263.837 115.795 270.238 136.003 286.649 144.52C303.06 153.036 323.268 146.636 331.784 130.224Z" stroke="#7592DB" stroke-opacity="0.13" stroke-miterlimit="10"/>
<path d="M328.111 147.245C341.185 134.171 341.185 112.974 328.111 99.8996C315.037 86.8256 293.84 86.8256 280.766 99.8996C267.692 112.974 267.692 134.171 280.766 147.245C293.84 160.319 315.037 160.319 328.111 147.245Z" stroke="#7592DB" stroke-opacity="0.13" stroke-miterlimit="10"/>
<path d="M337.232 147.535C345.748 131.124 339.348 110.916 322.936 102.399C306.525 93.8831 286.317 100.283 277.801 116.695C269.285 133.106 275.685 153.314 292.096 161.83C308.508 170.346 328.715 163.946 337.232 147.535Z" stroke="#7592DB" stroke-opacity="0.13" stroke-miterlimit="10"/>
<path d="M335.018 164.036C348.092 150.962 348.092 129.765 335.018 116.691C321.944 103.617 300.746 103.617 287.673 116.691C274.599 129.765 274.599 150.962 287.673 164.036C300.746 177.11 321.944 177.11 335.018 164.036Z" stroke="#7592DB" stroke-opacity="0.13" stroke-miterlimit="10"/>
<path d="M334.773 175.877C350.007 165.399 353.862 144.555 343.384 129.322C332.906 114.088 312.062 110.233 296.829 120.711C281.595 131.189 277.74 152.033 288.218 167.266C298.696 182.5 319.54 186.355 334.773 175.877Z" stroke="#7592DB" stroke-opacity="0.13" stroke-miterlimit="10"/>
<path d="M353.914 161.649C357.048 143.428 344.817 126.116 326.596 122.982C308.374 119.848 291.062 132.078 287.928 150.3C284.794 168.521 297.025 185.833 315.247 188.967C333.468 192.101 350.78 179.871 353.914 161.649Z" stroke="#7592DB" stroke-opacity="0.13" stroke-miterlimit="10"/>
<path d="M334.816 195.615C352.752 191.128 363.655 172.95 359.168 155.013C354.68 137.076 336.502 126.173 318.565 130.661C300.628 135.148 289.726 153.327 294.213 171.263C298.7 189.2 316.879 200.103 334.816 195.615Z" stroke="#7592DB" stroke-opacity="0.13" stroke-miterlimit="10"/>
<path d="M346.67 200.508C363.584 193.04 371.242 173.275 363.774 156.36C356.306 139.446 336.54 131.788 319.626 139.256C302.712 146.724 295.054 166.49 302.522 183.404C309.99 200.318 329.756 207.976 346.67 200.508Z" stroke="#7592DB" stroke-opacity="0.13" stroke-miterlimit="10"/>
<path d="M347.107 208.884C365.201 205.077 376.783 187.323 372.976 169.229C369.169 151.135 351.414 139.554 333.32 143.361C315.227 147.168 303.645 164.922 307.452 183.016C311.259 201.11 329.013 212.691 347.107 208.884Z" stroke="#7592DB" stroke-opacity="0.13" stroke-miterlimit="10"/>
<path d="M366.975 209.327C382.144 198.756 385.872 177.89 375.301 162.722C364.731 147.553 343.865 143.825 328.696 154.395C313.527 164.966 309.8 185.832 320.37 201.001C330.941 216.169 351.806 219.897 366.975 209.327Z" stroke="#7592DB" stroke-opacity="0.13" stroke-miterlimit="10"/>
<path d="M363.178 219.728C381.256 215.844 392.761 198.04 388.876 179.963C384.992 161.886 367.188 150.38 349.111 154.265C331.033 158.15 319.528 175.953 323.413 194.03C327.297 212.108 345.101 223.613 363.178 219.728Z" stroke="#7592DB" stroke-opacity="0.13" stroke-miterlimit="10"/>
<g clip-path="url(#clip1_5017_7853)">
<path d="M124.997 238.457C145.969 223.379 150.759 194.146 135.696 173.164C120.633 152.181 91.4201 147.394 70.448 162.472C49.4759 177.55 44.6859 206.783 59.7493 227.766C74.8126 248.748 104.025 253.535 124.997 238.457Z" stroke="#C6C6D0" stroke-opacity="0.16" stroke-width="0.8974" stroke-miterlimit="10"/>
<path d="M99.5728 235.037C125.029 230.696 142.152 206.528 137.82 181.056C133.487 155.584 109.339 138.455 83.8829 142.796C58.4271 147.137 41.3033 171.305 45.636 196.777C49.9686 222.249 74.1169 239.378 99.5728 235.037Z" stroke="#C6C6D0" stroke-opacity="0.16" stroke-width="0.8974" stroke-miterlimit="10"/>
<path d="M131.694 184.999C136.034 159.527 118.917 135.361 93.4621 131.024C68.0075 126.687 43.8543 143.821 39.5144 169.293C35.1745 194.766 52.2914 218.931 77.746 223.268C103.201 227.605 127.354 210.472 131.694 184.999Z" stroke="#C6C6D0" stroke-opacity="0.16" stroke-width="0.8974" stroke-miterlimit="10"/>
<path d="M105.653 203.72C126.625 188.642 131.415 159.409 116.352 138.426C101.289 117.444 72.0763 112.657 51.1042 127.735C30.1321 142.813 25.3421 172.046 40.4055 193.028C55.4688 214.011 84.6813 218.798 105.653 203.72Z" stroke="#C6C6D0" stroke-opacity="0.16" stroke-width="0.8974" stroke-miterlimit="10"/>
<path d="M116.526 162.947C120.866 137.475 103.749 113.31 78.2941 108.973C52.8395 104.635 28.6863 121.769 24.3464 147.241C20.0065 172.714 37.1233 196.879 62.578 201.216C88.0326 205.553 112.186 188.42 116.526 162.947Z" stroke="#C6C6D0" stroke-opacity="0.16" stroke-width="0.8974" stroke-miterlimit="10"/>
<path d="M107.764 153.257C112.104 127.785 94.987 103.619 69.5324 99.2821C44.0778 94.945 19.9245 112.079 15.5846 137.551C11.2447 163.023 28.3616 187.189 53.8162 191.526C79.2709 195.863 103.424 178.729 107.764 153.257Z" stroke="#C6C6D0" stroke-opacity="0.16" stroke-width="0.8974" stroke-miterlimit="10"/>
<path d="M79.4581 174.496C100.43 159.418 105.22 130.185 90.1568 109.203C75.0934 88.2201 45.881 83.4334 24.9089 98.5114C3.93678 113.589 -0.8532 142.822 14.2101 163.805C29.2735 184.787 58.486 189.574 79.4581 174.496Z" stroke="#C6C6D0" stroke-opacity="0.16" stroke-width="0.8974" stroke-miterlimit="10"/>
<path d="M34.6323 174.661C60.1135 178.837 84.1571 161.55 88.3352 136.051C92.5134 110.553 75.2439 86.4969 49.7628 82.3217C24.2816 78.1464 0.237997 95.4327 -3.94016 120.932C-8.11832 146.431 9.15117 170.486 34.6323 174.661Z" stroke="#C6C6D0" stroke-opacity="0.16" stroke-width="0.8974" stroke-miterlimit="10"/>
<path d="M77.618 129.422C82.0098 103.958 64.9418 79.7576 39.4957 75.3686C14.0495 70.9797 -10.1388 88.0643 -14.5305 113.528C-18.9222 138.992 -1.85427 163.193 23.5919 167.582C49.038 171.971 73.2263 154.886 77.618 129.422Z" stroke="#C6C6D0" stroke-opacity="0.16" stroke-width="0.8974" stroke-miterlimit="10"/>
<path d="M21.23 162.026C47.0472 161.596 67.6321 140.304 67.2078 114.47C66.7835 88.6362 45.5105 68.0423 19.6934 68.4727C-6.12379 68.9031 -26.7087 90.1947 -26.2844 116.029C-25.8601 141.863 -4.58712 162.457 21.23 162.026Z" stroke="#C6C6D0" stroke-opacity="0.16" stroke-width="0.8974" stroke-miterlimit="10"/>
<path d="M28.6786 152.409C52.0658 141.45 62.1511 113.596 51.2046 90.1959C40.2581 66.7956 12.4251 56.7099 -10.9622 67.6688C-34.3495 78.6277 -44.4347 106.481 -33.4882 129.882C-22.5417 153.282 5.29128 163.368 28.6786 152.409Z" stroke="#C6C6D0" stroke-opacity="0.16" stroke-width="0.8974" stroke-miterlimit="10"/>
<path d="M4.83251 151.907C30.2883 147.566 47.4121 123.398 43.0794 97.9262C38.7468 72.4545 14.5985 55.3248 -10.8574 59.666C-36.3132 64.0072 -53.4369 88.1753 -49.1043 113.647C-44.7716 139.119 -20.6233 156.248 4.83251 151.907Z" stroke="#C6C6D0" stroke-opacity="0.16" stroke-width="0.8974" stroke-miterlimit="10"/>
<path d="M-7.39992 148.658C18.0559 144.317 35.1797 120.149 30.847 94.6772C26.5144 69.2055 2.36605 52.0758 -23.0898 56.417C-48.5456 60.7581 -65.6693 84.9262 -61.3367 110.398C-57.0041 135.87 -32.8557 152.999 -7.39992 148.658Z" stroke="#C6C6D0" stroke-opacity="0.16" stroke-width="0.8974" stroke-miterlimit="10"/>
<path d="M-19.9155 146.314C5.5403 141.973 22.664 117.805 18.3314 92.3334C13.9988 66.8617 -10.1496 49.732 -35.6054 54.0732C-61.0612 58.4144 -78.185 82.5825 -73.8523 108.054C-69.5197 133.526 -45.3714 150.656 -19.9155 146.314Z" stroke="#C6C6D0" stroke-opacity="0.16" stroke-width="0.8974" stroke-miterlimit="10"/>
<path d="M5.74109 106.842C10.1328 81.378 -6.93516 57.1775 -32.3813 52.7885C-57.8274 48.3996 -82.0158 65.4842 -86.4075 90.9482C-90.7992 116.412 -73.7312 140.613 -48.2851 145.002C-22.839 149.391 1.34938 132.306 5.74109 106.842Z" stroke="#C6C6D0" stroke-opacity="0.16" stroke-width="0.8974" stroke-miterlimit="10"/>
<path d="M-39.6612 143.543C-14.9219 136.133 -0.864822 110.059 -8.26389 85.3054C-15.663 60.5514 -41.7162 46.4909 -66.4555 53.9004C-91.1948 61.3098 -105.252 87.3835 -97.8528 112.137C-90.4537 136.891 -64.4005 150.952 -39.6612 143.543Z" stroke="#C6C6D0" stroke-opacity="0.16" stroke-width="0.8974" stroke-miterlimit="10"/>
</g>
<path d="M30.693 227.521C76.7165 153.839 126.482 118.532 165.37 99.9696C197.791 84.4965 209.502 86.9423 234.837 68.9057C289.815 29.7642 337.993 -55.3134 305.715 -106.377C289.815 -131.531 263.397 -127.935 217.898 -146.663C176.969 -163.511 122.67 -197.966 70.9233 -276.516" stroke="#4A3AFF" stroke-opacity="0.12" stroke-miterlimit="10"/>
<path d="M41.0469 229.186C82.1883 156.878 129.378 121.557 166.049 102.616C196.912 86.6806 208.086 86.916 233.293 67.4567C286.17 26.6355 332.061 -53.1491 302.475 -103.801C287.238 -129.891 261.751 -129.073 216.706 -149.556C177.048 -167.59 123.838 -202.36 72.4569 -279.649" stroke="#4A3AFF" stroke-opacity="0.12" stroke-miterlimit="10"/>
<path d="M51.3981 230.852C87.6586 159.919 132.288 124.553 166.728 105.259C196.067 88.8226 206.665 86.9279 231.748 66.0041C282.558 23.6196 326.224 -51.1074 299.237 -101.23C284.656 -128.308 260.123 -130.173 215.515 -152.454C177.131 -171.628 125.01 -206.758 73.9982 -282.789" stroke="#4A3AFF" stroke-opacity="0.12" stroke-miterlimit="10"/>
<path d="M61.7511 232.518C93.1306 162.96 135.216 127.509 167.415 107.903C195.254 90.9419 205.246 86.9825 230.203 64.545C278.986 20.7064 320.49 -49.1807 295.998 -98.6637C282.084 -126.779 258.509 -131.234 214.324 -155.356C177.214 -175.614 126.183 -211.16 75.5346 -285.925" stroke="#4A3AFF" stroke-opacity="0.12" stroke-miterlimit="10"/>
<path d="M72.1033 234.183C98.6003 165.993 138.153 130.416 168.087 110.544C194.471 93.0274 203.836 87.0632 228.657 63.0999C275.455 17.9059 314.861 -47.3424 292.757 -96.0846C279.515 -125.287 256.898 -132.239 213.131 -158.247C177.291 -179.544 127.353 -215.552 77.0772 -289.052" stroke="#4A3AFF" stroke-opacity="0.12" stroke-miterlimit="10"/>
<path d="M82.4543 235.849C104.069 169.04 141.099 133.27 168.766 113.187C193.72 95.0723 202.436 87.1997 227.11 61.6468C271.975 15.1878 309.337 -45.6009 289.518 -93.5116C276.968 -123.848 255.285 -133.195 211.938 -161.143C177.358 -183.433 128.525 -219.949 78.6058 -292.189" stroke="#4A3AFF" stroke-opacity="0.12" stroke-miterlimit="10"/>
<path d="M92.8064 237.515C109.533 172.079 144.043 136.059 169.445 115.829C192.998 97.0717 201.056 87.3643 225.566 60.1951C268.548 12.5462 303.924 -43.9379 286.279 -90.9392C274.449 -122.449 253.669 -134.121 210.748 -164.04C177.412 -187.278 129.698 -224.351 80.1439 -295.324" stroke="#4A3AFF" stroke-opacity="0.12" stroke-miterlimit="10"/>
<path d="M103.161 239.175C115.012 175.116 146.986 138.771 170.126 118.466C192.299 99.0106 199.702 87.5514 224.023 58.738C265.176 9.96925 298.616 -42.3502 283.041 -88.3722C271.967 -121.095 252.041 -134.997 209.558 -166.942C177.452 -191.078 130.875 -228.742 81.6813 -298.46" stroke="#4A3AFF" stroke-opacity="0.12" stroke-miterlimit="10"/>
<path d="M113.513 240.847C120.482 178.163 149.908 141.415 170.806 121.115C191.615 100.895 198.38 87.7928 222.477 57.2905C261.858 7.4563 293.412 -40.8108 279.802 -85.7936C269.526 -119.768 250.388 -135.817 208.366 -169.833C177.471 -194.842 132.042 -233.139 83.2198 -301.603" stroke="#4A3AFF" stroke-opacity="0.12" stroke-miterlimit="10"/>
<path d="M123.861 242.512C125.949 181.201 152.796 143.969 171.481 123.757C190.931 102.716 197.069 88.048 220.928 55.8382C258.587 4.99455 288.301 -39.3169 276.558 -83.2218C267.131 -118.47 248.707 -136.601 207.169 -172.731C177.464 -198.571 133.21 -237.538 84.7508 -304.731" stroke="#4A3AFF" stroke-opacity="0.12" stroke-miterlimit="10"/>
<path d="M134.219 244.178C131.426 184.236 155.653 146.437 172.165 126.398C190.245 104.46 195.809 88.3295 219.387 54.3855C255.38 2.56885 283.295 -37.8606 273.324 -80.6484C264.806 -117.199 247.001 -137.341 205.982 -175.627C177.441 -202.266 134.387 -241.934 86.295 -307.866" stroke="#4A3AFF" stroke-opacity="0.12" stroke-miterlimit="10"/>
<path d="M144.57 245.843C136.894 187.283 158.449 148.819 172.844 129.04C189.524 106.126 194.581 88.627 217.841 52.9334C252.219 0.173371 278.373 -36.4325 270.084 -78.0764C262.546 -115.95 245.254 -138.044 204.791 -178.525C177.388 -205.937 135.558 -246.332 87.8291 -311.001" stroke="#4A3AFF" stroke-opacity="0.12" stroke-miterlimit="10"/>
<path d="M154.923 247.51C142.364 190.324 161.176 151.124 173.524 131.684C188.749 107.715 193.388 88.9565 216.297 51.4806C249.11 -2.19769 273.537 -35.0181 266.844 -75.505C260.363 -114.709 243.467 -138.711 203.599 -181.421C177.31 -209.584 136.73 -250.728 89.3657 -314.137" stroke="#4A3AFF" stroke-opacity="0.12" stroke-miterlimit="10"/>
<path d="M165.276 249.176C147.837 193.364 163.825 153.361 174.205 134.326C187.891 109.229 192.238 89.2961 214.751 50.0318C246.046 -4.54756 268.772 -33.609 263.607 -72.9291C258.272 -113.484 241.634 -139.341 202.408 -184.315C177.205 -213.214 137.899 -255.126 90.9075 -317.271" stroke="#4A3AFF" stroke-opacity="0.12" stroke-miterlimit="10"/>
<path d="M175.626 250.841C153.305 196.404 166.382 155.546 174.881 136.974C186.912 110.683 191.123 89.6537 213.205 48.5814C243.027 -6.88817 264.09 -32.1941 260.365 -70.354C256.274 -112.256 239.751 -139.946 201.21 -187.21C177.064 -216.823 139.068 -259.519 92.4332 -320.403" stroke="#4A3AFF" stroke-opacity="0.12" stroke-miterlimit="10"/>
<path d="M185.979 252.507C158.777 199.439 168.845 157.701 175.561 139.612C185.785 112.077 190.052 90.0121 211.66 47.1242C240.057 -9.22408 259.472 -30.7764 257.127 -67.7866C254.386 -111.029 237.824 -140.53 200.024 -190.111C176.906 -220.434 140.245 -263.92 93.9761 -323.542" stroke="#4A3AFF" stroke-opacity="0.12" stroke-miterlimit="10"/>
<path d="M196.333 254.166C164.248 202.48 176.421 160.559 176.244 142.247C175.952 112.296 189.023 90.3761 210.117 45.664C237.12 -11.5651 254.914 -29.3338 253.888 -65.214C252.618 -109.78 235.834 -141.093 198.833 -193.008C176.721 -224.031 141.418 -268.317 95.5189 -326.677" stroke="#4A3AFF" stroke-opacity="0.12" stroke-miterlimit="10"/>
<path d="M206.684 255.838C169.718 205.526 177.828 162.362 176.922 144.897C175.333 114.285 188.03 90.7607 208.571 44.2191C234.229 -13.9042 250.413 -27.855 250.648 -62.642C250.968 -108.507 233.796 -141.64 197.638 -195.906C176.504 -227.628 142.586 -272.715 97.0467 -329.813" stroke="#4A3AFF" stroke-opacity="0.12" stroke-miterlimit="10"/>
<path d="M217.036 257.505C175.187 208.567 179.036 164.334 177.6 147.54C174.922 116.19 187.078 91.1434 207.032 42.7675C231.366 -16.2475 245.954 -26.3397 247.417 -60.0675C249.46 -107.196 231.709 -142.173 196.456 -198.801C176.274 -231.22 143.765 -277.111 98.5927 -332.947" stroke="#4A3AFF" stroke-opacity="0.12" stroke-miterlimit="10"/>
<path d="M227.389 259.17C180.659 211.607 177.807 166.611 178.281 150.18C179.225 117.818 186.165 91.523 205.486 41.3137C228.535 -18.6054 241.531 -24.7792 244.175 -57.4971C248.077 -105.839 229.553 -142.702 195.258 -201.702C176.004 -234.823 144.935 -281.512 100.123 -336.085" stroke="#4A3AFF" stroke-opacity="0.12" stroke-miterlimit="10"/>
<path d="M237.74 260.836C186.129 214.648 179.882 169.034 178.96 152.825C177.065 119.498 185.289 91.9065 203.939 39.8632C225.734 -20.9695 237.142 -23.1592 240.935 -54.9233C246.846 -104.419 227.361 -143.225 194.069 -204.595C175.718 -238.424 146.109 -285.906 101.663 -339.219" stroke="#4A3AFF" stroke-opacity="0.12" stroke-miterlimit="10"/>
<path d="M248.092 262.501C191.599 217.688 181.937 171.594 179.638 155.467C174.77 121.342 184.447 92.2861 202.39 38.4096C222.958 -23.351 232.773 -21.4792 237.692 -52.3525C245.745 -102.929 225.106 -143.749 192.875 -207.494C175.412 -242.035 147.275 -290.303 103.196 -342.355" stroke="#4A3AFF" stroke-opacity="0.12" stroke-miterlimit="10"/>
</g>
<defs>
<clipPath id="clip0_5017_7853">
<rect width="343" height="216" rx="8" fill="white"/>
</clipPath>
<clipPath id="clip1_5017_7853">
<rect width="330.244" height="173.086" fill="white" transform="translate(-161.273 30.4824) rotate(9.30557)"/>
</clipPath>
</defs>
</svg>
