<svg width="1301" height="328" viewBox="0 0 1301 328" fill="none" xmlns="http://www.w3.org/2000/svg">
<g clip-path="url(#clip0_4017_481)">
<rect x="0.0571289" y="0.8125" width="1300" height="327" rx="20" fill="#003B84"/>
<path d="M1129.72 20.722C1175.96 13.9504 1207.95 -29.022 1201.18 -75.2595C1194.41 -121.497 1151.44 -153.49 1105.2 -146.719C1058.96 -139.947 1026.97 -96.9749 1033.74 -50.7374C1040.51 -4.49988 1083.49 27.4936 1129.72 20.722Z" stroke="#7592DB" stroke-opacity="0.34" stroke-miterlimit="10"/>
<path d="M1152.35 26.7246C1191.01 0.47009 1201.07 -52.1552 1174.81 -90.8173C1148.56 -129.479 1095.93 -139.538 1057.27 -113.283C1018.61 -87.0287 1008.55 -34.4034 1034.8 4.25869C1061.06 42.9208 1113.68 52.9791 1152.35 26.7246Z" stroke="#7592DB" stroke-opacity="0.34" stroke-miterlimit="10"/>
<path d="M1120.52 57.0093C1164.57 41.3865 1187.61 -6.98437 1171.99 -51.0301C1156.36 -95.0758 1107.99 -118.117 1063.95 -102.494C1019.9 -86.8716 996.861 -38.5007 1012.48 5.54506C1028.11 49.5908 1076.48 72.6321 1120.52 57.0093Z" stroke="#7592DB" stroke-opacity="0.34" stroke-miterlimit="10"/>
<path d="M1130.09 67.6571C1168.1 40.4726 1176.88 -12.3801 1149.69 -50.3926C1122.51 -88.4051 1069.66 -97.1829 1031.64 -69.9984C993.632 -42.8139 984.854 10.0387 1012.04 48.0513C1039.22 86.0638 1092.08 94.8416 1130.09 67.6571Z" stroke="#7592DB" stroke-opacity="0.34" stroke-miterlimit="10"/>
<path d="M1131.65 80.8185C1164.69 47.7737 1164.69 -5.80253 1131.65 -38.8473C1098.6 -71.8921 1045.03 -71.8921 1011.98 -38.8473C978.937 -5.80251 978.937 47.7737 1011.98 80.8185C1045.03 113.863 1098.6 113.863 1131.65 80.8185Z" stroke="#7592DB" stroke-opacity="0.34" stroke-miterlimit="10"/>
<path d="M1082.36 126.227C1128.04 116.394 1157.11 71.3874 1147.28 25.7014C1137.44 -19.9847 1092.44 -49.0497 1046.75 -39.2171C1001.07 -29.3845 972.001 15.6223 981.833 61.3083C991.666 106.994 1036.67 136.059 1082.36 126.227Z" stroke="#7592DB" stroke-opacity="0.34" stroke-miterlimit="10"/>
<path d="M1070.04 150.271C1116.4 144.373 1149.2 102.011 1143.3 55.6516C1137.41 9.29259 1095.04 -23.5078 1048.69 -17.6101C1002.33 -11.7124 969.526 30.65 975.424 77.009C981.322 123.368 1023.68 156.168 1070.04 150.271Z" stroke="#7592DB" stroke-opacity="0.34" stroke-miterlimit="10"/>
<path d="M1115.93 149.34C1148.97 116.295 1148.97 62.7187 1115.93 29.6739C1082.88 -3.3709 1029.31 -3.37089 996.264 29.6739C963.219 62.7187 963.219 116.295 996.264 149.34C1029.31 182.385 1082.88 182.385 1115.93 149.34Z" stroke="#7592DB" stroke-opacity="0.34" stroke-miterlimit="10"/>
<path d="M1114.57 172.335C1147.62 139.29 1147.62 85.7139 1114.57 52.669C1081.53 19.6242 1027.95 19.6242 994.906 52.669C961.861 85.7138 961.861 139.29 994.906 172.335C1027.95 205.38 1081.53 205.38 1114.57 172.335Z" stroke="#7592DB" stroke-opacity="0.34" stroke-miterlimit="10"/>
<path d="M1073.1 218.263C1118.78 208.43 1147.85 163.423 1138.02 117.737C1128.18 72.0512 1083.18 42.9862 1037.49 52.8188C991.805 62.6514 962.74 107.658 972.573 153.344C982.406 199.03 1027.41 228.095 1073.1 218.263Z" stroke="#7592DB" stroke-opacity="0.34" stroke-miterlimit="10"/>
<path d="M1132.8 197.294C1154.33 155.814 1138.15 104.738 1096.67 83.2127C1055.19 61.6875 1004.11 77.8642 982.59 119.344C961.065 160.824 977.241 211.9 1018.72 233.425C1060.2 254.951 1111.28 238.774 1132.8 197.294Z" stroke="#7592DB" stroke-opacity="0.34" stroke-miterlimit="10"/>
<path d="M1137 219.763C1158.53 178.283 1142.35 127.207 1100.87 105.682C1059.39 84.1566 1008.31 100.333 986.787 141.813C965.262 183.293 981.439 234.369 1022.92 255.894C1064.4 277.42 1115.47 261.243 1137 219.763Z" stroke="#7592DB" stroke-opacity="0.34" stroke-miterlimit="10"/>
<path d="M1127.71 262.783C1160.76 229.739 1160.76 176.162 1127.71 143.117C1094.67 110.073 1041.09 110.073 1008.05 143.118C975.003 176.162 975.003 229.739 1008.05 262.783C1041.09 295.828 1094.67 295.828 1127.71 262.783Z" stroke="#7592DB" stroke-opacity="0.34" stroke-miterlimit="10"/>
<path d="M1150.76 263.516C1172.29 222.036 1156.11 170.96 1114.63 149.435C1073.15 127.91 1022.08 144.086 1000.55 185.567C979.027 227.047 995.203 278.122 1036.68 299.648C1078.16 321.173 1129.24 304.996 1150.76 263.516Z" stroke="#7592DB" stroke-opacity="0.34" stroke-miterlimit="10"/>
<path d="M1145.17 305.224C1178.22 272.179 1178.22 218.603 1145.17 185.558C1112.13 152.513 1058.55 152.513 1025.5 185.558C992.46 218.603 992.46 272.179 1025.5 305.224C1058.55 338.269 1112.13 338.269 1145.17 305.224Z" stroke="#7592DB" stroke-opacity="0.34" stroke-miterlimit="10"/>
<path d="M1144.55 335.151C1183.05 308.667 1192.8 255.985 1166.31 217.482C1139.83 178.979 1087.15 169.235 1048.65 195.718C1010.14 222.202 1000.4 274.884 1026.88 313.387C1053.37 351.89 1106.05 361.634 1144.55 335.151Z" stroke="#7592DB" stroke-opacity="0.34" stroke-miterlimit="10"/>
<path d="M1192.93 299.19C1200.85 253.135 1169.93 209.379 1123.88 201.457C1077.82 193.536 1034.07 224.45 1026.15 270.505C1018.22 316.56 1049.14 360.317 1095.19 368.238C1141.25 376.159 1185.01 345.246 1192.93 299.19Z" stroke="#7592DB" stroke-opacity="0.34" stroke-miterlimit="10"/>
<path d="M1144.66 385.042C1189.99 373.7 1217.55 327.754 1206.21 282.418C1194.87 237.083 1148.92 209.526 1103.58 220.868C1058.25 232.21 1030.69 278.156 1042.03 323.492C1053.38 368.827 1099.32 396.384 1144.66 385.042Z" stroke="#7592DB" stroke-opacity="0.34" stroke-miterlimit="10"/>
<path d="M1174.62 397.408C1217.37 378.533 1236.73 328.575 1217.85 285.823C1198.98 243.072 1149.02 223.717 1106.27 242.592C1063.52 261.468 1044.16 311.426 1063.04 354.177C1081.91 396.928 1131.87 416.284 1174.62 397.408Z" stroke="#7592DB" stroke-opacity="0.34" stroke-miterlimit="10"/>
<path d="M1175.72 418.579C1221.46 408.956 1250.73 364.082 1241.11 318.349C1231.48 272.617 1186.61 243.343 1140.88 252.965C1095.14 262.588 1065.87 307.462 1075.49 353.195C1085.12 398.928 1129.99 428.201 1175.72 418.579Z" stroke="#7592DB" stroke-opacity="0.34" stroke-miterlimit="10"/>
<path d="M1225.94 419.696C1264.28 392.979 1273.7 340.24 1246.99 301.9C1220.27 263.56 1167.53 254.139 1129.19 280.856C1090.85 307.573 1081.43 360.312 1108.15 398.651C1134.86 436.991 1187.6 446.413 1225.94 419.696Z" stroke="#7592DB" stroke-opacity="0.34" stroke-miterlimit="10"/>
<path d="M1216.34 445.989C1262.03 436.17 1291.11 391.171 1281.29 345.48C1271.48 299.789 1226.48 270.709 1180.79 280.528C1135.1 290.346 1106.02 335.346 1115.83 381.036C1125.65 426.727 1170.65 455.807 1216.34 445.989Z" stroke="#7592DB" stroke-opacity="0.34" stroke-miterlimit="10"/>
<g clip-path="url(#clip1_4017_481)">
<path d="M297.831 465.414C337.331 437.015 346.353 381.957 317.982 342.437C289.61 302.917 234.59 293.902 195.09 322.3C155.59 350.699 146.568 405.758 174.939 445.278C203.31 484.797 258.331 493.813 297.831 465.414Z" stroke="#C6C6D0" stroke-opacity="0.34" stroke-width="0.8974" stroke-miterlimit="10"/>
<path d="M249.946 458.974C297.891 450.798 330.142 405.278 321.982 357.303C313.822 309.329 268.339 277.066 220.395 285.242C172.45 293.418 140.198 338.938 148.358 386.913C156.518 434.888 202.001 467.151 249.946 458.974Z" stroke="#C6C6D0" stroke-opacity="0.34" stroke-width="0.8974" stroke-miterlimit="10"/>
<path d="M310.445 364.728C318.619 316.752 286.38 271.237 238.437 263.069C190.494 254.9 145.003 287.17 136.829 335.146C128.655 383.123 160.894 428.637 208.836 436.806C256.779 444.974 302.271 412.704 310.445 364.728Z" stroke="#C6C6D0" stroke-opacity="0.34" stroke-width="0.8974" stroke-miterlimit="10"/>
<path d="M261.396 399.987C300.896 371.588 309.918 316.529 281.547 277.01C253.175 237.49 198.155 228.474 158.655 256.873C119.155 285.272 110.133 340.331 138.504 379.85C166.876 419.37 221.896 428.386 261.396 399.987Z" stroke="#C6C6D0" stroke-opacity="0.34" stroke-width="0.8974" stroke-miterlimit="10"/>
<path d="M281.875 323.196C290.049 275.22 257.81 229.706 209.867 221.537C161.925 213.368 116.433 245.638 108.259 293.615C100.085 341.591 132.324 387.105 180.267 395.274C228.209 403.443 273.701 371.172 281.875 323.196Z" stroke="#C6C6D0" stroke-opacity="0.34" stroke-width="0.8974" stroke-miterlimit="10"/>
<path d="M265.374 304.944C273.548 256.967 241.309 211.453 193.366 203.284C145.424 195.115 99.9323 227.386 91.7583 275.362C83.5843 323.338 115.823 368.853 163.766 377.021C211.708 385.19 257.2 352.92 265.374 304.944Z" stroke="#C6C6D0" stroke-opacity="0.34" stroke-width="0.8974" stroke-miterlimit="10"/>
<path d="M212.058 344.947C251.558 316.548 260.579 261.489 232.208 221.97C203.837 182.45 148.817 173.434 109.317 201.833C69.8167 230.232 60.795 285.291 89.1661 324.81C117.537 364.33 172.558 373.346 212.058 344.947Z" stroke="#C6C6D0" stroke-opacity="0.34" stroke-width="0.8974" stroke-miterlimit="10"/>
<path d="M127.633 345.257C175.626 353.121 220.911 320.563 228.78 272.537C236.65 224.511 204.123 179.204 156.131 171.34C108.138 163.476 62.853 196.034 54.9837 244.06C47.1143 292.086 79.6406 337.394 127.633 345.257Z" stroke="#C6C6D0" stroke-opacity="0.34" stroke-width="0.8974" stroke-miterlimit="10"/>
<path d="M208.593 260.052C216.865 212.092 184.718 166.512 136.791 158.245C88.8645 149.979 43.3069 182.157 35.0353 230.117C26.7637 278.077 58.9104 323.658 106.837 331.924C154.764 340.191 200.321 308.013 208.593 260.052Z" stroke="#C6C6D0" stroke-opacity="0.34" stroke-width="0.8974" stroke-miterlimit="10"/>
<path d="M102.389 321.46C151.015 320.65 189.785 280.548 188.986 231.891C188.187 183.233 148.12 144.446 99.4948 145.256C50.8694 146.067 12.0985 186.169 12.8977 234.826C13.697 283.483 53.7636 322.271 102.389 321.46Z" stroke="#C6C6D0" stroke-opacity="0.34" stroke-width="0.8974" stroke-miterlimit="10"/>
<path d="M116.417 303.346C160.465 282.706 179.461 230.244 158.843 186.171C138.226 142.098 85.8039 123.102 41.755 143.742C-2.29392 164.383 -21.2891 216.844 -0.671852 260.917C19.9454 304.991 72.3676 323.987 116.417 303.346Z" stroke="#C6C6D0" stroke-opacity="0.34" stroke-width="0.8974" stroke-miterlimit="10"/>
<path d="M71.5076 302.401C119.453 294.224 151.704 248.705 143.544 200.73C135.384 152.755 89.9013 120.492 41.9564 128.669C-5.98855 136.845 -38.2403 182.365 -30.08 230.339C-21.9197 278.314 23.5626 310.577 71.5076 302.401Z" stroke="#C6C6D0" stroke-opacity="0.34" stroke-width="0.8974" stroke-miterlimit="10"/>
<path d="M48.4663 296.282C96.4113 288.106 128.663 242.586 120.503 194.611C112.342 146.637 66.8601 114.374 18.9152 122.55C-29.0298 130.726 -61.2815 176.246 -53.1212 224.221C-44.9609 272.196 0.521415 304.459 48.4663 296.282Z" stroke="#C6C6D0" stroke-opacity="0.34" stroke-width="0.8974" stroke-miterlimit="10"/>
<path d="M24.8917 291.868C72.8367 283.691 105.088 238.172 96.9281 190.197C88.7678 142.222 43.2855 109.959 -4.65946 118.135C-52.6044 126.312 -84.8562 171.831 -76.6958 219.806C-68.5355 267.781 -23.0532 300.044 24.8917 291.868Z" stroke="#C6C6D0" stroke-opacity="0.34" stroke-width="0.8974" stroke-miterlimit="10"/>
<path d="M73.2175 217.522C81.4891 169.562 49.3423 123.981 1.41565 115.715C-46.511 107.448 -92.0687 139.627 -100.34 187.587C-108.612 235.547 -76.4651 281.128 -28.5385 289.394C19.3882 297.66 64.9459 265.482 73.2175 217.522Z" stroke="#C6C6D0" stroke-opacity="0.34" stroke-width="0.8974" stroke-miterlimit="10"/>
<path d="M-12.2946 286.647C34.3007 272.691 60.7765 223.583 46.8407 176.96C32.9049 130.337 -16.1653 103.854 -62.7607 117.81C-109.356 131.765 -135.832 180.874 -121.896 227.497C-107.96 274.12 -58.89 300.602 -12.2946 286.647Z" stroke="#C6C6D0" stroke-opacity="0.34" stroke-width="0.8974" stroke-miterlimit="10"/>
<path d="M-10.37 275.169C29.13 246.77 38.1517 191.711 9.78057 152.191C-18.5906 112.672 -73.611 103.656 -113.111 132.055C-152.611 160.454 -161.633 215.512 -133.262 255.032C-104.89 294.552 -49.87 303.568 -10.37 275.169Z" stroke="#C6C6D0" stroke-opacity="0.34" stroke-width="0.8974" stroke-miterlimit="10"/>
<path d="M-34.3432 278.859C5.15683 250.461 14.1786 195.402 -14.1926 155.882C-42.5637 116.362 -97.5842 107.347 -137.084 135.745C-176.584 164.144 -185.606 219.203 -157.235 258.723C-128.864 298.242 -73.8432 307.258 -34.3432 278.859Z" stroke="#C6C6D0" stroke-opacity="0.34" stroke-width="0.8974" stroke-miterlimit="10"/>
<path d="M-58.2369 284.344C-18.7369 255.945 -9.71513 200.886 -38.0863 161.367C-66.4574 121.847 -121.478 112.831 -160.978 141.23C-200.478 169.629 -209.5 224.688 -181.128 264.207C-152.757 303.727 -97.7369 312.743 -58.2369 284.344Z" stroke="#C6C6D0" stroke-opacity="0.34" stroke-width="0.8974" stroke-miterlimit="10"/>
</g>
<path d="M120.218 676.405C294.651 397.144 483.267 263.328 630.655 192.975C753.532 134.331 797.919 143.6 893.943 75.2402C1102.31 -73.1097 1284.91 -395.561 1162.58 -589.098C1102.31 -684.434 1002.19 -670.803 829.74 -741.784C674.615 -805.641 468.82 -936.229 272.694 -1233.94" stroke="#4A3AFF" stroke-opacity="0.36" stroke-miterlimit="10"/>
<path d="M159.458 682.719C315.388 408.664 494.24 274.794 633.227 203.007C750.202 142.61 792.553 143.502 888.087 69.7496C1088.5 -84.9663 1262.43 -387.357 1150.3 -579.331C1092.54 -678.216 995.948 -675.114 825.221 -752.747C674.915 -821.097 473.244 -952.879 278.505 -1245.81" stroke="#4A3AFF" stroke-opacity="0.36" stroke-miterlimit="10"/>
<path d="M198.692 689.032C336.123 420.189 505.272 286.147 635.801 213.022C747.001 150.726 787.166 143.545 882.234 64.2417C1074.81 -96.399 1240.31 -379.621 1138.02 -569.592C1082.76 -672.218 989.78 -679.285 820.709 -763.732C675.232 -836.405 477.688 -969.549 284.349 -1257.72" stroke="#4A3AFF" stroke-opacity="0.36" stroke-miterlimit="10"/>
<path d="M237.933 695.347C356.864 431.716 516.369 297.352 638.408 223.044C743.921 158.759 781.79 143.753 876.379 58.7129C1061.27 -107.439 1218.58 -372.317 1125.75 -559.862C1073.02 -666.42 983.664 -683.306 816.196 -774.732C675.548 -851.511 482.136 -986.234 290.173 -1269.6" stroke="#4A3AFF" stroke-opacity="0.36" stroke-miterlimit="10"/>
<path d="M277.167 701.657C377.592 443.21 527.499 308.368 640.954 233.052C740.952 166.663 776.446 144.059 870.519 53.2357C1047.89 -118.054 1197.24 -365.35 1113.46 -550.088C1063.28 -660.769 977.555 -687.117 811.673 -785.687C675.837 -866.407 486.569 -1002.88 296.018 -1281.45" stroke="#4A3AFF" stroke-opacity="0.36" stroke-miterlimit="10"/>
<path d="M316.401 707.971C398.324 454.758 538.67 319.188 643.529 243.069C738.106 174.414 771.144 144.577 864.66 47.7287C1034.7 -128.355 1176.31 -358.749 1101.19 -540.335C1053.62 -655.311 971.447 -690.739 807.156 -796.665C676.093 -881.143 491.013 -1019.54 301.815 -1293.34" stroke="#4A3AFF" stroke-opacity="0.36" stroke-miterlimit="10"/>
<path d="M355.636 714.283C419.033 466.277 549.829 329.758 646.104 253.084C735.37 181.992 765.913 145.2 858.806 42.2258C1021.71 -138.368 1155.79 -352.447 1088.91 -530.586C1044.08 -650.011 965.319 -694.249 802.645 -807.645C676.299 -895.718 495.46 -1036.23 307.644 -1305.22" stroke="#4A3AFF" stroke-opacity="0.36" stroke-miterlimit="10"/>
<path d="M394.88 720.577C439.793 477.786 560.978 340.038 648.681 263.078C732.718 189.34 760.778 145.909 852.956 36.7036C1008.93 -148.134 1135.67 -346.429 1076.64 -520.857C1034.67 -644.88 959.146 -697.57 798.131 -818.645C676.445 -910.121 499.916 -1052.87 313.468 -1317.11" stroke="#4A3AFF" stroke-opacity="0.36" stroke-miterlimit="10"/>
<path d="M434.11 726.913C460.525 489.334 572.05 350.058 651.257 273.118C730.125 196.482 755.763 146.824 847.093 31.2183C996.35 -157.658 1115.94 -340.594 1064.36 -511.083C1025.41 -639.849 952.88 -700.677 793.61 -829.601C676.518 -924.386 504.337 -1069.54 319.297 -1329.02" stroke="#4A3AFF" stroke-opacity="0.36" stroke-miterlimit="10"/>
<path d="M473.329 733.222C481.245 500.85 582.998 359.735 653.816 283.13C727.531 203.385 750.796 147.791 841.223 25.7128C983.955 -166.989 1096.57 -334.933 1052.07 -501.337C1016.34 -634.929 946.507 -703.65 789.077 -840.585C676.489 -938.52 508.766 -1086.21 325.099 -1340.88" stroke="#4A3AFF" stroke-opacity="0.36" stroke-miterlimit="10"/>
<path d="M512.586 739.538C502.002 512.351 593.825 369.089 656.408 293.142C724.932 209.993 746.018 148.858 835.381 20.2071C971.799 -176.182 1077.6 -329.414 1039.81 -491.583C1007.53 -630.114 940.042 -706.453 784.577 -851.562C676.404 -952.525 513.226 -1102.87 330.951 -1352.76" stroke="#4A3AFF" stroke-opacity="0.36" stroke-miterlimit="10"/>
<path d="M551.82 745.851C522.727 523.902 604.422 378.119 658.981 303.157C722.2 216.308 741.367 149.987 829.526 14.705C959.822 -185.26 1058.95 -324 1027.53 -481.833C998.961 -625.377 933.422 -709.116 780.064 -862.54C676.206 -966.437 517.663 -1119.54 336.768 -1364.64" stroke="#4A3AFF" stroke-opacity="0.36" stroke-miterlimit="10"/>
<path d="M591.06 752.165C543.463 535.427 614.76 386.856 661.562 313.174C719.263 222.33 736.848 151.234 823.673 9.19756C948.037 -194.248 1040.62 -318.64 1015.25 -472.089C990.689 -620.677 926.651 -711.643 775.547 -873.52C675.909 -980.26 522.107 -1136.2 342.593 -1376.52" stroke="#4A3AFF" stroke-opacity="0.36" stroke-miterlimit="10"/>
<path d="M630.294 758.478C564.198 546.948 624.795 395.333 664.135 323.19C716.006 228.068 732.482 152.521 817.811 3.70619C936.421 -203.155 1022.55 -313.3 1002.98 -462.327C982.756 -616.035 919.699 -714.034 771.027 -884.488C675.505 -994.018 526.533 -1152.87 348.431 -1388.4" stroke="#4A3AFF" stroke-opacity="0.36" stroke-miterlimit="10"/>
<path d="M669.528 764.791C584.928 558.472 634.49 403.616 666.705 333.227C712.303 233.58 728.261 153.877 811.955 -1.79055C924.983 -212.025 1004.82 -307.937 990.695 -452.566C975.19 -611.379 912.566 -716.324 766.491 -895.46C674.976 -1007.7 530.968 -1169.52 354.219 -1400.27" stroke="#4A3AFF" stroke-opacity="0.36" stroke-miterlimit="10"/>
<path d="M708.768 771.106C605.668 569.971 643.827 411.78 669.283 343.222C708.031 238.865 724.203 155.235 806.099 -7.31389C913.728 -220.879 987.311 -302.564 978.425 -442.836C968.033 -606.727 905.265 -718.541 762 -906.457C674.381 -1021.38 535.431 -1186.2 360.067 -1412.17" stroke="#4A3AFF" stroke-opacity="0.36" stroke-miterlimit="10"/>
<path d="M748.008 777.392C626.403 581.497 672.54 422.614 671.868 353.211C670.762 239.692 720.303 156.615 800.251 -12.8479C902.594 -229.751 970.036 -297.096 966.147 -433.085C961.333 -601.996 897.72 -720.674 757.483 -917.436C673.676 -1035.01 539.875 -1202.86 365.914 -1424.05" stroke="#4A3AFF" stroke-opacity="0.36" stroke-miterlimit="10"/>
<path d="M787.237 783.73C647.135 593.042 677.874 429.447 674.437 363.252C668.417 247.231 716.539 158.072 794.392 -18.3247C891.636 -238.617 952.976 -291.492 953.868 -423.337C955.079 -597.171 889.995 -722.746 752.954 -928.419C672.853 -1048.65 544.302 -1219.53 371.704 -1435.94" stroke="#4A3AFF" stroke-opacity="0.36" stroke-miterlimit="10"/>
<path d="M826.478 790.046C667.865 604.567 682.452 436.922 677.012 373.269C666.862 254.45 712.935 159.522 788.56 -23.8265C880.789 -247.499 936.078 -285.749 941.622 -413.58C949.365 -592.202 882.09 -724.767 748.475 -939.391C671.984 -1062.26 548.774 -1236.2 377.566 -1447.82" stroke="#4A3AFF" stroke-opacity="0.36" stroke-miterlimit="10"/>
<path d="M865.712 796.358C688.6 616.092 677.79 445.552 679.587 383.278C683.165 260.623 709.471 160.961 782.696 -29.3363C870.057 -256.435 919.311 -279.834 929.333 -403.838C944.123 -587.058 873.912 -726.772 743.933 -950.386C670.959 -1075.92 553.203 -1252.87 383.363 -1459.71" stroke="#4A3AFF" stroke-opacity="0.36" stroke-miterlimit="10"/>
<path d="M904.947 802.671C709.336 627.617 685.661 454.737 682.166 393.3C674.984 266.988 706.15 162.415 776.836 -34.8336C859.441 -265.395 902.677 -273.694 917.053 -394.082C939.459 -581.676 865.608 -728.754 739.43 -961.352C669.876 -1089.57 557.655 -1269.53 389.203 -1471.59" stroke="#4A3AFF" stroke-opacity="0.36" stroke-miterlimit="10"/>
<path d="M944.186 808.986C730.071 639.138 693.45 464.439 684.739 403.317C666.289 273.979 702.965 163.855 770.97 -40.3417C848.924 -274.42 886.126 -267.326 904.769 -384.338C935.29 -576.026 857.067 -730.738 734.907 -972.337C668.721 -1103.25 562.081 -1286.19 395.015 -1483.47" stroke="#4A3AFF" stroke-opacity="0.36" stroke-miterlimit="10"/>
</g>
<defs>
<clipPath id="clip0_4017_481">
<rect x="0.0571289" y="0.8125" width="1300" height="327" rx="20" fill="white"/>
</clipPath>
<clipPath id="clip1_4017_481">
<rect width="622" height="326" fill="white" transform="translate(-241.349 73.7041) rotate(9.30557)"/>
</clipPath>
</defs>
</svg>
