<svg width="357" height="18" viewBox="0 0 357 18" fill="none" xmlns="http://www.w3.org/2000/svg">
<g clip-path="url(#clip0_4497_1130)">
<path d="M323.553 1.46261C323.695 1.60547 324.12 1.46261 324.403 1.1769C324.687 1.60547 324.97 1.03404 325.112 1.1769C325.537 1.46261 325.82 1.46261 326.246 1.1769C326.387 1.03404 326.954 1.60547 327.238 1.60547C327.521 1.60547 327.521 1.60547 327.521 1.60547C327.946 1.46261 328.371 1.46261 328.655 1.46261C328.938 1.46261 330.072 1.74833 330.639 1.89118C330.639 1.89118 330.639 1.89118 331.064 1.60547C331.064 1.60547 331.206 1.60547 331.348 1.60547C331.773 1.74833 332.34 2.03404 332.765 2.03404C333.19 2.03404 333.19 2.03404 333.19 2.03404C333.615 1.74833 333.757 2.03404 333.757 2.46261C333.757 2.46261 333.757 2.46261 334.465 1.89118C335.032 1.46261 335.032 1.46261 335.032 1.46261C335.599 1.74833 336.45 1.74833 336.875 1.60547C337.3 1.46261 338.575 2.1769 339.001 2.03404C339.426 1.89118 340.985 2.46261 341.41 2.60547C341.41 2.60547 341.41 2.60547 341.41 2.03404L341.693 1.89118C342.26 2.31975 342.26 2.31975 342.26 2.31975C342.969 2.1769 343.677 2.31975 343.961 2.46261C344.244 2.60547 345.095 2.1769 345.378 2.31975C345.662 2.46261 346.512 2.60547 346.795 2.46261C347.079 2.31975 348.779 2.31975 349.63 2.46261C349.63 2.46261 349.63 2.46261 350.48 2.74833C350.764 2.89118 351.189 2.46261 351.614 2.46261C351.897 2.46261 351.897 2.46261 351.897 2.46261C352.181 2.60547 352.606 2.60547 352.748 2.46261C353.456 3.03404 353.456 3.03404 353.456 3.03404C354.307 2.74833 355.157 2.74833 355.299 3.1769C355.44 3.60547 356.149 4.46261 356.291 4.46261C356.433 4.46261 356.999 4.46261 356.999 4.60547C356.999 4.74833 356.858 5.1769 356.574 5.31976C356.291 5.46261 356.291 6.74833 355.724 7.31976C355.724 7.31976 355.724 7.31976 355.866 8.1769C355.866 8.31976 355.866 8.31976 355.866 8.31976C355.866 8.60547 355.724 8.74833 355.582 8.74833C355.44 8.60547 355.157 8.60547 355.015 8.89118C355.866 9.1769 354.874 9.74833 355.299 10.1769V10.3198C354.732 10.7483 354.732 10.7483 354.732 10.7483C354.732 11.1769 354.023 11.6055 353.315 11.7483C353.315 11.7483 353.315 11.7483 352.606 11.1769C352.464 11.034 352.464 11.034 352.464 11.034C352.039 11.1769 351.331 11.3198 350.905 11.4626C350.48 11.4626 349.063 11.3198 348.638 11.4626C348.638 11.4626 348.638 11.4626 348.213 11.4626C347.787 11.4626 347.787 11.4626 347.787 11.4626C347.362 11.3198 346.937 11.3198 346.795 11.3198C346.654 11.3198 345.945 11.3198 345.803 11.3198C345.662 11.3198 344.244 11.4626 343.111 11.4626C342.119 11.4626 338.859 11.4626 338.292 11.3198C337.725 11.3198 336.166 11.7483 336.024 11.7483C336.024 11.7483 336.024 11.7483 335.883 11.7483C335.174 11.7483 335.174 11.7483 335.174 11.7483C334.324 11.6055 333.332 11.6055 332.907 11.6055C332.481 11.7483 331.206 11.4626 330.922 11.4626C330.639 11.4626 329.505 11.6055 329.08 11.4626C328.655 11.3198 326.812 11.6055 325.962 11.6055C325.962 11.6055 325.962 11.6055 325.112 11.6055C324.261 11.6055 323.411 11.6055 322.561 11.6055C321.994 11.6055 321.285 11.7483 321.144 11.6055C320.718 11.1769 320.293 11.7483 320.01 11.3198C320.01 11.1769 319.585 11.1769 319.443 11.3198C319.018 11.3198 318.451 11.6055 318.309 11.4626C317.742 11.034 317.742 11.034 317.742 11.034C317.317 11.3198 316.75 11.4626 316.467 11.3198C316.183 11.1769 315.616 11.1769 315.191 11.034C314.908 10.8912 313.916 11.3198 313.49 11.1769C313.207 11.034 312.215 11.6055 311.932 11.6055C311.648 11.6055 310.373 11.1769 309.806 11.034C309.806 11.034 309.806 11.034 309.239 11.4626C308.955 12.034 308.955 12.034 308.955 12.034C308.105 11.8912 307.255 11.7483 306.971 11.6055C306.83 11.4626 305.979 11.4626 305.554 11.3198C305.129 11.1769 303.428 11.8912 302.578 12.1769C302.578 12.1769 302.578 12.1769 302.011 11.4626C302.011 11.4626 301.586 11.3198 301.444 11.4626C300.877 11.8912 300.169 11.1769 299.46 11.6055C299.318 11.7483 298.893 11.7483 298.61 11.7483C298.043 11.7483 297.618 11.4626 297.051 11.4626C296.625 11.4626 296.625 11.4626 296.625 11.4626C296.2 11.6055 295.492 11.7483 295.208 11.6055C294.925 11.6055 293.933 11.6055 293.649 11.4626C293.366 11.3198 292.516 11.7483 292.09 11.8912C291.665 12.034 290.957 11.4626 290.673 11.6055C290.39 11.7483 288.972 11.6055 288.406 11.6055C288.406 11.6055 288.406 11.6055 287.839 11.6055C287.413 11.6055 286.847 11.7483 286.421 11.7483C285.571 11.7483 285.571 11.7483 285.571 11.7483C284.579 11.6055 283.02 11.6055 282.028 11.6055C282.028 11.6055 282.028 11.6055 281.178 11.8912C280.611 12.034 280.611 12.034 280.611 12.034C279.902 11.8912 278.627 11.7483 277.776 11.7483C277.776 11.7483 277.776 11.7483 277.068 11.7483C276.359 11.7483 275.509 11.7483 274.8 11.7483C274.092 11.7483 273.241 11.7483 272.533 11.7483C271.824 11.7483 270.974 11.7483 270.265 11.7483C269.556 11.7483 268.706 11.7483 267.997 11.7483C267.572 11.7483 267.572 11.7483 267.572 11.7483C267.005 11.8912 266.58 12.034 266.438 12.034C266.297 12.034 265.588 11.8912 265.021 11.8912C264.454 11.7483 261.195 12.034 260.911 11.8912C260.628 11.7483 260.061 11.8912 259.777 11.7483C259.494 11.6055 258.36 12.034 257.793 12.034C257.793 12.034 257.793 12.034 257.227 12.034C256.66 12.034 256.093 12.034 255.526 12.034C254.817 12.034 254.25 12.034 253.542 12.034C252.975 12.034 252.408 12.034 251.841 12.034C251.274 12.034 250.707 12.034 250.14 12.034C249.573 12.034 249.007 12.034 248.44 12.034C247.873 12.034 247.873 12.034 247.873 12.034C247.306 12.034 245.322 12.034 243.763 12.1769C242.062 12.1769 237.244 12.6055 236.535 12.7483C236.535 12.7483 236.535 12.7483 236.393 12.6055C235.968 12.3198 235.968 12.3198 235.968 12.3198C235.685 12.6055 234.976 12.6055 234.551 12.3198C234.551 12.3198 234.551 12.3198 233.984 12.7483C233.701 12.8912 232.992 12.7483 232.425 12.7483C231.575 12.7483 231.575 12.7483 231.575 12.7483C230.724 12.7483 229.591 12.7483 229.165 12.8912C228.74 13.034 227.465 12.6055 227.04 12.3198C227.04 12.3198 227.04 12.3198 226.756 12.7483C226.331 13.3198 226.331 13.3198 226.331 13.3198C226.047 13.034 225.339 12.7483 224.914 12.8912C224.488 12.8912 222.93 13.034 222.504 13.034C222.079 13.034 220.662 13.1769 220.095 13.1769C220.095 13.1769 220.095 13.1769 219.528 13.1769C218.961 13.1769 218.961 13.1769 218.961 13.1769C218.253 13.1769 217.402 13.3198 216.977 13.3198C216.552 13.4626 215.56 13.4626 214.993 13.7483C214.993 13.7483 214.993 13.7483 214.284 13.6055C213.718 13.4626 213.009 13.6055 212.442 13.6055C211.733 13.6055 211.733 13.6055 211.733 13.6055C211.025 13.6055 210.174 13.7483 209.749 13.8912C209.749 13.8912 209.749 13.8912 209.466 13.8912C209.182 13.8912 209.182 13.8912 209.182 13.8912C208.757 13.7483 207.34 13.6055 205.781 13.7483C204.222 13.7483 200.112 14.1769 199.829 14.4626C199.829 14.4626 199.829 14.4626 199.404 14.034C199.262 13.8912 198.695 14.1769 198.27 14.1769C197.845 14.1769 197.845 14.1769 197.845 14.1769C197.419 14.1769 196.853 14.034 196.427 13.7483C196.002 13.4626 194.727 14.1769 194.302 14.1769C193.876 14.1769 192.459 14.1769 192.034 14.1769C191.609 14.1769 190.05 14.3198 189.625 14.3198C189.625 14.3198 189.625 14.3198 189.199 14.3198C188.774 14.3198 188.349 14.1769 187.924 14.1769C187.074 14.1769 187.074 14.1769 187.074 14.1769C186.223 14.1769 184.948 14.1769 184.097 14.1769C183.247 14.1769 181.121 14.4626 180.554 14.4626C180.554 14.4626 180.554 14.4626 180.129 14.4626C179.562 14.4626 179.562 14.4626 179.562 14.4626C178.854 14.6055 178.003 14.6055 177.72 14.4626C177.436 14.3198 176.161 14.8912 175.736 14.8912C175.311 14.8912 173.61 14.8912 173.043 14.8912C172.476 14.8912 170.209 14.8912 169.075 15.034C167.941 15.1769 164.115 15.1769 162.981 15.1769C161.847 15.1769 158.729 15.1769 158.446 15.3198C158.162 15.4626 157.17 15.1769 156.887 15.034C156.603 15.034 155.469 15.4626 154.903 15.4626C154.336 15.4626 152.21 15.4626 151.359 15.4626C150.509 15.4626 147.533 15.4626 146.683 15.6055C145.832 15.7483 142.147 15.7483 140.589 15.7483C140.589 15.7483 140.589 15.7483 139.03 15.7483C137.471 15.7483 137.471 15.7483 137.471 15.7483C135.77 15.7483 133.928 15.7483 133.361 15.7483C133.361 15.7483 133.361 15.7483 133.077 16.034C132.794 16.3198 132.51 15.4626 131.943 16.034C131.802 16.1769 131.802 16.1769 131.802 16.1769C131.377 16.1769 130.81 16.1769 130.526 16.3198C130.243 16.4626 128.967 16.034 128.259 16.1769C128.259 16.1769 128.259 16.1769 127.55 16.1769C122.59 16.1769 122.59 16.1769 122.59 16.1769C117.063 16.1769 112.102 16.034 111.394 15.8912C111.394 15.8912 111.394 15.8912 110.827 16.3198C110.685 16.4626 110.685 16.4626 110.685 16.4626C110.402 16.4626 109.976 16.3198 109.551 16.3198C109.126 16.3198 107.992 16.3198 107.851 16.3198C107.709 16.4626 107.142 16.1769 106.858 16.1769C106.575 16.1769 105.866 16.3198 105.441 16.3198C105.441 16.3198 105.441 16.3198 105.016 16.3198L103.457 16.1769C103.032 16.1769 103.032 16.1769 103.032 16.1769C102.607 16.1769 102.182 16.034 102.182 15.8912C102.04 15.7483 101.331 16.034 100.906 16.034C100.906 16.034 100.906 16.034 100.623 16.034C100.481 16.034 100.198 15.8912 100.198 15.8912C98.7803 16.4626 98.7803 16.4626 98.7803 16.4626C97.2213 16.3198 94.812 16.1769 93.2531 16.1769C93.2531 16.1769 93.2531 16.1769 91.8359 16.1769C90.9855 16.1769 89.9935 16.1769 89.1431 16.1769C88.2928 16.1769 88.2928 16.1769 88.2928 16.1769C87.4424 16.1769 86.3087 16.1769 85.8835 16.034C85.4583 16.034 83.8994 16.6055 83.1908 16.8912C83.1908 16.8912 83.1908 16.8912 82.7656 16.1769C82.7656 16.034 82.3404 16.034 82.1987 16.1769C81.4901 16.6055 81.4901 16.6055 81.4901 16.6055C80.7815 16.4626 79.6477 16.3198 78.7973 16.4626C78.7973 16.4626 78.7973 16.4626 78.0887 16.4626C77.3801 16.4626 76.5298 16.4626 75.8212 16.4626C75.1125 16.4626 74.4039 16.4626 73.6953 16.4626C72.9867 16.4626 72.1364 16.4626 71.4278 16.4626C70.7191 16.4626 70.0105 16.4626 69.3019 16.4626C68.5933 16.4626 67.743 16.4626 67.0343 16.4626C66.3257 16.4626 66.3257 16.4626 66.3257 16.4626C65.6171 16.4626 64.4833 16.4626 63.9164 16.3198C63.3495 16.1769 61.6489 16.7483 61.5072 16.6055C61.3654 16.4626 59.9482 16.4626 59.0979 16.4626C58.2475 16.4626 55.5548 16.7483 55.2713 16.7483C54.9879 16.7483 53.9958 16.7483 53.7124 16.6055C53.4289 16.4626 52.4369 16.8912 52.1534 16.8912C51.87 16.8912 50.8779 16.6055 50.4528 16.7483C50.0276 16.8912 48.7521 16.8912 48.3269 17.034C47.9018 17.034 46.768 16.7483 46.4845 16.8912C46.2011 16.8912 44.9256 17.034 44.217 17.034C43.5083 17.034 40.6739 17.034 39.3984 16.8912C39.3984 16.8912 39.3984 16.8912 38.4063 17.4626C38.2646 17.6055 38.2646 17.6055 38.2646 17.6055C37.9812 17.6055 37.2725 17.4626 36.5639 17.6055C36.5639 17.6055 36.5639 17.6055 36.1388 17.4626C35.4301 16.6055 35.4301 16.6055 35.4301 16.6055C35.005 16.8912 34.2964 17.034 33.8712 16.8912C33.8712 16.8912 33.8712 16.8912 33.446 17.034C32.8791 17.1769 32.8791 17.1769 32.8791 17.1769C32.1705 17.1769 31.4619 17.034 31.1784 17.1769C30.895 17.1769 28.7692 16.7483 27.0685 16.6055C27.0685 16.6055 27.0685 16.6055 25.6513 17.3198C25.0844 17.6055 25.0844 17.6055 25.0844 17.6055C24.5175 17.4626 23.6671 17.4626 23.3837 17.4626C22.9585 17.4626 21.683 17.4626 21.2578 17.4626C20.8327 17.4626 19.9823 17.3198 19.8406 17.3198C19.6989 17.3198 18.8486 17.3198 18.2817 17.3198C17.8565 17.3198 16.1558 17.3198 15.7307 17.1769C15.3055 17.034 14.1717 17.1769 13.7465 17.1769C13.3214 17.1769 12.6128 17.4626 12.471 17.4626C12.3293 17.3198 11.9041 17.1769 11.7624 17.3198C11.6207 17.4626 10.9121 17.6055 10.4869 17.6055C10.4869 17.6055 10.4869 17.6055 10.0617 17.6055C9.35312 17.6055 8.64451 17.6055 7.93589 17.6055C7.51073 17.6055 7.51073 17.6055 7.51073 17.6055C7.369 17.3198 7.08556 17.1769 7.08556 17.1769C7.08556 17.1769 6.80211 17.3198 6.80211 17.4626C6.80211 17.6055 5.81005 17.6055 5.10144 17.4626C5.10144 17.4626 5.10144 17.4626 4.53454 17.4626C4.10938 17.4626 4.10938 17.4626 4.10938 17.4626C3.54248 17.4626 3.11732 17.4626 3.25904 17.3198C3.40076 17.3198 3.54248 17.034 3.40076 16.8912C3.25904 16.7483 3.11732 16.034 3.25904 15.7483C3.40076 15.6055 3.40076 15.034 3.11732 15.034C2.83387 15.034 2.4087 15.1769 2.4087 15.1769C2.4087 15.3198 2.4087 15.4626 2.4087 15.6055C2.4087 15.7483 1.98353 15.4626 1.70009 15.3198C1.41664 15.1769 0.424581 14.7483 0.282858 14.6055C0.141135 14.4626 -0.284034 13.6055 0.141135 13.4626C0.566303 13.3198 0.991472 14.3198 1.27492 14.6055C1.27492 14.6055 1.27492 14.6055 1.55836 14.6055C1.70009 14.6055 1.84181 14.4626 1.84181 14.3198C1.84181 14.1769 1.70009 14.034 1.70009 14.034C1.55836 14.034 1.27492 14.034 1.27492 13.8912C1.27492 13.7483 1.55836 13.3198 1.98353 13.1769C2.4087 13.034 3.54248 12.6055 3.54248 12.4626C3.54248 12.3198 3.68421 11.7483 3.82593 11.8912C3.96765 12.034 4.67627 12.4626 4.95971 12.1769C4.95971 12.1769 4.95971 12.1769 5.10144 11.8912C5.24316 11.6055 5.24316 11.6055 5.52661 11.7483C5.66833 12.034 5.66833 12.034 5.66833 12.034C5.95177 12.034 6.66039 12.034 7.369 12.034C8.07762 12.034 9.49485 11.4626 9.35312 11.4626C9.2114 11.4626 9.63657 11.034 10.7704 10.7483C10.7704 10.7483 10.7704 10.7483 11.9041 11.1769C12.1876 11.3198 12.3293 11.3198 12.6127 11.3198C12.7545 11.3198 12.7545 11.3198 12.7545 11.3198C13.0379 11.1769 13.1796 11.034 12.8962 10.8912C12.7545 10.7483 12.471 10.1769 12.6127 10.1769C12.6127 10.1769 12.6128 10.1769 12.7545 10.1769C12.8962 10.1769 13.1796 10.4626 13.3214 10.3198C14.03 10.034 14.03 10.034 14.03 10.034C14.4551 10.4626 14.8803 10.7483 15.022 10.7483C15.1638 10.7483 15.8724 10.7483 15.5889 10.6055C15.4472 10.4626 15.5889 10.1769 15.8724 9.89118C16.1558 9.60547 17.2896 9.60547 17.5731 9.60547C17.8565 9.60547 18.7068 9.60547 18.9903 9.60547C19.2737 9.60547 20.2658 9.60547 20.691 9.74833C21.1161 9.89118 21.9665 9.03404 22.2499 9.03404C22.5334 9.03404 22.9585 9.46261 22.9585 9.60547C22.9585 9.74833 23.242 9.74833 23.242 9.60547C23.242 9.60547 23.242 9.60547 23.242 9.46261C23.242 8.60547 23.242 8.60547 23.242 8.60547C23.9506 8.74833 24.9426 9.03404 25.5095 9.1769C25.5095 9.1769 25.5095 9.1769 26.0764 8.89118C26.6433 8.60547 26.6433 8.60547 26.6433 8.60547C27.3519 8.46261 28.2023 8.31976 28.6274 8.1769C28.9109 8.03404 29.6195 8.60547 29.7612 8.46261C29.7612 8.46261 29.7612 8.46261 29.7612 8.31976C29.9029 8.1769 29.9029 8.1769 29.9029 8.1769C30.0447 8.1769 30.4698 8.1769 30.895 8.31976C30.895 8.31976 30.895 8.31976 31.1784 8.31976C31.7453 8.31976 31.7453 8.31976 31.7453 8.31976C32.3122 8.1769 32.8791 8.03404 33.1626 8.03404C33.446 8.03404 34.4381 7.89118 34.8632 7.89118C35.2884 7.89118 36.8474 7.74833 37.2725 7.89118C37.6977 7.89118 39.2567 7.46261 39.6818 7.46261C40.107 7.46261 41.3825 7.60547 41.6659 7.46261C41.8077 7.31976 42.658 7.60547 42.9415 7.46261C43.2249 7.31976 43.7918 7.60547 43.9335 7.46261C44.0752 7.31976 44.5004 7.1769 44.6421 7.31976C44.7838 7.74833 45.3507 7.89118 45.6342 7.89118C45.9176 7.89118 46.9097 7.74833 47.3349 7.74833C47.76 7.74833 48.8938 7.60547 49.1773 7.74833C49.4607 7.74833 50.4528 7.60547 50.5945 7.60547C50.8779 7.46261 51.7283 7.46261 52.1534 7.31976C52.5786 7.1769 53.8541 7.74833 53.9958 7.89118C54.2793 8.03404 54.5627 7.31976 54.7045 7.1769C54.7045 7.1769 54.7045 7.1769 54.8462 7.1769C55.4131 7.46261 55.4131 7.46261 55.4131 7.46261C55.98 7.31976 56.5469 7.03404 56.6886 7.03404C56.972 7.1769 57.3972 7.31976 57.6806 7.31976C57.9641 7.1769 57.9641 7.1769 57.9641 7.1769C58.2475 7.1769 58.6727 7.1769 58.8144 7.03404C58.9561 6.89118 59.8065 7.03404 60.0899 7.1769C60.0899 7.1769 60.0899 7.1769 60.3734 7.1769C60.6568 7.1769 60.6568 7.1769 60.6568 7.1769C60.9403 7.1769 61.5071 7.03404 61.7906 7.03404C62.2158 7.03404 63.4913 7.03404 63.9164 7.31976C63.9164 7.31976 63.9164 7.31976 64.4833 6.89118C64.7668 6.60547 65.4754 7.03404 65.9006 6.60547C65.9006 6.60547 66.184 6.74833 66.4675 6.74833C67.3178 6.89118 67.3178 6.89118 67.3178 6.89118C68.3099 6.74833 69.1602 6.60547 69.4436 6.46261C69.5854 6.31976 70.4357 6.60547 70.5774 6.46261C70.7191 6.31976 71.4278 6.74833 71.5695 6.74833C71.7112 6.74833 72.1364 6.74833 72.5615 6.89118C72.9867 7.03404 74.4039 6.60547 75.1125 6.60547C75.1125 6.60547 75.1126 6.60547 75.6794 7.03404C75.8212 7.03404 75.8212 7.03404 75.8212 7.03404C75.9629 7.03404 76.3881 7.03404 76.5298 6.74833C76.6715 6.60547 77.0967 6.46261 77.5218 6.46261C77.947 6.46261 79.2225 6.46261 79.9311 6.60547C79.9311 6.60547 79.9311 6.60547 80.498 6.03404C80.6397 5.89118 81.2066 6.03404 81.4901 6.03404C82.057 5.74833 82.057 5.74833 82.057 5.74833C82.6239 6.03404 83.1908 6.1769 83.3325 6.1769C83.4742 6.1769 84.3245 6.03404 84.608 6.1769C84.608 6.1769 84.608 6.1769 84.8914 6.31976C85.1749 6.46261 85.3166 5.74833 85.7418 6.1769C85.7418 6.1769 86.1669 6.03404 86.4504 6.03404C86.8755 6.03404 86.8755 6.03404 86.8755 6.03404C87.3007 6.1769 87.7259 6.1769 87.8676 6.31976C88.0093 6.46261 88.8597 6.31976 89.4266 6.31976C89.9935 6.31976 91.269 5.89118 91.4107 5.89118C91.5524 5.89118 92.261 6.31976 92.5445 6.46261C92.5445 6.46261 92.5445 6.46261 92.9696 6.03404C93.5365 5.31976 93.5365 5.31976 93.5365 5.31976C94.3869 5.60547 95.3789 5.89118 95.8041 6.03404C95.9458 6.46261 97.5048 6.03404 97.7882 5.89118C98.0717 5.74833 99.0637 5.74833 99.4889 5.60547C99.4889 5.60547 99.4889 5.60547 99.7723 5.74833C100.056 5.89118 100.056 5.89118 100.056 5.89118C100.198 6.1769 100.623 6.1769 100.906 5.89118C100.906 5.89118 100.906 5.89118 101.19 5.74833C101.331 5.74833 101.615 5.74833 101.756 5.89118C101.898 6.03404 102.465 6.1769 102.749 6.03404C102.89 5.89118 104.307 5.89118 104.591 6.03404C104.874 6.1769 105.583 6.03404 105.866 6.1769C106.15 6.31976 106.717 6.03404 107 6.03404C107.284 6.03404 108.134 5.89118 108.417 5.74833C108.701 5.60547 109.976 6.03404 110.543 6.1769C110.543 6.1769 110.543 6.1769 110.968 5.74833C110.968 5.74833 111.252 5.74833 111.394 5.74833C112.102 5.89118 112.102 5.89118 112.102 5.89118C112.953 6.03404 113.945 5.89118 114.37 5.74833C114.795 5.60547 116.212 6.03404 116.779 6.03404C116.779 6.03404 116.779 6.03404 117.204 5.89118C117.629 5.74833 117.629 5.74833 117.629 5.74833C118.055 5.74833 118.763 5.60547 119.188 5.60547C119.614 5.46261 120.747 6.03404 120.889 6.03404C120.889 6.03404 120.889 6.03404 121.031 6.03404C122.165 5.60547 122.165 5.60547 122.165 5.60547C123.44 5.60547 124.857 5.74833 125.141 5.74833C125.424 5.74833 126.7 5.89118 127.125 6.1769C127.125 6.1769 127.125 6.1769 127.55 5.46261C127.692 5.1769 127.692 5.1769 127.692 5.1769C128.259 5.31976 128.826 5.60547 128.967 5.74833C129.109 5.89118 129.959 5.46261 130.101 5.46261C130.243 5.46261 131.093 5.74833 131.235 5.74833C131.235 5.74833 131.235 5.74833 131.377 5.60547C131.943 5.1769 131.943 5.1769 131.943 5.1769C132.51 5.46261 133.219 5.60547 133.502 5.74833C133.928 5.74833 134.92 5.60547 135.203 5.46261C135.487 5.31976 136.337 5.60547 136.479 5.60547C136.62 5.60547 137.045 5.31976 137.187 5.1769C137.329 5.03404 137.896 5.31976 138.038 5.03404C138.038 5.03404 138.038 5.03404 138.463 5.1769C138.888 5.31976 138.888 5.31976 138.888 5.31976C139.596 5.1769 140.589 5.03404 141.014 4.89118C141.439 4.74833 142.714 5.03404 142.856 5.03404C142.998 5.03404 143.848 5.03404 144.273 5.1769C144.273 5.1769 144.273 5.1769 144.557 5.1769C144.699 5.1769 144.699 5.1769 144.699 5.1769C144.84 5.03404 145.124 5.03404 145.124 5.1769C145.124 5.31976 145.549 5.89118 145.832 5.74833C146.116 5.60547 146.966 5.1769 147.25 5.03404C147.533 4.89118 149.092 4.89118 149.375 5.03404C149.659 5.03404 150.509 4.74833 150.934 4.60547C151.218 4.60547 152.493 4.60547 152.777 4.74833C153.06 4.89118 154.619 4.74833 155.469 4.74833C155.469 4.74833 155.469 4.74833 155.895 4.46261C156.32 4.1769 156.32 4.1769 156.32 4.1769C156.603 4.31976 156.887 4.60547 157.028 4.74833C157.17 4.89118 158.304 4.60547 159.013 4.46261C159.579 4.31975 161.564 4.31975 161.705 4.46261C161.847 4.60547 162.981 4.60547 163.264 4.46261C163.689 4.46261 164.823 4.31976 165.248 4.31976C165.673 4.31976 166.666 4.03404 166.807 4.03404C166.949 3.89118 167.516 4.31976 167.658 4.31976C167.941 4.1769 168.366 4.03404 168.65 4.03404C168.933 4.03404 169.217 4.1769 169.642 4.1769C170.067 4.1769 170.067 4.1769 170.067 4.1769C170.492 4.1769 171.201 4.03404 171.484 4.03404C171.768 4.03404 172.476 4.31976 172.618 4.1769C172.618 4.1769 172.618 4.1769 172.76 4.03404C172.901 3.89118 172.901 3.89118 172.901 3.89118C173.043 3.89118 173.61 3.89118 174.035 4.03404C174.46 4.1769 176.728 3.89118 177.011 3.89118C177.011 3.89118 177.011 3.89118 177.295 4.03404C177.72 4.1769 177.72 4.1769 177.72 4.1769C178.003 4.03404 178.57 3.89118 178.854 4.03404C178.854 4.03404 178.854 4.03404 179.137 3.89118C179.562 3.74833 179.562 3.74833 179.562 3.74833C179.988 3.46261 180.554 3.31975 180.838 3.46261C181.121 3.60547 181.972 3.46261 182.397 3.46261C182.68 3.31975 183.389 3.46261 183.672 3.31975C183.956 3.31975 184.664 3.46261 184.948 3.46261C185.231 3.46261 185.798 3.46261 185.94 3.46261C186.082 3.60547 186.648 3.74833 186.932 3.60547C187.357 3.46261 189.625 3.60547 190.475 3.46261C191.325 3.31975 192.743 3.03404 193.026 3.03404C193.026 3.03404 193.026 3.03404 193.451 3.1769C194.16 3.31975 194.16 3.31975 194.16 3.31975C195.01 3.31975 196.144 3.31975 196.427 3.31975C196.427 3.31975 196.427 3.31975 196.711 3.1769C197.136 3.03404 197.136 3.03404 197.136 3.03404C197.703 3.03404 198.411 3.03404 198.695 3.1769C198.978 3.1769 199.97 3.1769 200.254 3.1769C200.254 3.1769 200.254 3.1769 200.537 3.1769C200.821 3.1769 200.821 3.1769 200.821 3.1769C201.104 3.1769 201.813 3.1769 202.521 3.03404C202.521 3.03404 202.521 3.03404 203.23 2.89118C203.797 2.74833 203.797 2.74833 203.797 2.74833C204.364 2.60547 204.931 2.60547 205.072 2.60547C205.072 2.60547 205.498 2.74833 205.781 2.74833C206.065 2.74833 207.198 2.89118 207.482 2.89118C207.765 3.03404 208.474 3.1769 208.616 3.03404C208.757 2.89118 209.182 2.74833 209.466 2.74833C209.749 2.74833 210.458 2.46261 210.883 2.31975C211.308 2.31975 213.009 2.31975 213.718 2.1769C214.426 2.1769 216.41 2.31975 216.694 2.31975C216.977 2.31975 217.969 2.03404 218.111 2.03404C218.253 2.03404 218.678 2.03404 218.82 2.1769C218.961 2.1769 219.953 2.03404 220.804 1.89118C220.804 1.89118 220.804 1.89118 221.512 2.03404C222.079 2.03404 222.079 2.03404 222.079 2.03404C222.504 1.89118 223.213 1.74833 223.638 1.89118C223.638 1.89118 223.638 1.89118 224.063 1.89118C224.489 1.89118 224.488 1.89118 224.488 1.89118C224.914 1.74833 225.622 1.74833 225.906 2.03404C226.189 2.1769 227.465 1.46261 228.173 1.46261C228.173 1.46261 228.173 1.46261 228.74 1.89118C228.74 1.89118 229.024 1.89118 229.024 1.74833C229.165 1.60547 229.165 1.60547 229.165 1.60547C229.165 1.46261 229.449 1.31975 229.732 1.1769C230.016 1.03404 230.724 1.46261 231.008 1.46261C231.291 1.60547 232.425 1.46261 232.708 1.60547C232.992 1.74833 233.559 1.60547 233.842 1.60547C234.126 1.60547 234.976 1.74833 235.401 1.74833C235.826 1.74833 237.244 1.46261 237.669 1.60547C237.669 1.60547 237.669 1.60547 237.81 1.46261C238.377 1.03404 238.519 1.74833 238.944 1.60547C239.369 1.46261 239.369 1.46261 239.369 1.46261C239.653 1.1769 240.22 0.891183 240.645 0.891183C240.928 0.891183 242.204 0.891183 242.487 1.03404C242.771 1.03404 243.905 1.03404 244.188 1.03404C244.471 1.03404 245.605 1.1769 245.889 1.1769C246.172 1.1769 247.306 1.1769 247.873 1.03404C247.873 1.03404 247.873 1.03404 248.44 1.1769C248.865 1.31975 249.432 1.31975 249.715 0.891183L250.991 0.748326C252.266 1.1769 253.542 1.03404 254.817 0.748326C255.242 0.605469 255.809 1.31975 256.234 0.605469C256.376 0.462612 257.227 0.462612 257.652 0.605469C257.935 0.605469 257.935 0.605469 257.935 0.605469C258.219 0.748326 258.644 0.748326 258.785 0.748326C258.927 0.748326 259.352 0.605469 259.636 0.319755C259.919 0.0340402 260.628 0.748326 260.911 0.748326C261.195 0.748326 261.762 0.462612 261.903 0.462612C262.045 0.462612 262.612 0.748326 262.895 0.891183C262.895 0.891183 262.895 0.891183 263.179 0.891183C263.462 0.891183 263.746 0.748326 264.029 0.605469C264.454 0.462612 264.454 0.462612 264.454 0.462612C264.88 0.605469 265.446 0.748326 265.588 0.748326C265.73 0.748326 266.155 0.605469 266.297 0.605469C266.438 0.462612 267.005 0.748326 267.289 0.748326C267.289 0.748326 267.289 0.748326 267.431 0.748326C267.572 0.605469 267.714 0.462612 267.856 0.462612C268.139 0.462612 268.564 0.748326 268.848 0.605469C269.273 0.605469 269.698 0.319755 269.982 0.319755C270.407 0.319755 270.407 0.319755 270.407 0.319755C270.832 0.462612 271.399 0.319755 271.682 0.176897C271.682 0.176897 271.682 0.176897 271.966 0.462612C272.107 0.605469 272.107 0.605469 272.107 0.605469C272.391 0.605469 273.099 0.748326 273.666 0.748326C274.233 0.748326 275.65 0.462612 275.934 0.605469C276.217 0.748326 278.06 0.605469 279.194 0.748326C279.194 0.748326 279.194 0.748326 280.327 0.319755C280.611 0.176897 281.178 0.176897 281.461 0.319755C282.028 0.605469 282.028 0.605469 282.028 0.605469C282.453 0.462612 283.162 0.176897 283.445 0.0340402C283.445 0.0340402 283.445 0.0340402 283.729 0.0340402C284.012 0.0340402 284.296 0.176897 284.579 0.319755C284.721 0.319755 284.721 0.319755 284.721 0.319755C284.862 0.462612 285.713 0.605469 286.705 0.605469C287.697 0.605469 289.964 0.0340402 290.106 0.0340402C290.106 0.0340402 290.248 0.176897 290.39 0.176897C290.531 0.176897 291.24 0.176897 291.665 0.0340402C292.09 -0.108817 293.508 -0.108817 293.933 -0.108817C294.358 -0.108817 295.633 0.319755 295.917 0.462612C296.2 0.605469 297.334 0.319755 297.476 0.462612C297.618 0.605469 298.893 0.0340402 299.318 -0.108817C299.318 -0.108817 299.318 -0.108817 299.885 0.319755C300.169 0.462612 300.169 0.462612 300.169 0.462612C300.877 0.319755 302.153 0.176897 302.861 0.0340402C302.861 0.0340402 302.861 0.0340402 303.428 0.0340402C304.137 0.0340402 304.137 0.0340402 304.137 0.0340402C304.845 0.176897 305.837 0.0340403 306.263 -0.251674C306.263 -0.251674 306.263 -0.251674 306.829 0.176897C307.255 0.462612 307.822 -0.394531 308.53 0.0340402C309.097 0.462612 309.522 0.319755 309.947 -0.108817H310.089C310.514 0.0340402 310.514 0.0340402 310.514 0.0340402C310.939 0.0340402 311.506 0.176897 311.79 0.176897C311.932 0.176897 312.782 -0.108817 313.207 -0.108817C313.207 -0.108817 313.207 -0.108817 313.49 -0.108817C314.199 -0.108817 314.199 -0.108817 314.199 -0.108817C315.049 -0.108817 316.325 -0.108817 317.175 -0.251674C317.175 -0.251674 317.175 -0.251674 317.884 -0.251674C318.309 -0.251674 318.309 -0.251674 318.309 -0.251674C318.876 -0.108817 319.443 0.0340402 319.726 0.0340402C320.01 0.0340402 320.577 -0.108817 320.86 -0.108817C321.002 -0.108817 321.71 0.176897 321.852 0.176897C322.277 -0.394531 322.277 -0.394531 322.277 -0.394531C321.994 1.03404 323.411 1.31975 323.553 1.46261Z" fill="#F3DF60"/>
</g>
<defs>
<clipPath id="clip0_4497_1130">
<rect width="357" height="17" fill="white" transform="translate(0 0.75)"/>
</clipPath>
</defs>
</svg>
